<?xml version="1.0" standalone="no"?>
<!DOCTYPE svg PUBLIC "-//W3C//DTD SVG 20010904//EN"
 "http://www.w3.org/TR/2001/REC-SVG-20010904/DTD/svg10.dtd">
<svg version="1.0" xmlns="http://www.w3.org/2000/svg"
 width="1131.000000pt" height="900.000000pt" viewBox="0 0 1131.000000 800.000000"
 preserveAspectRatio="xMidYMid meet">

<g transform="translate(0.000000,800.000000) scale(0.100000,-0.100000)"
fill="rgba(225, 225, 225, 0.9)"  stroke="none">
<path d="M4490 7745 c-542 -7 -1208 -13 -1480 -14 -272 -1 -508 -4 -525 -6
-16 -2 -466 -6 -1000 -9 -533 -3 -1005 -9 -1048 -12 -68 -6 -80 -10 -86 -28
-5 -11 -11 -1472 -15 -3246 -3 -1774 -9 -3442 -12 -3706 l-6 -482 23 -12 c23
-13 657 -11 1934 5 1616 21 3288 37 3720 36 478 0 1895 -14 2750 -26 209 -3
704 -7 1100 -10 396 -3 813 -8 927 -11 149 -4 213 -2 229 6 l22 12 -9 3232
c-5 1777 -9 3287 -9 3356 -1 495 -7 857 -13 868 -8 13 -27 13 -1487 27 -1475
14 -1764 17 -2510 25 -934 11 -1184 11 -2505 -5z m1127 -51 c-3 -3 -12 -4 -19
-1 -8 3 -5 6 6 6 11 1 17 -2 13 -5z m241 -1 c-27 -2 -69 -2 -95 0 -27 2 -5 3
47 3 52 0 74 -1 48 -3z m3940 -39 c167 -4 300 -10 295 -15 -4 -4 -53 -24 -108
-43 -84 -29 -415 -169 -494 -209 -16 -8 -72 -12 -160 -11 -133 1 -141 2 -371
62 -241 62 -590 144 -670 157 -25 4 -58 14 -73 22 -40 20 -19 41 46 46 69 5
1150 -2 1535 -9z m-6640 -15 c4 -21 -27 -32 -158 -59 -144 -29 -371 -83 -576
-136 -255 -66 -322 -77 -442 -71 -56 3 -108 9 -115 14 -6 6 -50 26 -97 46 -47
19 -136 58 -198 86 -62 27 -143 59 -180 71 -88 29 -122 43 -122 52 0 8 564 13
1390 13 447 0 495 -2 498 -16z m1700 3 c12 -7 22 -16 22 -21 0 -5 -17 -28 -38
-51 -49 -56 -67 -55 -254 5 -78 25 -170 51 -205 58 -35 6 -63 15 -63 20 0 15
511 4 538 -11z m657 7 c83 -21 68 -52 -79 -163 -131 -98 -183 -125 -240 -126
-66 0 -316 119 -316 151 0 13 68 116 82 125 28 17 86 22 291 23 129 1 236 -3
262 -10z m855 -2 c25 -9 46 -28 72 -67 21 -30 38 -60 38 -66 0 -21 -64 -61
-172 -108 -117 -51 -160 -56 -224 -27 -37 17 -172 111 -205 143 -8 8 -29 24
-46 37 -24 16 -33 30 -33 50 0 23 6 30 33 39 46 15 493 14 537 -1z m670 3 c0
-5 -8 -10 -18 -10 -27 0 -163 -37 -282 -76 -148 -49 -170 -48 -220 6 -22 24
-40 47 -40 51 0 11 18 21 54 30 49 11 506 11 506 -1z m-3149 -14 c128 -27 185
-72 236 -183 70 -152 -29 -294 -265 -381 -135 -50 -180 -55 -447 -49 -339 9
-587 47 -919 142 -254 73 -320 104 -314 149 5 34 72 58 338 124 424 104 576
137 757 163 109 15 133 9 133 -35 0 -18 -7 -50 -15 -69 -19 -46 -19 -110 0
-146 38 -75 123 -106 274 -99 96 4 151 25 184 69 18 26 19 28 1 64 -28 59
-100 82 -145 46 -18 -15 -23 -27 -21 -54 5 -50 -19 -60 -120 -53 -102 7 -142
28 -146 76 -10 102 71 205 188 241 42 13 211 9 281 -5z m3878 -2 c76 -22 141
-89 164 -168 28 -101 -1 -131 -140 -142 -103 -7 -128 3 -120 52 5 28 1 37 -20
54 -31 24 -54 25 -98 4 -36 -17 -67 -67 -58 -93 21 -59 102 -91 228 -91 138 0
224 41 255 124 10 29 5 86 -12 118 -18 36 -20 94 -3 108 39 32 456 -51 1082
-215 102 -27 149 -58 136 -91 -13 -34 -161 -89 -423 -157 -285 -75 -509 -106
-810 -114 -257 -6 -330 1 -453 49 -132 50 -226 119 -265 193 -22 42 -21 150 2
195 31 59 86 119 128 141 93 47 303 64 407 33z m2931 1 c30 -3 66 -8 79 -11
l24 -5 -29 -31 c-16 -16 -47 -43 -70 -58 -61 -43 -249 -134 -336 -164 -267
-92 -636 -121 -786 -61 -83 34 -56 57 198 170 153 69 249 103 395 141 129 34
131 34 300 29 94 -2 195 -7 225 -10z m-9523 -16 c146 -38 238 -71 388 -137 83
-36 157 -70 165 -76 8 -6 32 -20 52 -30 47 -23 53 -40 23 -60 -112 -73 -496
-52 -795 45 -172 56 -440 208 -440 250 0 5 24 9 53 10 28 0 61 4 72 9 11 5
107 9 212 9 165 1 204 -2 270 -20z m3104 5 c94 -17 293 -73 354 -98 112 -47
118 -113 18 -187 -171 -127 -351 -212 -520 -246 -119 -23 -127 -15 -55 55 89
86 107 122 107 212 0 61 -5 84 -26 125 -44 85 -68 143 -62 149 11 11 99 6 184
-10z m2984 6 c3 -5 -1 -22 -9 -37 -47 -88 -78 -169 -83 -218 -5 -48 -2 -63 26
-119 21 -44 48 -78 86 -111 30 -26 52 -51 49 -57 -10 -16 -113 -1 -208 32
-121 41 -263 110 -351 170 -71 50 -145 120 -145 139 0 4 10 23 23 42 16 24 40
41 80 57 67 27 290 89 362 101 71 12 163 13 170 1z m-1620 -125 c0 -39 -4
-148 -9 -244 l-9 -173 -31 -19 c-17 -10 -39 -19 -48 -19 -9 0 -69 51 -132 114
-125 123 -135 142 -93 187 12 14 49 45 82 69 33 25 93 71 134 103 95 75 106
73 106 -18z m118 63 c12 -6 28 -18 36 -26 8 -8 60 -48 115 -89 109 -80 146
-118 146 -146 0 -26 -27 -63 -89 -121 -30 -28 -75 -70 -100 -93 -24 -24 -51
-43 -58 -43 -28 0 -73 31 -77 53 -7 32 -24 461 -19 470 6 10 21 9 46 -5z
m5125 -37 c19 -35 24 -61 28 -150 4 -101 2 -114 -27 -197 -35 -102 -98 -223
-175 -339 -102 -154 -125 -161 -159 -49 -44 146 12 407 127 591 58 93 151 197
170 191 7 -3 23 -23 36 -47z m-10327 -18 c91 -100 158 -220 204 -363 37 -117
46 -301 19 -374 -22 -58 -45 -76 -69 -56 -25 21 -138 195 -188 290 -60 112
-110 257 -102 290 4 14 8 62 10 106 2 63 7 91 25 123 13 22 29 41 36 41 7 0
36 -26 65 -57z m138 -48 c84 -49 223 -109 337 -144 239 -74 569 -96 804 -54
86 16 135 20 155 14 17 -4 86 -34 155 -66 1065 -489 1736 -633 2400 -515 58
10 143 24 190 30 47 6 144 31 215 54 72 24 173 58 226 75 53 17 134 47 180 67
277 120 293 125 332 119 21 -3 59 -16 85 -30 144 -75 686 -255 842 -281 58 -9
134 -23 170 -30 281 -59 670 -55 1005 12 400 80 890 254 1460 519 120 56 131
57 290 29 123 -22 158 -24 290 -19 230 9 391 38 567 101 86 31 215 91 277 130
24 14 40 20 35 13 -5 -8 -27 -41 -48 -73 -135 -206 -190 -481 -136 -686 27
-103 25 -127 -13 -185 -423 -647 -587 -1047 -587 -1436 0 -121 7 -178 41 -319
51 -212 44 -194 155 -425 29 -60 85 -161 124 -223 38 -63 70 -119 70 -126 0
-7 -12 -31 -27 -52 -39 -57 -96 -163 -164 -304 -34 -69 -70 -143 -80 -165 -21
-42 -82 -263 -104 -380 -30 -156 -15 -391 39 -590 71 -264 265 -647 519 -1024
47 -70 49 -77 44 -122 -3 -27 -14 -79 -23 -116 -22 -86 -14 -252 16 -373 26
-100 93 -243 151 -319 22 -29 38 -55 36 -58 -3 -2 -22 7 -44 21 -56 37 -255
121 -358 150 -133 38 -216 53 -350 65 -202 18 -250 15 -475 -24 -92 -17 -114
-12 -245 49 -55 26 -174 79 -265 117 -91 39 -190 81 -220 94 -30 13 -111 45
-180 70 -708 265 -1261 342 -1760 245 -52 -10 -140 -25 -195 -35 -104 -17
-341 -88 -530 -157 -220 -82 -241 -90 -305 -120 -36 -16 -73 -34 -82 -39 -19
-10 -147 35 -264 93 -142 71 -570 211 -694 228 -47 6 -132 20 -190 30 -466 84
-967 30 -1540 -167 -256 -87 -585 -219 -785 -313 -249 -117 -237 -114 -384
-88 -102 19 -157 23 -288 21 -192 -2 -289 -14 -440 -53 -184 -48 -363 -126
-510 -224 -46 -31 -83 -53 -83 -49 0 3 17 24 38 47 204 222 300 558 232 816
-11 41 -20 86 -20 100 0 14 20 57 44 95 305 479 429 721 510 990 55 179 69
289 63 474 -4 143 -8 170 -49 326 -24 94 -56 195 -70 225 -101 212 -132 274
-170 342 -24 42 -50 84 -59 95 -9 10 -21 32 -28 49 -13 34 -5 52 96 207 79
121 201 392 223 493 10 49 26 123 37 164 24 99 24 419 1 525 -64 290 -207 601
-461 1003 -40 63 -87 137 -104 165 -39 61 -40 73 -12 180 18 70 20 101 16 212
-4 89 -12 154 -27 205 -26 93 -98 237 -153 310 -62 80 -66 88 -33 66 16 -10
54 -33 85 -51z m4308 -81 c53 -27 101 -57 107 -66 18 -30 -23 -68 -147 -134
-312 -165 -593 -261 -882 -299 -221 -29 -574 -16 -835 31 -201 36 -600 147
-600 166 0 6 11 7 25 4 396 -100 965 -123 1330 -55 304 56 575 185 768 366 46
43 51 45 93 40 25 -2 87 -26 141 -53z m1590 5 c159 -140 319 -232 518 -297
362 -119 918 -134 1415 -38 69 13 137 27 153 31 15 4 27 3 27 -2 0 -12 -225
-82 -390 -122 -303 -72 -504 -95 -800 -88 -289 6 -430 31 -701 122 -181 61
-529 233 -560 276 -16 23 -20 36 -13 48 5 9 57 40 114 68 138 69 160 69 237 2z
m1035 -22 c-6 -52 29 -72 124 -72 79 0 78 -8 -1 -19 -64 -8 -155 10 -191 39
-25 20 -27 26 -19 51 12 34 51 57 75 44 12 -6 15 -19 12 -43z m-3830 26 c37
-33 17 -78 -47 -103 -35 -14 -186 -16 -208 -4 -10 6 11 9 57 9 95 0 126 19
126 75 0 37 2 40 27 40 14 0 35 -7 45 -17z m1888 -159 c0 -41 -4 -63 -10 -59
-11 7 -13 48 -4 94 10 48 14 37 14 -35z m-437 14 c54 -28 157 -121 182 -163
40 -70 33 -83 -77 -129 -268 -111 -584 -192 -948 -242 -152 -21 -495 -24 -620
-5 -157 23 -349 62 -473 96 -219 60 -567 180 -567 195 0 4 39 -3 88 -16 399
-112 688 -151 1042 -141 406 12 791 128 1190 361 98 57 140 67 183 44z m1061
-57 c283 -160 580 -271 864 -322 150 -27 476 -37 658 -20 206 20 508 79 689
136 93 29 85 27 85 16 0 -18 -372 -146 -602 -205 -463 -122 -794 -133 -1288
-46 -312 56 -779 206 -814 262 -19 32 30 102 124 179 113 91 122 91 284 0z
m-5827 -179 c32 -63 124 -215 163 -272 42 -61 50 -89 50 -169 0 -82 -2 -92
-64 -261 -19 -52 -62 -180 -96 -285 -34 -104 -68 -205 -76 -222 -15 -36 -38
-43 -49 -15 -7 19 -6 761 3 1109 6 249 2 243 69 115z m10441 -559 c-3 -660 -3
-668 -23 -668 -17 0 -27 23 -68 150 -26 83 -80 238 -120 345 -70 193 -71 196
-72 295 l0 100 89 140 c48 77 100 163 114 190 40 78 63 115 73 115 5 0 8 -263
7 -667z m-10127 -7 c61 -61 178 -362 218 -561 29 -146 42 -313 32 -426 -11
-124 -50 -209 -131 -291 -69 -69 -137 -93 -235 -85 -84 6 -179 56 -218 114
-65 98 -59 272 12 331 37 31 120 62 170 64 47 2 56 -1 77 -25 19 -23 24 -39
24 -86 0 -67 -14 -85 -54 -75 -46 11 -78 -33 -60 -81 8 -20 56 -45 87 -45 62
0 114 91 104 181 -8 63 -32 107 -78 137 -35 25 -59 26 -220 6 -65 -8 -72 5
-55 92 26 128 117 417 205 649 27 71 66 125 90 125 5 0 19 -11 32 -24z m9806
9 c54 -38 290 -769 267 -829 -9 -23 -24 -24 -121 -8 -88 15 -94 15 -139 -4
-58 -24 -81 -53 -95 -124 -14 -71 1 -131 42 -173 27 -26 35 -29 76 -24 52 6
73 25 73 67 0 37 -18 50 -66 50 -48 0 -54 9 -54 76 0 57 23 102 56 110 62 16
182 -25 232 -78 58 -63 56 -227 -4 -317 -62 -94 -240 -139 -359 -91 -69 28
-138 101 -185 196 -32 65 -34 76 -38 197 -10 290 45 540 184 846 53 115 83
139 131 106z m-271 -393 c-13 -37 -34 -123 -47 -192 -21 -108 -24 -154 -24
-335 1 -192 3 -220 27 -323 52 -217 180 -417 348 -542 55 -41 70 -58 70 -83 0
-19 -89 -156 -116 -178 -26 -21 -72 10 -133 90 -233 309 -324 544 -324 846 0
211 48 432 141 650 17 39 37 87 46 108 27 65 37 32 12 -41z m-9271 -76 c56
-139 98 -280 122 -409 23 -125 23 -353 0 -465 -45 -210 -160 -438 -326 -645
-47 -59 -82 -78 -110 -60 -25 15 -121 153 -121 174 0 22 12 35 99 104 146 117
268 312 318 511 27 103 28 121 28 339 0 244 -16 366 -65 510 -11 32 -20 65
-20 74 0 34 28 -16 75 -133z m9162 -43 c-84 -220 -118 -394 -119 -603 0 -209
39 -370 138 -561 54 -104 133 -224 221 -334 34 -43 63 -89 63 -100 0 -21 -71
-96 -125 -132 -16 -11 -49 -27 -72 -36 -39 -15 -43 -15 -66 3 -29 23 -134 224
-183 351 -45 119 -99 334 -115 463 -24 199 6 413 92 642 67 180 193 443 206
430 3 -2 -16 -58 -40 -123z m-9064 -40 c228 -470 266 -743 163 -1158 -37 -148
-80 -265 -152 -406 -99 -195 -107 -201 -200 -154 -59 30 -164 128 -164 155 0
10 30 56 67 102 407 511 462 951 198 1601 -4 9 -3 17 2 17 5 0 44 -71 86 -157z
m-366 -481 c-7 -91 -64 -137 -117 -94 -31 25 -21 57 15 48 25 -7 64 7 77 28 4
6 8 36 8 66 1 47 3 52 11 30 6 -14 9 -49 6 -78z m9782 -25 c9 -11 29 -17 57
-17 23 0 45 -4 49 -10 10 -16 -33 -50 -63 -50 -55 0 -88 65 -76 150 l8 55 5
-56 c4 -31 12 -63 20 -72z m-9589 -259 c-1 -100 -121 -288 -268 -420 -77 -70
-145 -47 -197 66 -47 101 -83 213 -91 281 -8 68 -20 67 140 16 54 -17 118 -31
142 -31 63 0 148 33 208 80 28 22 54 40 59 40 4 0 7 -15 7 -32z m9422 1 c104
-83 215 -98 363 -49 113 37 135 38 135 5 0 -84 -89 -329 -139 -382 -25 -26
-69 -37 -102 -24 -39 15 -160 140 -213 219 -79 119 -131 262 -95 262 6 0 29
-14 51 -31z m518 -326 c0 -232 -13 -260 -94 -212 -53 31 -52 41 20 210 30 69
54 133 54 142 0 9 5 17 10 17 6 0 10 -59 10 -157z m-10469 54 c21 -50 49 -120
64 -155 14 -34 24 -71 20 -81 -7 -22 -81 -65 -100 -57 -7 2 -19 22 -24 43 -12
43 -15 343 -3 343 4 0 23 -42 43 -93z m133 -319 c32 -28 115 -163 122 -198 7
-34 -32 -87 -137 -181 -144 -130 -159 -119 -162 113 -3 213 -1 219 76 256 34
17 65 31 69 31 4 1 18 -9 32 -21z m10257 -4 c32 -14 61 -34 65 -43 11 -25 17
-242 10 -315 -14 -125 -42 -125 -175 0 -138 130 -146 158 -79 263 50 80 87
121 106 121 8 0 41 -12 73 -26z m-238 -279 c43 -19 239 -207 230 -220 -5 -7
-87 -8 -247 -3 -201 7 -243 11 -258 25 -10 9 -18 23 -18 32 0 16 140 127 204
163 38 21 49 22 89 3z m-9792 -11 c50 -25 199 -145 199 -159 0 -7 -8 -22 -17
-33 -17 -19 -33 -21 -260 -28 -216 -6 -243 -5 -243 9 0 18 -4 13 115 122 123
113 144 122 206 89z m9679 -244 c-25 -4 -49 -4 -54 1 -6 5 12 8 45 8 l54 -2
-45 -7z m-9632 -7 c-21 -2 -57 -2 -80 0 -24 2 -7 4 37 4 44 0 63 -2 43 -4z
m9977 -23 c4 -6 -11 -27 -32 -48 -194 -187 -221 -205 -276 -179 -40 19 -209
148 -214 163 -2 6 5 21 15 34 17 21 28 23 188 30 262 11 312 11 319 0z m-9843
-33 c10 -12 18 -28 18 -35 0 -15 -195 -160 -227 -168 -40 -11 -73 5 -141 68
-37 34 -86 79 -109 100 -78 71 -76 72 200 63 232 -6 243 -8 259 -28z m9910
-39 c20 -35 18 -369 -2 -393 -14 -17 -112 -65 -134 -65 -32 0 -146 175 -146
224 0 38 38 86 138 179 90 83 121 94 144 55z m-10325 -74 c105 -97 137 -146
124 -190 -14 -50 -124 -204 -146 -204 -2 0 -33 13 -69 29 -52 24 -67 36 -73
58 -13 47 -9 345 5 371 24 42 57 29 159 -64z m9761 6 c77 -35 182 -129 182
-163 0 -12 -32 -62 -70 -110 -318 -403 -412 -751 -320 -1191 25 -124 40 -174
91 -309 23 -60 39 -111 36 -114 -3 -3 -27 37 -53 88 -171 335 -254 605 -254
829 0 260 92 599 232 855 57 106 80 135 102 135 6 0 30 -9 54 -20z m-9272 2
c6 -4 36 -53 67 -110 195 -357 277 -764 217 -1074 -19 -99 -74 -283 -107 -358
-51 -117 -168 -350 -175 -350 -11 0 -12 -2 31 106 42 106 79 236 107 374 21
106 24 345 5 449 -40 222 -158 458 -344 689 -37 45 -67 88 -67 95 1 24 26 55
80 102 80 69 154 99 186 77z m9546 -264 c57 -72 88 -123 88 -145 0 -14 -28
-45 -86 -93 -188 -158 -288 -327 -341 -573 -14 -64 -18 -128 -18 -287 0 -221
17 -347 69 -513 13 -42 20 -79 16 -82 -21 -13 -152 339 -184 496 -38 188 -39
422 -1 571 42 168 150 381 278 548 66 87 103 119 134 120 6 0 27 -19 45 -42z
m-9819 24 c27 -11 185 -228 244 -335 61 -113 119 -262 140 -366 23 -107 22
-358 -1 -476 -23 -122 -66 -263 -122 -403 -74 -185 -94 -200 -49 -38 52 187
60 256 60 496 0 211 -2 232 -27 330 -31 124 -72 218 -134 312 -49 73 -167 197
-227 238 -55 38 -64 62 -41 105 32 61 103 145 122 144 9 0 25 -4 35 -7z
m10114 -193 c13 -37 18 -349 6 -349 -5 0 -24 42 -44 93 -21 50 -49 120 -63
154 -14 33 -23 68 -20 77 7 19 84 67 99 63 6 -2 15 -19 22 -38z m-10434 20
c12 -6 32 -21 45 -32 27 -25 24 -54 -18 -137 -15 -30 -40 -90 -56 -132 -16
-43 -32 -78 -37 -78 -5 0 -7 78 -5 173 4 208 13 236 71 206z m288 -184 c113
-112 206 -267 217 -361 2 -24 2 -44 -2 -44 -4 0 -30 18 -59 39 -110 82 -205
99 -332 57 -172 -57 -165 -56 -165 -18 0 72 81 304 131 373 25 35 73 50 112
35 15 -6 59 -42 98 -81z m9979 80 c49 -26 141 -244 156 -370 l7 -58 -39 8
c-21 4 -57 14 -79 22 -84 32 -154 42 -217 32 -70 -11 -106 -28 -165 -75 -23
-19 -46 -34 -52 -34 -33 0 16 145 86 251 82 126 200 239 249 239 14 0 38 -7
54 -15z m-9933 -416 c74 -28 140 -94 189 -191 31 -62 38 -87 43 -163 15 -203
-19 -444 -93 -661 -52 -153 -114 -288 -149 -326 -27 -29 -54 -29 -82 2 -35 39
-208 544 -243 710 -25 120 -20 134 46 126 158 -20 179 -20 226 8 39 23 48 34
61 78 8 28 15 68 15 87 -1 48 -32 115 -64 136 -52 35 -136 -3 -136 -60 0 -33
33 -58 67 -51 47 10 56 -4 51 -78 -5 -87 -24 -108 -98 -108 -71 1 -165 47
-200 98 -22 33 -25 48 -25 118 1 134 37 207 126 251 95 49 178 56 266 24z
m9976 -18 c89 -51 126 -123 127 -246 0 -100 -28 -148 -110 -190 -53 -27 -118
-39 -159 -30 -40 9 -63 58 -59 128 l3 52 45 3 c53 4 70 16 70 49 0 38 -17 60
-56 73 -77 26 -139 -44 -138 -155 1 -135 85 -202 218 -175 144 29 154 24 136
-67 -43 -212 -220 -731 -261 -765 -12 -10 -28 -18 -36 -18 -75 0 -240 435
-273 716 -16 145 -12 340 8 400 39 113 131 220 214 252 20 7 68 11 123 9 81
-2 96 -6 148 -36z m-143 -196 c18 -9 30 -24 30 -35 0 -17 -7 -20 -44 -20 -55
0 -76 -24 -77 -90 l-1 -45 -10 38 c-14 52 -2 105 32 139 33 33 32 33 70 13z
m-9898 -6 c39 -21 62 -128 38 -184 -6 -15 -9 -5 -9 35 -1 30 -5 60 -9 66 -13
20 -54 36 -78 30 -35 -9 -45 21 -15 46 27 21 44 23 73 7z m-290 -476 c8 -16
30 -80 48 -143 18 -63 66 -205 107 -315 69 -185 75 -207 80 -296 6 -110 9
-102 -105 -283 -41 -65 -91 -148 -111 -185 -53 -99 -59 -107 -68 -98 -12 13
-3 1319 9 1335 15 18 22 15 40 -15z m10470 -20 c9 -114 8 -1269 -2 -1283 -12
-19 -28 2 -81 105 -20 39 -64 113 -98 165 -101 156 -111 180 -111 257 0 83 6
106 80 308 60 161 130 377 130 398 0 7 9 31 20 55 13 28 25 42 39 42 16 0 20
-8 23 -47z m-6505 -907 c199 -27 305 -47 483 -91 196 -50 307 -85 458 -147
113 -47 126 -62 98 -116 -32 -62 -162 -174 -219 -190 -40 -11 -37 -12 -187 72
-303 171 -658 293 -960 332 -163 20 -531 15 -700 -11 -204 -32 -516 -103 -612
-140 -10 -4 -18 -3 -18 2 0 34 592 215 875 268 245 46 535 54 782 21z m3079
14 c259 -25 519 -85 852 -196 230 -76 296 -103 256 -104 -11 0 -57 11 -103 25
-102 30 -273 69 -422 95 -287 50 -666 53 -909 6 -74 -14 -173 -36 -220 -49
-169 -48 -435 -158 -580 -241 -179 -103 -170 -99 -216 -93 -36 4 -57 16 -111
63 -91 79 -89 77 -112 115 -40 65 -28 79 104 132 241 96 475 160 755 206 299
50 493 61 706 41z m3207 -122 c112 -170 168 -288 207 -440 36 -139 21 -309
-28 -326 -18 -6 -156 138 -204 213 -90 143 -135 281 -145 446 -6 112 7 180 43
220 25 28 44 11 127 -113z m-9938 76 c17 -33 20 -58 19 -169 -1 -111 -5 -143
-28 -220 -47 -155 -119 -278 -227 -387 -37 -38 -74 -68 -83 -68 -41 0 -66 134
-47 256 22 141 83 288 189 459 81 128 123 179 145 173 7 -2 21 -22 32 -44z
m3425 -152 c259 -49 457 -118 724 -255 221 -113 250 -141 187 -186 -45 -32
-182 -93 -222 -98 -43 -6 -53 -1 -111 52 -224 205 -496 320 -893 376 -121 18
-586 18 -735 1 -132 -15 -306 -44 -400 -66 -76 -18 -80 -19 -80 -7 0 19 375
123 580 160 234 43 333 50 595 46 195 -3 273 -8 355 -23z m3710 13 c173 -21
284 -41 430 -76 163 -39 390 -110 390 -122 0 -5 -10 -7 -22 -4 -89 22 -297 59
-418 74 -176 22 -630 24 -780 4 -218 -29 -425 -88 -578 -165 -128 -64 -211
-122 -329 -228 -32 -29 -51 -38 -78 -38 -37 0 -202 72 -244 107 -51 42 -10 78
214 191 285 143 561 230 833 262 121 14 450 11 582 -5z m-4060 -174 c261 -89
371 -236 296 -397 -67 -144 -191 -201 -418 -192 -120 4 -179 27 -233 90 -51
61 -70 152 -40 195 17 24 89 43 166 43 71 0 91 -13 87 -57 -9 -101 152 -92
169 10 5 31 1 42 -17 62 -34 36 -102 55 -200 55 -113 0 -179 -20 -220 -66 -48
-55 -53 -77 -34 -143 9 -31 18 -75 21 -98 5 -39 3 -43 -21 -49 -25 -6 -134 6
-241 26 -72 14 -333 70 -380 81 -228 56 -452 114 -503 130 -61 20 -95 49 -86
74 25 64 532 204 902 249 180 22 202 24 442 22 215 -2 215 -2 310 -35z m4457
15 c375 -49 873 -188 897 -252 10 -27 -37 -61 -114 -82 -242 -68 -546 -139
-830 -196 -126 -25 -238 -39 -266 -32 -24 6 -26 10 -21 49 3 23 12 67 21 97
20 67 11 102 -38 149 -82 79 -333 85 -413 9 -73 -68 45 -191 125 -131 22 17
26 27 24 57 -3 31 0 37 24 47 32 12 156 6 196 -10 109 -42 22 -252 -122 -295
-67 -20 -212 -21 -301 -2 -128 27 -185 72 -236 183 -67 147 25 289 242 374
141 55 175 59 445 55 138 -3 298 -11 367 -20z m-2689 -26 c17 -11 31 -23 30
-27 -2 -9 11 -303 18 -406 7 -99 -16 -101 -126 -8 -30 26 -85 68 -121 93 -71
50 -99 84 -99 120 0 25 224 248 250 248 8 0 30 -9 48 -20z m346 -93 c122 -118
131 -135 100 -181 -8 -13 -65 -62 -125 -108 -164 -124 -172 -129 -188 -126
-18 4 -18 4 -6 302 l8 188 31 19 c17 10 38 19 47 19 9 0 69 -51 133 -113z
m-1694 36 c158 -52 292 -124 415 -223 73 -58 78 -105 15 -152 -78 -58 -510
-159 -574 -135 -16 7 -9 28 52 155 58 122 37 218 -69 322 -38 37 -65 70 -62
74 14 13 119 -6 223 -41z m3083 41 c4 -4 -24 -37 -62 -74 -111 -108 -127 -198
-61 -339 55 -117 59 -125 54 -133 -11 -18 -147 -5 -264 24 -110 27 -249 70
-290 91 -26 13 -53 36 -63 55 l-19 32 27 36 c83 109 442 292 600 307 22 2 47
4 56 5 9 1 19 -1 22 -4z m-1643 -151 c0 -48 -3 -64 -10 -53 -13 20 -13 120 0
120 6 0 10 -29 10 -67z m-4022 -43 c91 -12 164 -42 156 -64 -7 -19 -79 -59
-231 -126 -334 -149 -554 -200 -861 -200 -223 0 -228 3 -131 92 75 69 249 162
397 213 219 75 485 109 670 85z m2101 -18 c19 -10 41 -27 48 -38 12 -19 11
-25 -9 -48 -13 -14 -34 -27 -48 -28 -23 -3 -25 1 -28 40 -4 59 -33 76 -128 77
-81 0 -87 6 -16 16 63 9 139 1 181 -19z m4061 8 c14 -4 -13 -6 -60 -6 -110 1
-140 -15 -140 -74 0 -25 -5 -40 -12 -41 -71 -7 -103 62 -48 103 45 33 170 42
260 18z m2122 10 c225 -19 427 -77 630 -182 84 -43 142 -81 182 -119 92 -86
87 -89 -141 -89 -229 0 -368 22 -583 92 -161 52 -493 205 -503 232 -5 13 4 22
41 38 80 36 185 44 374 28z m-4677 -100 c52 -22 280 -192 289 -215 21 -55 -48
-68 -345 -63 -188 2 -240 6 -253 18 -20 16 -86 116 -86 129 0 31 247 150 312
151 20 0 57 -9 83 -20z m986 -3 c13 -8 53 -27 88 -42 70 -29 131 -71 130 -89
0 -6 -17 -36 -37 -66 -26 -39 -48 -59 -72 -67 -45 -15 -450 -17 -519 -2 -49
10 -65 26 -55 53 10 26 233 193 297 222 39 18 134 13 168 -9z m-4081 -3 c41
-8 179 -42 305 -74 127 -32 307 -75 400 -95 236 -50 277 -62 273 -83 -2 -13
-18 -19 -63 -23 -100 -11 -1833 -10 -1840 1 -8 13 30 35 95 55 30 9 64 20 75
25 11 5 63 27 115 49 52 21 147 62 210 91 63 28 131 55 150 60 59 14 201 11
280 -6z m7355 -21 c39 -17 90 -39 115 -50 170 -76 218 -96 320 -134 116 -42
140 -54 140 -70 0 -10 -1765 -11 -1850 -1 -40 5 -56 12 -58 24 -4 21 18 28
233 73 94 20 285 66 425 101 354 91 369 93 495 90 96 -3 119 -7 180 -33z
m-4691 -165 c20 -23 36 -45 36 -49 0 -28 -53 -34 -302 -37 -142 -2 -258 0
-258 5 0 5 28 14 63 20 34 7 123 32 197 57 75 24 156 44 182 45 43 1 49 -2 82
-41z m1926 -2 c75 -24 163 -49 195 -56 118 -24 89 -29 -155 -29 -238 1 -318 9
-327 34 -2 6 15 30 37 53 53 55 76 55 250 -2z m-5397 -133 c-90 -2 -236 -2
-325 0 -90 1 -17 3 162 3 179 0 252 -2 163 -3z"/>
</g>
</svg>
