<?xml version="1.0" standalone="no"?>
<!DOCTYPE svg PUBLIC "-//W3C//DTD SVG 20010904//EN" "http://www.w3.org/TR/2001/REC-SVG-20010904/DTD/svg10.dtd">
<svg version="1.0" xmlns="http://www.w3.org/2000/svg" width="608.000000pt" height="470.000000pt" viewBox="0 0 608.000000 470.000000"
 preserveAspectRatio="xMidYMid meet">

<g transform="translate(0.000000,470.000000) scale(0.100000,-0.100000)" fill="rgba(225, 225, 225, 0.9)" stroke="none">
<path d="M2873 4627 c-11 -20 -74 -57 -98 -58 -11 0 -14 -3 -8 -6 19 -7 78 15
98 37 20 22 65 26 114 9 29 -10 31 -14 31 -60 0 -55 -10 -64 -79 -75 -36 -6
-44 -4 -57 14 -15 22 -95 51 -143 53 l-26 1 25 8 c14 4 -37 5 -114 2 -132 -5
-138 -4 -134 14 3 17 17 20 148 27 80 5 157 9 172 10 15 1 30 8 33 16 4 10 -1
12 -22 6 -67 -17 -145 -25 -240 -25 l-103 0 0 -52 0 -53 103 -1 c92 -2 164
-10 239 -29 23 -6 26 -4 21 14 -7 27 12 27 31 0 13 -19 21 -21 65 -16 82 10
91 18 91 87 l0 59 -37 10 c-85 21 -101 23 -110 8z m-86 -109 c31 -9 40 -17 34
-26 -6 -11 -20 -11 -67 -3 -32 7 -107 14 -166 18 -86 5 -108 9 -108 21 0 12
20 14 133 9 72 -3 151 -11 174 -19z"/>
<path d="M3155 4633 c-11 -2 -37 -9 -57 -14 l-38 -10 0 -59 c0 -69 9 -77 91
-87 44 -5 52 -3 65 16 19 27 38 27 31 0 -5 -18 -2 -20 21 -14 75 19 147 27
239 29 l103 1 0 53 0 52 -102 0 c-96 0 -174 8 -241 25 -21 6 -26 4 -22 -6 3
-8 18 -15 33 -16 15 -1 92 -5 172 -10 131 -7 145 -10 148 -27 4 -18 -2 -19
-134 -14 -77 3 -128 2 -114 -2 l25 -8 -26 -1 c-48 -2 -128 -31 -143 -53 -13
-18 -21 -20 -57 -14 -69 11 -79 20 -79 75 0 46 2 50 31 60 49 17 94 13 114 -9
20 -22 79 -44 98 -37 6 3 3 6 -8 6 -24 1 -87 38 -98 57 -8 14 -16 15 -52 7z
m445 -106 c0 -11 -27 -16 -107 -20 -60 -4 -135 -11 -167 -18 -47 -8 -61 -8
-67 2 -11 18 -11 18 62 34 88 19 279 20 279 2z"/>
<path d="M60 4195 l0 -435 88 0 89 0 36 78 c91 196 127 325 132 482 l4 115 -8
-105 c-13 -166 -50 -299 -134 -482 l-36 -78 -80 0 -81 0 0 425 0 425 100 0
c82 0 100 -3 100 -15 0 -13 53 -15 420 -15 413 0 420 0 420 -20 0 -20 -7 -20
-420 -20 l-420 0 0 -84 0 -85 73 34 c165 76 353 115 595 122 170 5 172 5 172
-16 0 -20 -4 -21 -119 -21 -66 0 -171 -7 -234 -15 -125 -16 -306 -60 -322 -77
-7 -8 -4 -9 10 -3 121 47 366 85 551 85 l124 0 0 55 0 55 -420 0 c-367 0 -420
2 -420 15 0 12 -19 15 -110 15 l-110 0 0 -435z m326 328 c15 -48 22 -56 17
-20 l-6 37 163 0 c90 0 161 -2 159 -4 -2 -2 -42 -11 -88 -20 -105 -21 -232
-61 -293 -92 -26 -13 -50 -24 -53 -24 -3 0 -5 32 -5 70 l0 70 50 0 c39 0 52
-4 56 -17z"/>
<path d="M5800 4615 c0 -13 -53 -15 -420 -15 l-420 0 0 -55 0 -55 124 0 c185
0 430 -38 551 -85 14 -6 17 -5 10 3 -16 17 -197 61 -322 77 -63 8 -168 15
-234 15 -115 0 -119 1 -119 21 0 21 2 21 173 16 241 -7 429 -46 594 -122 l73
-34 0 85 0 84 -420 0 c-413 0 -420 0 -420 20 0 20 7 20 420 20 367 0 420 2
420 15 0 12 18 15 100 15 l100 0 0 -425 0 -425 -81 0 -80 0 -36 78 c-84 183
-121 316 -134 482 l-8 105 4 -115 c5 -157 41 -286 132 -482 l36 -78 89 0 88 0
0 435 0 435 -110 0 c-91 0 -110 -3 -110 -15z m-123 -112 c-5 -36 2 -28 17 20
4 13 17 17 56 17 l50 0 0 -70 c0 -38 -2 -70 -5 -70 -3 0 -27 11 -53 24 -61 31
-188 71 -293 92 -46 9 -86 18 -88 20 -2 2 69 4 159 4 l163 0 -6 -37z"/>
<path d="M1160 4545 l0 -55 110 0 110 0 0 55 0 55 -110 0 -110 0 0 -55z m208
23 c3 -16 -7 -18 -97 -18 -78 0 -101 3 -101 13 0 25 13 28 104 25 77 -3 91 -6
94 -20z m2 -48 c0 -19 -7 -20 -100 -20 -93 0 -100 1 -100 20 0 19 7 20 100 20
93 0 100 -1 100 -20z"/>
<path d="M1420 4545 l0 -55 505 0 505 0 0 55 0 55 -505 0 -505 0 0 -55z m995
25 c0 -13 -63 -15 -492 -18 -407 -2 -493 0 -493 11 0 8 3 17 7 20 3 4 225 6
492 5 424 -3 486 -5 486 -18z m0 -50 c0 -13 -63 -15 -492 -18 -489 -2 -493 -2
-493 18 0 20 4 20 493 18 429 -3 492 -5 492 -18z"/>
<path d="M3650 4545 l0 -55 505 0 505 0 0 55 0 55 -505 0 -505 0 0 -55z m998
23 c3 -17 -25 -18 -487 -18 -316 0 -492 4 -496 10 -3 6 -3 15 0 20 4 7 173 9
493 8 454 -3 487 -4 490 -20z m2 -48 c0 -20 -7 -20 -489 -20 -316 0 -492 4
-496 10 -3 6 -3 15 0 20 4 6 180 10 496 10 482 0 489 0 489 -20z"/>
<path d="M4700 4545 l0 -55 110 0 110 0 0 55 0 55 -110 0 -110 0 0 -55z m208
23 c3 -16 -7 -18 -97 -18 -78 0 -101 3 -101 13 0 25 13 28 104 25 77 -3 91 -6
94 -20z m2 -48 c0 -19 -7 -20 -100 -20 -93 0 -100 1 -100 20 0 19 7 20 100 20
93 0 100 -1 100 -20z"/>
<path d="M110 4195 l0 -385 49 0 48 0 31 68 c62 134 107 292 118 413 5 49 13
78 23 86 9 7 12 12 6 13 -24 0 -32 -20 -38 -90 -9 -104 -48 -250 -99 -372 -36
-85 -48 -104 -67 -106 -13 -2 -21 0 -19 5 73 155 101 235 128 366 29 134 28
137 -20 137 l-40 0 0 125 0 125 -60 0 -60 0 0 -385z m110 250 l0 -125 41 0 40
0 -7 -47 c-23 -163 -126 -453 -160 -453 -12 0 -14 65 -14 368 0 203 3 372 7
375 3 4 26 7 50 7 l43 0 0 -125z"/>
<path d="M180 4255 c-26 -32 13 -81 48 -59 24 16 27 45 6 61 -23 17 -39 16
-54 -2z m50 -10 c18 -21 5 -47 -22 -43 -26 3 -37 36 -16 49 18 12 24 11 38 -6z"/>
<path d="M170 4105 c-18 -21 -5 -47 22 -43 26 3 37 36 16 49 -18 12 -24 11
-38 -6z m38 -18 c2 -10 -3 -17 -12 -17 -18 0 -29 16 -21 31 9 14 29 6 33 -14z"/>
<path d="M160 3970 c0 -5 5 -10 10 -10 6 0 10 5 10 10 0 6 -4 10 -10 10 -5 0
-10 -4 -10 -10z"/>
<path d="M2891 4561 c-13 -24 8 -55 34 -50 28 6 42 34 26 53 -18 22 -48 20
-60 -3z m48 -5 c9 -10 8 -16 -4 -26 -19 -16 -41 1 -32 24 8 20 21 20 36 2z"/>
<path d="M3129 4564 c-9 -11 -10 -20 -2 -32 15 -24 44 -27 59 -7 28 38 -27 75
-57 39z m48 -10 c9 -23 -13 -40 -32 -24 -12 10 -13 16 -4 26 15 18 28 18 36
-2z"/>
<path d="M5850 4455 l0 -125 -40 0 c-48 0 -49 -3 -20 -137 27 -131 55 -211
128 -366 2 -5 -6 -7 -19 -5 -47 6 -152 308 -166 478 -6 70 -14 90 -38 90 -5
-1 -3 -6 6 -13 10 -8 18 -37 23 -86 11 -121 56 -279 118 -413 l31 -68 48 0 49
0 0 385 0 385 -60 0 -60 0 0 -125z m108 -262 c2 -310 0 -373 -11 -373 -35 0
-138 289 -161 453 l-7 47 40 0 41 0 0 126 0 125 48 -3 47 -3 3 -372z"/>
<path d="M5848 4259 c-22 -12 -23 -42 -3 -59 32 -26 81 13 59 48 -14 21 -33
25 -56 11z m40 -8 c21 -13 10 -46 -16 -49 -27 -4 -40 22 -22 43 14 17 20 18
38 6z"/>
<path d="M5872 4111 c-21 -13 -10 -46 16 -49 27 -4 40 22 22 43 -14 17 -20 18
-38 6z m33 -22 c0 -7 -8 -15 -17 -17 -18 -3 -25 18 -11 32 10 10 28 1 28 -15z"/>
<path d="M5900 3970 c0 -5 5 -10 10 -10 6 0 10 5 10 10 0 6 -4 10 -10 10 -5 0
-10 -4 -10 -10z"/>
<path d="M530 4335 l0 -55 293 2 292 3 3 53 3 52 -295 0 -296 0 0 -55z m570
25 c0 -20 -7 -20 -280 -20 -273 0 -280 0 -280 20 0 20 7 20 280 20 273 0 280
0 280 -20z m0 -45 c0 -13 -38 -15 -280 -15 -242 0 -280 2 -280 15 0 13 38 15
280 15 242 0 280 -2 280 -15z"/>
<path d="M1160 4335 l0 -55 110 0 110 0 0 55 0 55 -110 0 -110 0 0 -55z m208
28 c-3 -15 -17 -18 -101 -21 -92 -3 -97 -2 -97 18 0 19 6 20 101 20 90 0 100
-2 97 -17z m2 -48 c0 -12 -18 -15 -100 -15 -82 0 -100 3 -100 15 0 12 18 15
100 15 82 0 100 -3 100 -15z"/>
<path d="M1420 4335 l0 -55 505 0 505 0 0 55 0 55 -505 0 -505 0 0 -55z m995
25 c0 -13 -63 -15 -492 -18 -489 -2 -493 -2 -493 18 0 20 4 20 493 18 429 -3
492 -5 492 -18z m5 -45 c0 -13 -62 -15 -495 -15 -433 0 -495 2 -495 15 0 13
62 15 495 15 433 0 495 -2 495 -15z"/>
<path d="M2470 4340 l0 -50 570 0 570 0 0 50 0 50 -570 0 -570 0 0 -50z m1125
20 c0 -13 -69 -15 -549 -18 -326 -1 -554 2 -559 7 -29 29 12 31 556 29 483 -3
552 -5 552 -18z m3 -47 c3 -10 -113 -13 -557 -13 -309 0 -561 4 -561 8 0 5 3
12 7 15 3 4 254 6 556 5 430 -2 551 -6 555 -15z"/>
<path d="M3650 4335 l0 -55 505 0 505 0 0 55 0 55 -505 0 -505 0 0 -55z m1000
25 c0 -20 -7 -20 -489 -20 -316 0 -492 4 -496 10 -3 6 -3 15 0 20 4 6 180 10
496 10 482 0 489 0 489 -20z m0 -45 c0 -13 -62 -15 -495 -15 -433 0 -495 2
-495 15 0 13 62 15 495 15 433 0 495 -2 495 -15z"/>
<path d="M4700 4335 l0 -55 110 0 110 0 0 55 0 55 -110 0 -110 0 0 -55z m210
25 c0 -20 -5 -21 -97 -18 -84 3 -98 6 -101 21 -3 15 7 17 97 17 95 0 101 -1
101 -20z m0 -45 c0 -12 -18 -15 -100 -15 -82 0 -100 3 -100 15 0 12 18 15 100
15 82 0 100 -3 100 -15z"/>
<path d="M4962 4338 l3 -53 293 -3 292 -2 0 55 0 55 -296 0 -295 0 3 -52z
m578 22 c0 -20 -7 -20 -280 -20 -273 0 -280 0 -280 20 0 20 7 20 280 20 273 0
280 0 280 -20z m0 -45 c0 -13 -38 -15 -280 -15 -242 0 -280 2 -280 15 0 13 38
15 280 15 242 0 280 -2 280 -15z"/>
<path d="M60 3656 l0 -64 56 -4 c31 -1 58 -1 60 1 2 2 4 33 4 68 l0 63 -60 0
-60 0 0 -64z m50 -1 c0 -42 -3 -55 -15 -55 -12 0 -15 13 -15 55 0 42 3 55 15
55 12 0 15 -13 15 -55z m50 0 c0 -42 -3 -55 -15 -55 -12 0 -15 13 -15 55 0 42
3 55 15 55 12 0 15 -13 15 -55z"/>
<path d="M5900 3656 l0 -64 56 -4 c31 -1 58 -1 60 1 2 2 4 33 4 68 l0 63 -60
0 -60 0 0 -64z m50 -1 c0 -42 -3 -55 -15 -55 -12 0 -15 13 -15 55 0 42 3 55
15 55 12 0 15 -13 15 -55z m50 0 c0 -42 -3 -55 -15 -55 -12 0 -15 13 -15 55 0
42 3 55 15 55 12 0 15 -13 15 -55z"/>
<path d="M70 3255 l0 -285 55 0 55 0 0 285 0 285 -55 0 -55 0 0 -285z m40 10
c0 -146 0 -268 1 -272 0 -5 -7 -9 -15 -11 -14 -3 -16 28 -16 272 0 239 2 276
15 276 13 0 15 -36 15 -265z m50 -10 c0 -238 -2 -275 -15 -275 -13 0 -15 37
-15 275 0 238 2 275 15 275 13 0 15 -37 15 -275z"/>
<path d="M5900 3255 l0 -285 55 0 55 0 0 285 0 285 -55 0 -55 0 0 -285z m50
-1 c0 -257 -1 -275 -17 -272 -17 3 -18 25 -21 263 -1 143 0 265 3 272 2 7 11
13 20 13 13 0 15 -35 15 -276z m50 0 c0 -257 -1 -275 -17 -272 -17 3 -18 25
-21 276 -2 267 -2 272 18 272 20 0 20 -6 20 -276z"/>
<path d="M70 2350 l0 -580 54 0 53 0 6 108 c6 124 31 225 89 362 22 52 40 102
40 110 0 8 -18 58 -39 110 -58 139 -85 249 -91 368 l-5 102 -53 0 -54 0 0
-580z m40 0 c0 -500 -2 -570 -15 -570 -13 0 -15 70 -15 570 0 500 2 570 15
570 13 0 15 -70 15 -570z m60 433 c1 -76 7 -166 14 -200 15 -68 8 -95 -18 -74
-27 23 -37 81 -43 249 l-6 162 27 0 26 0 0 -137z m40 -181 c11 -40 37 -112 58
-160 l39 -89 -25 -54 c-13 -30 -41 -106 -63 -169 -39 -119 -49 -123 -25 -11 8
35 12 70 9 78 -9 22 -40 15 -62 -14 l-20 -28 -1 198 c0 108 2 197 5 197 3 0
10 -11 15 -25 12 -32 37 -42 55 -24 12 12 12 24 0 79 -27 122 -16 136 15 22z
m-16 -410 c2 -4 -2 -37 -9 -72 -8 -37 -14 -125 -15 -203 0 -138 0 -138 -22
-135 -23 3 -23 4 -22 165 1 128 4 171 18 207 16 42 37 58 50 38z"/>
<path d="M162 2378 c-16 -16 -15 -33 4 -52 23 -24 53 -20 66 9 8 19 8 28 -2
40 -15 18 -51 20 -68 3z m62 -14 c7 -19 -10 -44 -29 -44 -19 0 -36 25 -29 44
3 9 16 16 29 16 13 0 26 -7 29 -16z"/>
<path d="M5898 2828 c-6 -119 -33 -229 -91 -368 -21 -52 -39 -102 -39 -110 0
-8 18 -58 40 -110 58 -137 83 -238 89 -362 l6 -108 53 0 54 0 0 580 0 580 -54
0 -53 0 -5 -102z m60 -75 c-6 -167 -18 -229 -48 -248 -22 -14 -27 16 -14 78 7
34 13 124 14 200 l0 137 26 0 27 0 -5 -167z m42 -403 c0 -500 -2 -570 -15
-570 -13 0 -15 70 -15 570 0 500 2 570 15 570 13 0 15 -70 15 -570z m-114 235
c-13 -59 -13 -72 -1 -84 18 -18 43 -8 55 24 5 14 12 25 15 25 3 0 5 -89 5
-197 l-1 -198 -20 28 c-22 29 -53 36 -62 14 -3 -8 1 -43 9 -78 24 -112 14
-108 -25 11 -22 63 -50 140 -64 169 l-24 55 27 60 c31 69 63 159 81 226 18 67
22 25 5 -55z m49 -427 c13 -32 18 -85 23 -210 l5 -168 -27 0 -26 0 0 133 c0
72 -6 164 -14 204 -7 40 -11 75 -8 78 15 14 31 1 47 -37z"/>
<path d="M5850 2375 c-18 -21 2 -65 29 -65 22 0 51 25 51 44 0 34 -57 49 -80
21z m64 -11 c7 -19 -10 -44 -29 -44 -19 0 -36 25 -29 44 3 9 16 16 29 16 13 0
26 -7 29 -16z"/>
<path d="M68 1445 l3 -285 49 0 49 0 3 285 3 285 -55 0 -55 0 3 -285z m42 0
c0 -238 -2 -275 -15 -275 -13 0 -15 37 -15 275 0 238 2 275 15 275 13 0 15
-37 15 -275z m50 0 c0 -238 -2 -275 -15 -275 -13 0 -15 37 -15 275 0 238 2
275 15 275 13 0 15 -37 15 -275z"/>
<path d="M5900 1445 l0 -285 55 0 55 0 0 285 0 285 -55 0 -55 0 0 -285z m50 0
c0 -238 -2 -275 -15 -275 -13 0 -15 37 -15 275 0 238 2 275 15 275 13 0 15
-37 15 -275z m50 0 c0 -235 -2 -275 -15 -275 -12 0 -15 41 -17 271 -2 149 -1
273 1 275 2 2 10 4 18 4 10 0 13 -53 13 -275z"/>
<path d="M113 1112 l-53 -3 0 -65 0 -64 58 0 57 0 -3 52 c-5 88 -1 83 -59 80z
m-3 -68 c0 -47 -3 -55 -17 -52 -14 2 -19 15 -21 56 -3 47 -1 52 17 52 19 0 21
-6 21 -56z m50 0 c0 -47 -3 -55 -17 -52 -13 2 -19 15 -21 42 -4 47 3 66 23 66
12 0 15 -12 15 -56z"/>
<path d="M5904 1111 c-2 -2 -4 -33 -4 -68 l0 -63 60 0 60 0 0 64 0 64 -56 4
c-31 1 -58 1 -60 -1z m46 -66 c0 -42 -3 -55 -15 -55 -12 0 -15 13 -15 55 0 42
3 55 15 55 12 0 15 -13 15 -55z m50 0 c0 -42 -3 -55 -15 -55 -12 0 -15 13 -15
55 0 42 3 55 15 55 12 0 15 -13 15 -55z"/>
<path d="M60 505 l0 -435 110 0 c91 0 110 3 110 15 0 13 53 15 420 15 l420 0
0 54 0 53 -172 6 c-181 5 -307 23 -441 62 -44 13 -75 19 -70 14 16 -16 200
-58 320 -74 63 -8 168 -15 234 -15 115 0 119 -1 119 -21 0 -22 -1 -22 -177
-15 -98 3 -196 8 -218 11 -31 3 -35 3 -15 -4 16 -6 -33 -9 -142 -10 l-167 -1
10 32 c5 17 7 34 4 36 -2 2 -8 -11 -13 -29 -8 -33 -10 -34 -60 -37 l-52 -3 0
70 0 69 83 -33 c87 -36 258 -85 292 -85 11 1 -29 14 -90 29 -112 29 -185 55
-255 91 l-40 20 0 -85 0 -85 421 0 c395 0 420 -1 417 -18 -3 -16 -32 -17 -421
-20 -361 -2 -417 -4 -417 -17 0 -12 -18 -15 -100 -15 l-100 0 0 425 0 425 78
0 79 0 46 -97 c81 -174 121 -333 130 -508 3 -55 3 -54 5 16 3 137 -44 322
-130 510 l-41 89 -88 0 -89 0 0 -435z"/>
<path d="M5802 851 c-86 -188 -133 -373 -130 -510 2 -70 2 -71 5 -16 9 175 49
334 130 508 l46 97 79 0 78 0 0 -425 0 -425 -100 0 c-82 0 -100 3 -100 15 0
13 -56 15 -417 17 -389 3 -418 4 -421 20 -3 17 22 18 417 18 l421 0 0 85 0 85
-40 -20 c-70 -36 -143 -62 -255 -91 -60 -15 -101 -28 -90 -29 34 0 205 49 292
85 l83 33 0 -69 0 -70 -52 3 c-50 3 -52 4 -60 37 -5 18 -11 31 -13 29 -3 -2
-1 -19 4 -36 l10 -32 -167 1 c-109 1 -158 4 -142 10 20 7 16 7 -15 4 -22 -3
-120 -8 -217 -11 -177 -7 -178 -7 -178 15 0 20 4 21 119 21 66 0 171 7 234 15
120 16 304 58 320 74 5 5 -26 -1 -70 -14 -134 -39 -260 -57 -440 -62 l-173 -6
0 -53 0 -54 420 0 c367 0 420 -2 420 -15 0 -12 19 -15 110 -15 l110 0 0 435 0
435 -89 0 -88 0 -41 -89z"/>
<path d="M110 505 l0 -385 60 0 60 0 0 125 0 125 40 0 c48 0 47 -3 20 129 -24
117 -62 235 -101 313 -34 68 -34 68 -11 68 51 0 172 -368 172 -520 0 -25 5
-40 16 -44 24 -9 31 -7 12 5 -12 6 -18 22 -18 43 0 102 -54 305 -120 454 l-33
72 -48 0 -49 0 0 -385z m69 307 c45 -99 79 -203 101 -314 11 -53 20 -101 20
-107 0 -6 -18 -11 -40 -11 l-39 0 -3 -123 -3 -122 -47 -3 -48 -3 0 375 c0 420
2 430 59 308z"/>
<path d="M160 730 c0 -5 5 -10 10 -10 6 0 10 5 10 10 0 6 -4 10 -10 10 -5 0
-10 -4 -10 -10z"/>
<path d="M163 624 c-3 -8 2 -23 11 -32 15 -15 17 -15 32 0 21 21 11 48 -16 48
-11 0 -23 -7 -27 -16z m47 -8 c0 -8 -5 -18 -11 -22 -14 -8 -33 11 -25 25 10
16 36 13 36 -3z"/>
<path d="M182 498 c-28 -28 -1 -75 37 -63 11 3 23 15 26 26 12 38 -35 65 -63
37z m52 -15 c9 -21 -16 -46 -37 -37 -17 6 -23 35 -10 47 12 13 41 7 47 -10z"/>
<path d="M5840 818 c-66 -149 -120 -352 -120 -454 0 -20 -7 -37 -17 -44 -17
-11 -17 -11 0 -6 10 3 21 6 23 6 2 0 4 17 4 39 0 153 121 521 172 521 23 0 23
0 -11 -68 -39 -78 -77 -196 -101 -313 -27 -132 -28 -129 20 -129 l40 0 0 -125
0 -125 60 0 60 0 0 385 0 385 -49 0 -48 0 -33 -72z m120 -314 l0 -375 -47 3
-48 3 -3 123 -3 122 -39 0 c-22 0 -40 5 -40 11 0 6 9 54 20 107 22 111 56 215
101 314 57 122 59 112 59 -308z"/>
<path d="M5900 730 c0 -5 5 -10 10 -10 6 0 10 5 10 10 0 6 -4 10 -10 10 -5 0
-10 -4 -10 -10z"/>
<path d="M5863 624 c-3 -8 2 -23 11 -32 15 -15 17 -15 32 0 21 21 11 48 -16
48 -11 0 -23 -7 -27 -16z m42 -14 c0 -22 -29 -18 -33 3 -3 14 1 18 15 15 10
-2 18 -10 18 -18z"/>
<path d="M5840 495 c-15 -19 -4 -52 21 -60 38 -12 65 35 37 63 -16 16 -43 15
-58 -3z m58 -21 c4 -26 -26 -40 -45 -21 -8 7 -11 21 -7 31 9 24 48 17 52 -10z"/>
<path d="M530 365 l0 -55 295 0 295 0 0 55 0 55 -295 0 -295 0 0 -55z m570 20
c0 -13 -38 -15 -280 -15 -242 0 -280 2 -280 15 0 13 38 15 280 15 242 0 280
-2 280 -15z m0 -45 c0 -20 -7 -20 -280 -20 -227 0 -280 3 -280 13 0 8 3 17 7
20 3 4 129 7 280 7 266 0 273 0 273 -20z"/>
<path d="M1160 365 l0 -55 110 0 110 0 0 55 0 55 -110 0 -110 0 0 -55z m210
20 c0 -12 -18 -15 -100 -15 -82 0 -100 3 -100 15 0 12 18 15 100 15 82 0 100
-3 100 -15z m0 -45 c0 -19 -7 -20 -100 -20 -77 0 -100 3 -100 13 0 24 12 27
107 27 86 0 93 -1 93 -20z"/>
<path d="M1420 365 l0 -55 505 0 505 0 0 55 0 55 -505 0 -505 0 0 -55z m1000
20 c0 -13 -62 -15 -495 -15 -433 0 -495 2 -495 15 0 13 62 15 495 15 433 0
495 -2 495 -15z m-2 -47 c3 -17 -26 -18 -492 -18 -407 0 -496 2 -496 13 0 8 3
17 7 20 3 4 225 6 492 5 453 -3 486 -4 489 -20z"/>
<path d="M3038 413 l-568 -3 0 -50 0 -50 570 0 570 0 0 55 c0 30 -1 54 -2 53
-2 -2 -258 -4 -570 -5z m562 -28 c0 -13 -68 -15 -555 -15 -487 0 -555 2 -555
15 0 13 68 15 555 15 487 0 555 -2 555 -15z m-2 -47 c3 -17 -28 -18 -552 -18
-550 0 -556 0 -556 20 0 20 5 20 552 18 517 -3 553 -4 556 -20z"/>
<path d="M3650 365 l0 -55 508 0 507 0 -3 55 -4 55 -504 0 -504 0 0 -55z
m1000 20 c0 -13 -61 -15 -490 -15 -429 0 -490 2 -490 15 0 13 61 15 490 15
429 0 490 -2 490 -15z m0 -45 c0 -20 -7 -20 -490 -20 -483 0 -490 0 -490 20 0
20 7 20 490 20 483 0 490 0 490 -20z"/>
<path d="M4700 365 l0 -55 110 0 110 0 0 55 0 55 -110 0 -110 0 0 -55z m210
20 c0 -12 -18 -15 -100 -15 -82 0 -100 3 -100 15 0 12 18 15 100 15 82 0 100
-3 100 -15z m0 -45 c0 -19 -7 -20 -100 -20 -77 0 -100 3 -100 13 0 24 12 27
107 27 86 0 93 -1 93 -20z"/>
<path d="M4967 413 c-4 -3 -7 -28 -7 -55 l0 -48 301 0 300 0 -3 53 -3 52 -291
3 c-160 1 -293 -1 -297 -5z m573 -28 c0 -13 -38 -15 -280 -15 -242 0 -280 2
-280 15 0 13 38 15 280 15 242 0 280 -2 280 -15z m0 -45 c0 -20 -7 -20 -280
-20 -273 0 -280 0 -280 20 0 20 7 20 280 20 273 0 280 0 280 -20z"/>
<path d="M2755 224 c-33 -8 -111 -15 -172 -17 l-113 -2 0 -52 0 -53 103 0 c94
0 191 -10 238 -25 12 -4 19 -2 19 7 0 7 -12 14 -27 15 -16 1 -93 5 -173 10
-131 7 -145 10 -148 27 -4 18 2 19 134 14 77 -3 128 -2 114 2 -25 8 -25 8 -2
9 49 2 113 24 138 48 23 21 33 24 67 19 67 -11 77 -21 77 -75 0 -46 -2 -50
-31 -60 -46 -16 -94 -14 -110 6 -16 19 -71 43 -96 43 -10 -1 -1 -7 21 -15 21
-7 51 -25 66 -40 25 -24 30 -25 76 -15 88 19 84 15 84 80 0 69 -9 77 -91 87
-44 5 -52 3 -65 -16 -19 -26 -34 -27 -34 -1 0 11 -3 19 -7 19 -5 -1 -35 -8
-68 -15z m68 -18 c9 -22 -63 -37 -210 -43 -113 -5 -133 -3 -133 9 0 12 23 16
113 22 61 4 130 11 152 15 60 13 72 12 78 -3z"/>
<path d="M3100 227 c-34 -12 -35 -13 -38 -74 -3 -68 -8 -63 82 -83 46 -10 51
-9 76 15 15 15 45 33 66 40 22 8 31 14 21 15 -25 0 -80 -24 -96 -43 -16 -20
-64 -22 -110 -6 -29 10 -31 14 -31 60 0 54 10 64 77 75 34 5 44 2 67 -19 25
-24 89 -46 138 -48 23 -1 23 -1 -2 -9 -14 -4 37 -5 114 -2 132 5 138 4 134
-14 -3 -17 -17 -20 -148 -27 -80 -5 -157 -9 -172 -10 -16 -1 -28 -8 -28 -15 0
-9 7 -11 19 -7 47 15 144 25 239 25 l102 0 0 53 0 52 -103 1 c-91 2 -204 16
-243 31 -9 3 -14 -2 -14 -16 0 -27 -16 -27 -32 -1 -15 23 -62 26 -118 7z m300
-27 c41 -5 103 -10 138 -10 50 0 62 -3 62 -16 0 -15 -14 -16 -132 -11 -150 6
-220 21 -211 44 4 10 15 13 37 9 17 -3 65 -10 106 -16z"/>
<path d="M1160 155 l0 -55 110 0 110 0 0 55 0 55 -110 0 -110 0 0 -55z m210
25 c0 -19 -7 -20 -100 -20 -93 0 -100 1 -100 20 0 19 7 20 100 20 93 0 100 -1
100 -20z m-2 -47 c-3 -15 -17 -18 -101 -21 -92 -3 -97 -2 -97 18 0 19 6 20
101 20 90 0 100 -2 97 -17z"/>
<path d="M1420 155 l0 -55 505 0 505 0 0 55 0 55 -505 0 -505 0 0 -55z m990
25 c0 -20 -7 -20 -490 -20 -483 0 -490 0 -490 20 0 20 7 20 490 20 483 0 490
0 490 -20z m0 -50 c0 -20 -7 -20 -490 -20 -483 0 -490 0 -490 20 0 20 7 20
490 20 483 0 490 0 490 -20z"/>
<path d="M3650 155 l0 -55 505 0 505 0 0 55 0 55 -505 0 -505 0 0 -55z m1000
25 c0 -20 -7 -20 -490 -20 -483 0 -490 0 -490 20 0 20 7 20 490 20 483 0 490
0 490 -20z m0 -50 c0 -20 -7 -20 -490 -20 -483 0 -490 0 -490 20 0 20 7 20
490 20 483 0 490 0 490 -20z"/>
<path d="M4700 155 l0 -55 110 0 110 0 0 55 0 55 -110 0 -110 0 0 -55z m210
25 c0 -19 -7 -20 -100 -20 -93 0 -100 1 -100 20 0 19 7 20 100 20 93 0 100 -1
100 -20z m0 -50 c0 -20 -5 -21 -97 -18 -84 3 -98 6 -101 21 -3 15 7 17 97 17
95 0 101 -1 101 -20z"/>
<path d="M2890 170 c-9 -16 -8 -25 1 -36 26 -32 84 0 62 34 -16 26 -50 27 -63
2z m47 -6 c8 -21 -13 -42 -28 -27 -13 13 -5 43 11 43 6 0 13 -7 17 -16z"/>
<path d="M3129 174 c-9 -11 -10 -20 -2 -32 25 -41 86 -14 63 27 -13 25 -42 27
-61 5z m48 -10 c8 -21 -13 -42 -28 -27 -13 13 -5 43 11 43 6 0 13 -7 17 -16z"/>
</g>
</svg>
