<?xml version="1.0" standalone="no"?>
<!DOCTYPE svg PUBLIC "-//W3C//DTD SVG 20010904//EN"
 "http://www.w3.org/TR/2001/REC-SVG-20010904/DTD/svg10.dtd">
<svg version="1.0" xmlns="http://www.w3.org/2000/svg"
 width="604.000000pt" height="720.000000pt" viewBox="0 0 604.000000 720.000000"
 preserveAspectRatio="xMidYMid meet">

<g transform=" translate(0.000000,720.000000) scale(0.100000,-0.100000)"
fill="rgba(225, 225, 225, 0.9)" stroke="none">
<path d="M3038 7155 c-21 -23 -43 -56 -50 -71 -6 -16 -13 -30 -14 -32 -1 -2
-13 8 -27 22 -15 15 -43 28 -67 32 -23 4 -55 18 -71 31 l-29 25 -10 -27 c-31
-81 -19 -162 30 -219 l30 -34 -35 -6 c-35 -7 -75 6 -75 24 0 25 -33 6 -46 -27
-30 -71 8 -172 77 -206 l34 -17 -45 0 c-57 0 -144 21 -192 46 l-38 19 47 35
c67 50 88 97 88 195 0 95 -21 147 -74 182 -63 42 -121 21 -161 -58 -22 -41
-17 -48 14 -24 31 24 93 19 121 -9 48 -48 52 -145 8 -205 -11 -14 -36 -34 -57
-45 -45 -22 -56 -13 -56 44 0 41 15 61 39 53 11 -3 10 -1 -3 8 -17 10 -22 8
-38 -11 -23 -28 -23 -64 1 -117 57 -125 323 -173 491 -88 25 13 53 32 63 43
17 19 17 21 2 29 -23 13 -16 57 10 62 11 2 26 12 33 22 16 23 50 25 59 3 3 -8
16 -20 30 -25 34 -13 41 -39 14 -60 l-22 -18 43 -29 c75 -51 133 -67 238 -67
123 1 198 24 256 79 48 47 68 101 53 146 -12 32 -37 46 -53 29 -8 -9 -8 -10 2
-5 35 20 58 -59 29 -98 -13 -17 -16 -17 -44 -3 -94 49 -121 170 -57 247 30 35
75 40 125 14 30 -15 31 -15 23 8 -20 65 -74 104 -129 94 -43 -8 -101 -73 -112
-123 -13 -64 -6 -147 16 -190 19 -38 75 -96 102 -105 45 -15 -85 -67 -186 -75
l-70 -6 34 24 c55 38 74 72 79 136 3 47 0 63 -15 82 l-20 24 -30 -22 c-24 -18
-37 -21 -68 -15 -37 7 -37 7 -17 23 59 46 80 149 47 228 l-15 36 -24 -22 c-13
-12 -46 -29 -72 -37 -29 -8 -58 -25 -71 -42 -23 -27 -23 -27 -23 -4 0 30 -32
91 -62 119 l-23 21 -37 -43z m87 -48 c18 -36 25 -68 26 -111 l1 -61 14 55 c15
64 42 90 91 90 25 0 43 8 63 28 28 28 29 28 34 8 3 -12 6 -47 6 -79 0 -87 -30
-133 -102 -156 -21 -7 -40 -17 -43 -22 -4 -5 6 -4 20 3 20 9 36 9 71 0 69 -19
93 -16 106 13 15 34 24 31 38 -9 20 -61 -20 -150 -80 -181 -40 -21 -107 -18
-159 6 -65 29 -74 38 -56 56 19 19 19 49 -1 65 -8 7 -25 23 -36 36 -26 27 -72
29 -90 4 -7 -11 -23 -24 -35 -31 -28 -14 -32 -65 -7 -79 14 -8 8 -14 -32 -38
-35 -21 -65 -29 -112 -32 l-63 -4 -44 45 c-47 50 -62 93 -51 152 8 42 12 43
38 10 22 -28 53 -32 105 -13 26 9 41 9 64 1 25 -10 29 -10 19 2 -6 7 -23 16
-38 20 -39 9 -81 53 -93 97 -11 41 -2 158 12 158 4 0 10 -8 14 -18 7 -23 46
-42 86 -42 39 0 74 -36 89 -89 6 -22 12 -41 14 -41 1 0 1 24 -2 53 -4 49 -1
56 31 95 20 23 39 52 42 63 9 28 27 11 60 -54z"/>
<path d="M1040 7053 c-140 -14 -286 -69 -377 -141 -51 -41 -151 -168 -140
-178 3 -3 12 7 21 23 8 16 44 57 80 91 85 79 201 136 333 164 127 27 362 29
508 4 119 -20 318 -66 312 -72 -2 -3 -62 7 -133 21 -457 89 -787 34 -986 -165
-118 -118 -167 -263 -135 -395 14 -55 15 -71 4 -84 -10 -14 -10 -14 4 -4 13
11 20 9 39 -12 l22 -24 -33 -14 c-28 -12 -36 -12 -44 -2 -8 10 -15 6 -29 -18
l-18 -32 -19 24 c-18 22 -18 24 -2 37 15 12 16 13 1 8 -31 -11 -32 59 -2 164
6 19 3 23 -12 20 -42 -7 -10 121 46 180 11 12 17 22 11 22 -14 0 -62 -61 -79
-100 -16 -39 -20 -132 -5 -137 6 -2 8 -38 5 -84 l-5 -81 -76 -77 c-86 -85
-128 -159 -163 -288 -17 -65 -21 -106 -21 -248 0 -93 5 -206 12 -250 14 -92
71 -338 77 -332 2 2 -7 53 -20 113 -40 181 -50 262 -49 424 0 171 15 265 63
387 30 79 101 185 151 228 l33 27 16 -22 c16 -21 15 -24 -34 -74 -154 -159
-224 -418 -198 -729 7 -78 21 -182 32 -231 11 -50 22 -116 24 -147 3 -32 14
-89 27 -126 l21 -69 -36 -36 c-30 -30 -36 -43 -36 -80 0 -71 39 -136 125 -208
41 -35 75 -67 75 -72 0 -5 -19 -6 -45 -2 -61 9 -108 -2 -145 -32 -55 -47 -28
-125 43 -123 l32 1 -30 7 c-17 3 -35 17 -44 32 -13 24 -13 29 3 53 23 36 60
49 128 44 40 -3 68 -12 99 -33 l43 -28 -31 39 c-17 21 -66 73 -108 114 -91 90
-115 131 -115 200 0 44 4 56 30 82 28 28 36 30 78 25 42 -5 45 -4 27 9 -10 8
-24 14 -31 14 -14 0 -28 32 -51 120 -12 47 -17 106 -18 215 0 128 3 160 22
220 35 110 100 191 198 244 25 14 31 19 15 15 -51 -13 -123 -60 -165 -107 -48
-53 -79 -124 -101 -232 -8 -38 -17 -74 -19 -80 -13 -26 7 237 21 289 29 109
101 229 170 281 l36 27 14 -21 c20 -28 66 -51 103 -51 25 0 33 -6 44 -32 28
-65 100 -103 174 -92 l46 7 -16 -24 c-10 -14 -17 -43 -17 -73 0 -45 4 -52 49
-97 26 -27 54 -49 62 -49 7 0 -2 11 -21 25 -76 56 -89 120 -40 198 16 26 34
47 40 47 5 0 10 4 10 10 0 5 -19 2 -42 -6 -24 -9 -69 -17 -100 -17 -64 -2
-100 17 -131 71 l-18 31 47 27 c41 24 49 26 68 14 73 -46 72 -46 121 -29 l45
17 0 -28 c0 -16 18 -66 40 -111 47 -97 53 -89 10 13 -34 78 -37 112 -16 163
17 41 9 45 -23 11 -12 -13 -40 -32 -63 -42 -39 -18 -41 -18 -77 1 -20 11 -35
24 -35 30 1 5 21 20 45 33 35 18 56 23 102 20 48 -2 55 -1 40 10 -9 6 -24 12
-34 12 -22 0 -94 70 -102 99 -4 17 0 24 21 32 26 10 27 11 7 25 -17 13 -18 17
-6 37 l14 22 -22 -19 c-22 -20 -22 -20 -53 12 -28 27 -33 40 -36 97 -4 59 -3
65 15 65 42 0 128 -33 155 -60 15 -16 28 -25 28 -21 0 4 -12 19 -28 34 -31 30
-100 57 -144 57 -16 0 -37 8 -46 18 -10 10 -13 12 -8 5 12 -18 9 -19 -45 -27
-43 -6 -48 -5 -72 23 -38 45 -50 94 -45 180 11 193 171 363 413 440 91 30 216
52 283 50 27 0 13 -6 -48 -18 -177 -38 -293 -103 -427 -240 -51 -53 -93 -99
-93 -103 0 -15 56 -8 87 12 l32 19 -6 -64 c-5 -50 -2 -70 11 -90 19 -29 36
-33 29 -6 -3 10 9 44 25 76 l30 56 12 -38 c19 -58 27 -59 34 -6 22 159 165
297 361 348 53 14 305 32 280 20 -5 -2 -43 -11 -84 -19 -155 -32 -257 -104
-312 -221 -39 -80 -37 -104 1 -28 49 98 138 168 255 200 77 21 240 28 335 14
121 -18 210 -47 210 -70 0 -10 10 -26 23 -37 22 -19 22 -19 5 2 -33 38 -13
109 37 132 37 17 101 15 141 -4 19 -9 83 -64 143 -123 59 -58 123 -115 142
-125 30 -18 29 -16 -13 25 -32 30 -50 58 -58 88 -27 103 25 198 94 171 25 -9
31 -23 28 -65 -2 -16 0 -17 8 -5 15 23 12 45 -11 74 -36 46 -103 29 -129 -33
-6 -17 -10 -58 -8 -95 1 -36 0 -66 -4 -66 -3 0 -37 34 -75 77 -118 132 -228
160 -299 76 l-21 -24 -164 50 c-292 88 -558 125 -759 104z m-340 -805 c0 -63
18 -118 49 -149 l27 -27 -33 -26 c-38 -31 -46 -28 -102 37 -18 20 -39 37 -46
37 -7 0 -15 10 -18 22 -5 19 -19 9 -114 -88 -141 -142 -197 -246 -238 -440
l-15 -69 6 89 c7 121 44 259 95 358 43 82 135 192 182 217 23 12 29 11 53 -8
33 -26 55 -27 85 -1 l24 20 -30 -16 c-27 -15 -34 -15 -60 -3 -43 21 -41 35 7
52 43 15 106 34 121 36 4 1 7 -18 7 -41z m-77 -182 c17 -13 14 -15 -30 -24
-26 -6 -49 -10 -50 -8 -1 1 4 12 13 24 17 25 41 28 67 8z m202 -122 l26 -17
-39 -17 c-21 -10 -56 -33 -78 -51 -21 -19 -33 -27 -27 -18 7 9 10 19 7 22 -4
4 -15 -4 -25 -18 -29 -36 -79 -49 -121 -32 -42 18 -65 44 -51 58 6 6 40 15 77
22 36 6 65 16 64 22 -4 25 15 85 28 85 10 0 11 -6 4 -26 -15 -38 -11 -54 4
-19 7 17 26 43 42 58 l28 29 18 -40 c9 -23 28 -48 43 -58z m-187 1 c-8 -8 -24
-11 -41 -8 l-28 6 38 23 c32 19 39 20 41 7 2 -8 -2 -21 -10 -28z"/>
<path d="M4810 7050 c-130 -13 -428 -75 -417 -86 2 -3 43 5 92 16 216 50 410
68 568 51 252 -28 433 -117 533 -265 42 -63 45 -50 3 15 -44 70 -148 162 -221
198 -134 66 -347 93 -558 71z"/>
<path d="M4697 6999 c-42 -4 -134 -20 -203 -34 -70 -14 -133 -24 -140 -21 -8
3 -51 -6 -97 -20 l-83 -26 -36 36 c-30 30 -43 36 -77 36 -79 0 -129 -31 -216
-133 -32 -37 -61 -67 -65 -67 -5 0 -6 25 -3 55 7 63 -17 139 -47 155 -53 28
-111 -5 -109 -62 2 -31 2 -31 6 -5 5 33 44 61 72 52 86 -27 81 -206 -6 -274
-24 -19 -25 -21 -4 -10 13 6 74 60 135 119 61 59 126 114 143 124 41 20 122
21 151 0 37 -26 55 -71 43 -107 -10 -29 -10 -30 4 -13 8 11 15 26 15 33 0 16
113 51 210 65 102 14 269 4 349 -21 117 -36 196 -105 246 -213 14 -29 25 -46
25 -37 0 9 -16 48 -35 86 -62 124 -151 186 -317 219 -46 9 -85 19 -88 22 -11
11 239 -9 295 -24 194 -52 339 -193 352 -346 7 -66 17 -67 36 0 l14 47 27 -52
c14 -29 26 -64 26 -78 0 -37 19 -31 36 12 15 35 14 85 -2 128 -6 14 -1 14 32
-4 38 -20 75 -27 86 -15 3 3 -42 54 -101 113 -138 139 -242 195 -437 236 l-69
15 89 -6 c319 -19 579 -189 641 -418 29 -107 8 -209 -54 -265 -18 -17 -20 -22
-8 -18 10 4 24 7 29 7 6 0 9 3 6 6 -4 3 4 21 17 40 51 76 47 216 -10 332 -125
252 -453 376 -878 331z"/>
<path d="M2022 6877 c-23 -24 -29 -57 -11 -57 5 0 56 -20 112 -44 56 -24 125
-51 154 -60 28 -10 62 -25 75 -35 68 -54 206 -102 285 -100 l48 2 -55 7 c-142
18 -239 70 -350 185 -98 101 -134 125 -190 125 -36 0 -52 -5 -68 -23z m141
-27 c26 -16 47 -34 47 -39 0 -4 -38 5 -85 22 -47 17 -85 35 -85 39 0 20 79 6
123 -22z"/>
<path d="M3959 6872 c-24 -16 -68 -56 -96 -90 -91 -104 -213 -172 -345 -191
-58 -8 -59 -9 -19 -10 82 -2 204 40 279 96 18 14 50 29 70 35 20 5 90 32 155
60 97 42 121 48 128 37 6 -10 9 -6 9 14 0 75 -98 102 -181 49z m141 0 c0 -4
-41 -22 -92 -40 -92 -32 -92 -33 -69 -8 13 13 37 31 55 40 32 16 106 22 106 8z"/>
<path d="M1418 6814 c-111 -26 -225 -103 -264 -176 -27 -52 -14 -53 16 -1 34
59 49 71 61 52 4 -7 11 -10 16 -6 4 5 1 12 -6 16 -30 19 94 75 200 92 115 18
324 6 434 -25 87 -24 437 -144 424 -145 -4 -1 -51 8 -104 19 -290 60 -529 65
-700 15 -109 -31 -216 -121 -219 -184 -1 -16 -5 -33 -9 -37 -4 -4 -7 -11 -7
-15 0 -4 23 17 52 47 148 157 446 189 911 98 143 -28 212 -37 322 -39 l140 -4
-125 9 c-69 5 -217 27 -330 49 -256 50 -398 65 -520 57 -175 -12 -290 -52
-382 -134 -54 -49 -62 -44 -20 14 61 84 224 141 432 151 141 7 257 -5 489 -47
86 -16 185 -31 221 -34 l65 -6 -70 14 c-38 8 -140 40 -225 71 -270 100 -352
125 -468 145 -131 23 -252 24 -334 4z"/>
<path d="M4405 6815 c-119 -19 -185 -38 -397 -117 -106 -39 -220 -79 -253 -90
l-60 -18 55 5 c30 4 132 20 225 38 151 28 191 31 355 31 140 0 201 -4 251 -16
135 -34 229 -91 265 -160 22 -42 17 -41 -28 5 -153 151 -427 182 -858 97 -241
-47 -270 -52 -395 -60 l-120 -9 145 4 c100 3 185 12 275 30 72 14 175 32 230
41 132 21 375 21 475 0 104 -22 209 -76 259 -133 l41 -46 -5 38 c-20 156 -244
246 -577 232 -103 -5 -138 -4 -141 6 -3 7 -6 5 -6 -5 -1 -12 -9 -18 -25 -18
-14 0 -80 -11 -148 -25 -68 -14 -127 -25 -133 -24 -5 0 73 29 174 64 219 77
363 115 369 97 5 -16 23 -16 20 1 -4 16 214 22 300 7 139 -24 237 -84 281
-172 12 -24 19 -32 15 -18 -17 66 -79 132 -166 176 -102 52 -255 66 -423 39z"/>
<path d="M1500 6780 c0 -5 5 -10 10 -10 6 0 10 5 10 10 0 6 -4 10 -10 10 -5 0
-10 -4 -10 -10z"/>
<path d="M1545 6780 c3 -5 8 -10 11 -10 2 0 4 5 4 10 0 6 -5 10 -11 10 -5 0
-7 -4 -4 -10z"/>
<path d="M1705 6780 c-3 -5 -1 -10 4 -10 6 0 11 5 11 10 0 6 -2 10 -4 10 -3 0
-8 -4 -11 -10z"/>
<path d="M4450 6780 c0 -5 5 -10 10 -10 6 0 10 5 10 10 0 6 -4 10 -10 10 -5 0
-10 -4 -10 -10z"/>
<path d="M4575 6780 c3 -5 8 -10 11 -10 2 0 4 5 4 10 0 6 -5 10 -11 10 -5 0
-7 -4 -4 -10z"/>
<path d="M4685 6770 c3 -5 8 -10 11 -10 2 0 4 5 4 10 0 6 -5 10 -11 10 -5 0
-7 -4 -4 -10z"/>
<path d="M4335 6760 c3 -5 8 -10 11 -10 2 0 4 5 4 10 0 6 -5 10 -11 10 -5 0
-7 -4 -4 -10z"/>
<path d="M1370 6750 c0 -5 5 -10 11 -10 5 0 7 5 4 10 -3 6 -8 10 -11 10 -2 0
-4 -4 -4 -10z"/>
<path d="M1560 6750 c0 -5 5 -10 10 -10 6 0 10 5 10 10 0 6 -4 10 -10 10 -5 0
-10 -4 -10 -10z"/>
<path d="M1680 6750 c0 -5 5 -10 10 -10 6 0 10 5 10 10 0 6 -4 10 -10 10 -5 0
-10 -4 -10 -10z"/>
<path d="M1725 6750 c-3 -5 -1 -10 4 -10 6 0 11 5 11 10 0 6 -2 10 -4 10 -3 0
-8 -4 -11 -10z"/>
<path d="M1760 6750 c0 -5 5 -10 11 -10 5 0 7 5 4 10 -3 6 -8 10 -11 10 -2 0
-4 -4 -4 -10z"/>
<path d="M1835 6750 c-3 -5 -1 -10 4 -10 6 0 11 5 11 10 0 6 -2 10 -4 10 -3 0
-8 -4 -11 -10z"/>
<path d="M4590 6750 c0 -5 5 -10 10 -10 6 0 10 5 10 10 0 6 -4 10 -10 10 -5 0
-10 -4 -10 -10z"/>
<path d="M4750 6750 c0 -5 5 -10 11 -10 5 0 7 5 4 10 -3 6 -8 10 -11 10 -2 0
-4 -4 -4 -10z"/>
<path d="M1420 6739 c0 -5 5 -7 10 -4 6 3 10 8 10 11 0 2 -4 4 -10 4 -5 0 -10
-5 -10 -11z"/>
<path d="M1455 6740 c3 -5 8 -10 11 -10 2 0 4 5 4 10 0 6 -5 10 -11 10 -5 0
-7 -4 -4 -10z"/>
<path d="M1805 6740 c-3 -5 -1 -10 4 -10 6 0 11 5 11 10 0 6 -2 10 -4 10 -3 0
-8 -4 -11 -10z"/>
<path d="M4220 6740 c0 -5 5 -10 11 -10 5 0 7 5 4 10 -3 6 -8 10 -11 10 -2 0
-4 -4 -4 -10z"/>
<path d="M4250 6740 c0 -5 5 -10 10 -10 6 0 10 5 10 10 0 6 -4 10 -10 10 -5 0
-10 -4 -10 -10z"/>
<path d="M4525 6740 c3 -5 8 -10 11 -10 2 0 4 5 4 10 0 6 -5 10 -11 10 -5 0
-7 -4 -4 -10z"/>
<path d="M4700 6739 c0 -5 5 -7 10 -4 6 3 10 8 10 11 0 2 -4 4 -10 4 -5 0 -10
-5 -10 -11z"/>
<path d="M4190 6734 c0 -7 27 -34 34 -34 4 0 1 9 -6 20 -12 19 -28 27 -28 14z"/>
<path d="M1355 6720 c-3 -5 -1 -10 4 -10 6 0 11 5 11 10 0 6 -2 10 -4 10 -3 0
-8 -4 -11 -10z"/>
<path d="M1475 6720 c-3 -5 -1 -10 4 -10 6 0 11 5 11 10 0 6 -2 10 -4 10 -3 0
-8 -4 -11 -10z"/>
<path d="M4340 6720 c0 -5 5 -10 11 -10 5 0 7 5 4 10 -3 6 -8 10 -11 10 -2 0
-4 -4 -4 -10z"/>
<path d="M4375 6720 c-3 -5 -1 -10 4 -10 6 0 11 5 11 10 0 6 -2 10 -4 10 -3 0
-8 -4 -11 -10z"/>
<path d="M1395 6710 c-3 -5 -1 -10 4 -10 6 0 11 5 11 10 0 6 -2 10 -4 10 -3 0
-8 -4 -11 -10z"/>
<path d="M1550 6710 c0 -5 5 -10 11 -10 5 0 7 5 4 10 -3 6 -8 10 -11 10 -2 0
-4 -4 -4 -10z"/>
<path d="M1625 6710 c-3 -5 -1 -10 4 -10 6 0 11 5 11 10 0 6 -2 10 -4 10 -3 0
-8 -4 -11 -10z"/>
<path d="M1850 6709 c0 -5 5 -7 10 -4 6 3 10 8 10 11 0 2 -4 4 -10 4 -5 0 -10
-5 -10 -11z"/>
<path d="M1880 6710 c0 -5 5 -10 10 -10 6 0 10 5 10 10 0 6 -4 10 -10 10 -5 0
-10 -4 -10 -10z"/>
<path d="M1910 6710 c0 -5 5 -10 11 -10 5 0 7 5 4 10 -3 6 -8 10 -11 10 -2 0
-4 -4 -4 -10z"/>
<path d="M1975 6700 c10 -11 20 -18 23 -16 5 6 -23 36 -34 36 -4 0 1 -9 11
-20z"/>
<path d="M4155 6710 c3 -5 8 -10 11 -10 2 0 4 5 4 10 0 6 -5 10 -11 10 -5 0
-7 -4 -4 -10z"/>
<path d="M4270 6709 c0 -5 5 -7 10 -4 6 3 10 8 10 11 0 2 -4 4 -10 4 -5 0 -10
-5 -10 -11z"/>
<path d="M4300 6709 c0 -5 5 -7 10 -4 6 3 10 8 10 11 0 2 -4 4 -10 4 -5 0 -10
-5 -10 -11z"/>
<path d="M4455 6710 c3 -5 8 -10 11 -10 2 0 4 5 4 10 0 6 -5 10 -11 10 -5 0
-7 -4 -4 -10z"/>
<path d="M4530 6710 c0 -5 5 -10 10 -10 6 0 10 5 10 10 0 6 -4 10 -10 10 -5 0
-10 -4 -10 -10z"/>
<path d="M4570 6710 c0 -5 5 -10 11 -10 5 0 7 5 4 10 -3 6 -8 10 -11 10 -2 0
-4 -4 -4 -10z"/>
<path d="M4690 6710 c0 -5 5 -10 10 -10 6 0 10 5 10 10 0 6 -4 10 -10 10 -5 0
-10 -4 -10 -10z"/>
<path d="M4725 6710 c-3 -5 -1 -10 4 -10 6 0 11 5 11 10 0 6 -2 10 -4 10 -3 0
-8 -4 -11 -10z"/>
<path d="M4800 6710 c0 -5 5 -10 10 -10 6 0 10 5 10 10 0 6 -4 10 -10 10 -5 0
-10 -4 -10 -10z"/>
<path d="M2010 6700 c0 -5 5 -10 10 -10 6 0 10 5 10 10 0 6 -4 10 -10 10 -5 0
-10 -4 -10 -10z"/>
<path d="M4180 6700 c0 -5 5 -10 10 -10 6 0 10 5 10 10 0 6 -4 10 -10 10 -5 0
-10 -4 -10 -10z"/>
<path d="M1495 6690 c-3 -5 -1 -10 4 -10 6 0 11 5 11 10 0 6 -2 10 -4 10 -3 0
-8 -4 -11 -10z"/>
<path d="M4080 6690 c0 -5 5 -10 10 -10 6 0 10 5 10 10 0 6 -4 10 -10 10 -5 0
-10 -4 -10 -10z"/>
<path d="M1265 6680 c-3 -5 -1 -10 4 -10 6 0 11 5 11 10 0 6 -2 10 -4 10 -3 0
-8 -4 -11 -10z"/>
<path d="M1365 6680 c-3 -5 -1 -10 4 -10 6 0 11 5 11 10 0 6 -2 10 -4 10 -3 0
-8 -4 -11 -10z"/>
<path d="M4660 6680 c0 -5 5 -10 10 -10 6 0 10 5 10 10 0 6 -4 10 -10 10 -5 0
-10 -4 -10 -10z"/>
<path d="M4755 6680 c-3 -5 -1 -10 4 -10 6 0 11 5 11 10 0 6 -2 10 -4 10 -3 0
-8 -4 -11 -10z"/>
<path d="M4825 6680 c-3 -5 -1 -10 4 -10 6 0 11 5 11 10 0 6 -2 10 -4 10 -3 0
-8 -4 -11 -10z"/>
<path d="M4855 6680 c-3 -5 -1 -10 4 -10 6 0 11 5 11 10 0 6 -2 10 -4 10 -3 0
-8 -4 -11 -10z"/>
<path d="M1330 6670 c0 -5 5 -10 10 -10 6 0 10 5 10 10 0 6 -4 10 -10 10 -5 0
-10 -4 -10 -10z"/>
<path d="M1420 6670 c0 -5 5 -10 10 -10 6 0 10 5 10 10 0 6 -4 10 -10 10 -5 0
-10 -4 -10 -10z"/>
<path d="M1200 6660 c0 -5 5 -10 10 -10 6 0 10 5 10 10 0 6 -4 10 -10 10 -5 0
-10 -4 -10 -10z"/>
<path d="M1235 6660 c-3 -5 -1 -10 4 -10 6 0 11 5 11 10 0 6 -2 10 -4 10 -3 0
-8 -4 -11 -10z"/>
<path d="M4885 6660 c-3 -5 -1 -10 4 -10 6 0 11 5 11 10 0 6 -2 10 -4 10 -3 0
-8 -4 -11 -10z"/>
<path d="M5664 6637 c35 -46 56 -100 56 -143 0 -29 -3 -35 -16 -30 -14 5 -15
1 -10 -21 15 -66 18 -153 6 -183 -7 -16 -14 -30 -17 -30 -15 0 -43 23 -43 36
0 9 -6 14 -12 11 -7 -2 -22 0 -33 5 -17 8 -16 6 3 -9 20 -17 21 -20 7 -39
l-15 -22 -80 40 -81 41 16 26 16 26 -21 -24 c-19 -22 -29 -24 -110 -25 -58 -1
-90 3 -90 10 0 13 60 71 61 58 0 -5 4 1 9 14 16 40 90 23 173 -39 40 -29 39
-28 -8 17 -27 26 -64 53 -81 60 -31 13 -110 8 -120 -7 -17 -27 -86 29 -131
105 -7 12 -12 16 -13 10 0 -7 16 -35 35 -63 l35 -51 -35 0 c-46 0 -101 -23
-114 -48 -9 -16 -6 -23 12 -35 l22 -15 -27 -25 c-32 -30 -40 -59 -30 -107 9
-40 35 -51 52 -21 9 18 7 21 -14 27 -53 13 -36 82 26 108 l31 13 -31 18 c-16
10 -28 24 -25 31 7 20 57 36 104 32 41 -3 44 -5 51 -38 9 -42 2 -70 -17 -70
-8 0 -30 -13 -48 -30 -19 -16 -41 -30 -49 -30 -24 0 -27 -10 -11 -41 19 -39
37 -32 43 16 4 31 12 43 39 59 26 15 36 17 39 7 3 -9 7 -7 16 4 15 21 87 30
141 18 l40 -9 -1 -52 c-2 -64 -21 -94 -81 -133 l-47 -29 32 -6 c34 -7 41 -18
17 -28 -24 -9 -17 -26 10 -26 29 0 75 -21 93 -43 10 -11 4 -17 -31 -32 l-42
-18 63 -9 c60 -8 153 -46 166 -67 4 -5 -9 -14 -28 -21 -41 -13 -94 5 -119 40
l-16 23 -31 -27 c-17 -14 -35 -26 -40 -26 -4 0 -28 16 -52 36 -23 21 -60 45
-81 54 l-38 17 26 17 c39 26 59 79 45 121 -6 18 -19 40 -30 50 -18 17 -21 17
-45 1 -21 -14 -24 -20 -14 -32 18 -22 37 -16 41 14 l3 27 18 -33 c13 -23 16
-43 12 -64 -8 -34 -79 -108 -104 -108 -10 0 -25 -6 -34 -12 -14 -11 -6 -13 51
-13 64 0 73 -3 132 -42 46 -32 58 -44 46 -49 -23 -9 -71 11 -119 48 -32 26
-39 29 -33 13 23 -58 26 -82 15 -123 -14 -51 -19 -55 -53 -42 -31 11 -34 0 -5
-18 16 -10 19 -19 14 -45 -5 -27 -4 -29 6 -13 11 18 12 18 25 -5 32 -57 10
-126 -56 -174 -19 -14 -28 -25 -21 -25 8 0 36 22 62 49 45 45 49 52 49 97 0
30 -7 59 -16 73 l-17 23 49 -6 c79 -11 160 41 179 114 4 18 -1 13 -17 -14 -36
-60 -70 -81 -133 -80 -30 0 -57 3 -61 6 -3 4 2 27 11 52 10 25 15 52 12 61 -8
19 -3 19 35 -1 42 -22 89 -11 128 29 30 31 32 31 46 13 37 -51 111 -70 170
-44 24 11 28 10 55 -22 42 -51 95 -156 113 -225 15 -56 35 -306 24 -295 -3 3
-13 43 -23 90 -21 110 -63 197 -119 248 -44 40 -134 92 -158 92 -7 -1 5 -10
27 -22 95 -50 163 -133 196 -238 26 -82 35 -248 20 -355 -14 -96 -48 -205 -65
-205 -7 0 -21 -6 -31 -14 -18 -13 -15 -14 27 -9 42 5 50 3 78 -25 26 -26 30
-38 30 -82 0 -69 -18 -99 -124 -210 -50 -52 -100 -106 -111 -119 -19 -23 -18
-22 23 4 32 21 60 30 100 33 68 5 105 -8 128 -44 16 -24 16 -29 3 -53 -9 -15
-27 -29 -44 -32 l-30 -7 33 -1 c70 -2 97 76 42 123 -37 30 -84 41 -145 32 -26
-4 -45 -3 -45 2 0 5 21 27 47 48 113 93 152 152 153 233 0 36 -6 49 -36 79
l-36 36 21 69 c13 37 24 94 27 126 2 31 13 97 24 147 11 49 25 153 32 231 26
308 -42 564 -194 726 -38 41 -45 54 -37 69 12 22 28 23 36 2 3 -8 16 -19 29
-24 31 -12 102 -120 135 -205 47 -120 62 -214 62 -385 1 -162 -9 -243 -49
-424 -13 -60 -22 -111 -20 -113 6 -6 63 239 77 332 7 44 12 157 12 250 0 141
-4 183 -21 248 -29 106 -77 200 -132 260 l-46 50 19 36 c15 29 18 49 13 108
-4 48 -2 74 5 79 8 4 10 28 6 66 -4 46 -13 72 -39 109 -18 27 -39 51 -46 54
-7 2 -1 -10 12 -28z m-404 -266 c0 -6 -4 -13 -10 -16 -5 -3 -10 1 -10 9 0 9 5
16 10 16 6 0 10 -4 10 -9z m273 -153 c26 -19 28 -23 14 -26 -10 -2 -26 2 -35
10 -15 12 -16 11 -3 -5 11 -13 23 -17 42 -13 24 4 35 -3 81 -53 106 -114 180
-307 192 -497 l6 -89 -15 69 c-21 99 -42 161 -86 246 -23 44 -39 90 -39 110 0
49 -37 118 -73 136 -19 10 -44 14 -68 11 -33 -4 -41 -1 -58 21 -18 25 -20 25
-27 9 -4 -10 -2 -35 4 -55 6 -19 9 -39 6 -44 -6 -9 -80 0 -107 14 -17 9 -16
11 8 30 37 29 55 70 55 128 l0 50 36 -15 c19 -8 49 -25 67 -37z m78 -169 c42
-45 36 -59 -8 -18 -21 18 -42 37 -47 41 -6 5 -2 8 8 8 10 0 31 -14 47 -31z"/>
<path d="M4855 6650 c-3 -5 -1 -10 4 -10 6 0 11 5 11 10 0 6 -2 10 -4 10 -3 0
-8 -4 -11 -10z"/>
<path d="M1300 6640 c0 -5 5 -10 11 -10 5 0 7 5 4 10 -3 6 -8 10 -11 10 -2 0
-4 -4 -4 -10z"/>
<path d="M1360 6640 c0 -5 5 -10 10 -10 6 0 10 5 10 10 0 6 -4 10 -10 10 -5 0
-10 -4 -10 -10z"/>
<path d="M4820 6640 c0 -5 5 -10 11 -10 5 0 7 5 4 10 -3 6 -8 10 -11 10 -2 0
-4 -4 -4 -10z"/>
<path d="M1190 6619 c0 -5 5 -7 10 -4 6 3 10 8 10 11 0 2 -4 4 -10 4 -5 0 -10
-5 -10 -11z"/>
<path d="M1330 6620 c0 -5 5 -10 10 -10 6 0 10 5 10 10 0 6 -4 10 -10 10 -5 0
-10 -4 -10 -10z"/>
<path d="M4930 6619 c0 -5 5 -7 10 -4 6 3 10 8 10 11 0 2 -4 4 -10 4 -5 0 -10
-5 -10 -11z"/>
<path d="M1265 6610 c3 -5 8 -10 11 -10 2 0 4 5 4 10 0 6 -5 10 -11 10 -5 0
-7 -4 -4 -10z"/>
<path d="M4855 6610 c3 -5 8 -10 11 -10 2 0 4 5 4 10 0 6 -5 10 -11 10 -5 0
-7 -4 -4 -10z"/>
<path d="M4890 6609 c0 -5 5 -7 10 -4 6 3 10 8 10 11 0 2 -4 4 -10 4 -5 0 -10
-5 -10 -11z"/>
<path d="M4815 6600 c-3 -5 -1 -10 4 -10 6 0 11 5 11 10 0 6 -2 10 -4 10 -3 0
-8 -4 -11 -10z"/>
<path d="M4950 6590 c0 -5 5 -10 10 -10 6 0 10 5 10 10 0 6 -4 10 -10 10 -5 0
-10 -4 -10 -10z"/>
<path d="M1205 6580 c3 -5 8 -10 11 -10 2 0 4 5 4 10 0 6 -5 10 -11 10 -5 0
-7 -4 -4 -10z"/>
<path d="M3638 6583 c12 -2 30 -2 40 0 9 3 -1 5 -23 4 -22 0 -30 -2 -17 -4z"/>
<path d="M1066 6555 c22 -13 48 -39 59 -58 26 -48 17 -129 -19 -182 -23 -33
-27 -48 -23 -82 3 -31 1 -43 -9 -43 -22 0 -27 -21 -10 -38 15 -15 17 -15 32
-1 14 14 20 15 57 2 55 -19 100 -10 131 28 30 36 32 47 10 77 -11 15 -25 22
-50 22 -19 0 -34 -4 -34 -10 0 -5 8 -10 18 -10 11 0 27 -9 36 -19 52 -57 -64
-112 -119 -56 -44 43 -28 95 38 126 23 10 54 19 69 19 41 0 105 -29 122 -55
18 -27 21 -60 6 -50 -15 10 -56 -20 -76 -55 -10 -16 -24 -30 -32 -30 -7 0 -10
-4 -7 -10 3 -5 -9 -19 -27 -30 -20 -12 -27 -20 -16 -20 28 0 85 -62 97 -105 5
-22 10 -71 10 -109 0 -37 2 -71 5 -74 3 -3 6 13 6 36 0 33 4 42 22 48 42 13
93 6 152 -20 85 -38 93 -31 12 10 -38 20 -84 36 -102 37 -19 1 -34 3 -34 4 0
1 7 18 16 37 21 43 13 75 -28 122 -31 35 -31 37 -13 50 56 41 73 129 33 179
-56 72 -153 103 -217 71 l-28 -15 5 50 c6 69 -19 123 -73 155 -23 13 -46 24
-51 24 -5 0 9 -11 32 -25z m324 -366 c0 -11 -14 -34 -30 -51 l-30 -30 29 -36
c42 -55 46 -76 21 -127 -12 -25 -26 -45 -31 -45 -5 0 -9 18 -9 40 0 50 -21
103 -49 122 l-22 16 23 35 c13 19 31 49 40 66 20 37 58 43 58 10z"/>
<path d="M1280 6570 c0 -5 5 -10 11 -10 5 0 7 5 4 10 -3 6 -8 10 -11 10 -2 0
-4 -4 -4 -10z"/>
<path d="M4875 6570 c3 -5 8 -10 11 -10 2 0 4 5 4 10 0 6 -5 10 -11 10 -5 0
-7 -4 -4 -10z"/>
<path d="M5064 6566 c-63 -28 -104 -114 -85 -181 11 -40 9 -41 -24 -19 -20 13
-40 15 -112 9 -107 -9 -153 -26 -193 -71 -49 -56 -37 -142 25 -188 18 -13 18
-15 -13 -50 -41 -47 -49 -79 -28 -122 9 -19 16 -36 16 -37 0 -1 -15 -3 -34 -4
-32 -1 -185 -71 -158 -73 7 0 29 8 50 19 78 39 128 43 197 15 16 -6 13 1 -12
33 -62 77 -63 109 -10 176 l30 38 -23 16 c-37 26 -52 75 -37 120 10 30 22 43
60 62 26 13 50 21 53 18 3 -3 -4 -23 -15 -46 -12 -22 -21 -49 -21 -59 0 -19
49 -72 66 -72 6 0 19 -7 30 -15 18 -14 17 -15 -11 -10 -27 6 -28 5 -10 -6 11
-6 28 -19 38 -27 17 -15 16 -17 -7 -41 -37 -39 -49 -101 -41 -208 6 -79 10
-93 26 -98 10 -4 28 -3 40 0 28 9 6 35 -30 35 l-26 1 27 15 c24 13 26 17 15
34 -6 11 -18 18 -26 15 -23 -9 -11 137 15 171 30 40 39 39 53 -7 l12 -41 29
45 c29 46 64 73 88 68 8 -1 19 3 27 9 9 8 14 6 20 -7 6 -17 7 -17 16 -1 5 10
17 14 28 11 24 -6 91 45 91 68 0 9 -7 22 -15 29 -22 18 -39 -1 -30 -31 5 -13
7 -26 6 -29 -3 -8 -45 1 -60 13 -12 10 -13 8 -9 -11 5 -18 4 -21 -6 -13 -8 7
-16 7 -23 0 -7 -7 -14 -5 -23 6 -17 21 -30 19 -30 -5 0 -12 -7 -20 -16 -20 -9
0 -31 -15 -50 -34 -32 -32 -35 -33 -45 -15 -7 15 -6 21 5 25 12 5 8 11 -16 28
-39 26 -39 38 1 48 85 23 95 136 15 189 -24 16 -26 19 -9 19 22 0 78 -31 113
-63 l23 -21 -17 45 c-9 24 -17 70 -17 101 -2 67 18 100 79 135 43 25 36 30
-12 9z m-192 -262 c52 -27 63 -80 23 -119 -31 -32 -58 -32 -75 0 -7 13 -22 27
-32 31 -25 8 -18 26 18 44 l29 15 -39 3 -38 3 23 25 c24 25 37 25 91 -2z m-72
-115 c17 -31 7 -33 -20 -4 -19 20 -20 25 -7 25 9 0 21 -9 27 -21z"/>
<path d="M1150 6559 c0 -5 5 -7 10 -4 6 3 10 8 10 11 0 2 -4 4 -10 4 -5 0 -10
-5 -10 -11z"/>
<path d="M1180 6550 c0 -5 5 -10 10 -10 6 0 10 5 10 10 0 6 -4 10 -10 10 -5 0
-10 -4 -10 -10z"/>
<path d="M4900 6550 c0 -5 5 -10 10 -10 6 0 10 5 10 10 0 6 -4 10 -10 10 -5 0
-10 -4 -10 -10z"/>
<path d="M1150 6529 c0 -5 5 -7 10 -4 6 3 10 8 10 11 0 2 -4 4 -10 4 -5 0 -10
-5 -10 -11z"/>
<path d="M1250 6530 c0 -5 5 -10 11 -10 5 0 7 5 4 10 -3 6 -8 10 -11 10 -2 0
-4 -4 -4 -10z"/>
<path d="M2708 6533 c6 -2 18 -2 25 0 6 3 1 5 -13 5 -14 0 -19 -2 -12 -5z"/>
<path d="M3403 6533 c9 -2 23 -2 30 0 6 3 -1 5 -18 5 -16 0 -22 -2 -12 -5z"/>
<path d="M4970 6529 c0 -5 5 -7 10 -4 6 3 10 8 10 11 0 2 -4 4 -10 4 -5 0 -10
-5 -10 -11z"/>
<path d="M4945 6520 c-3 -5 -1 -10 4 -10 6 0 11 5 11 10 0 6 -2 10 -4 10 -3 0
-8 -4 -11 -10z"/>
<path d="M977 6492 c-9 -15 -28 -40 -42 -56 -25 -27 -29 -28 -83 -22 -126 15
-208 3 -265 -36 -42 -30 -28 -31 28 -3 26 14 57 25 68 25 20 0 20 0 1 -22
l-19 -22 32 22 c38 27 46 28 38 3 -6 -19 -4 -19 44 -6 l51 13 30 -35 c17 -19
33 -48 37 -64 9 -45 22 -44 16 0 -11 77 14 112 52 75 15 -16 14 -18 -15 -37
l-32 -20 30 -13 c37 -15 65 -53 52 -70 -6 -6 -8 -19 -4 -28 3 -9 1 -16 -5 -16
-6 0 -11 5 -11 10 0 20 -27 10 -38 -14 -7 -17 -7 -27 1 -35 16 -16 25 -14 32
10 5 15 10 18 18 10 16 -16 25 -14 43 14 16 25 16 27 -5 46 -11 11 -21 24 -21
30 0 5 -12 22 -27 36 l-28 25 22 15 c27 18 18 45 -23 66 l-26 13 25 30 c27 33
50 74 45 80 -2 2 -12 -9 -21 -24z m-187 -86 c0 -3 -4 -8 -10 -11 -5 -3 -10 -1
-10 4 0 6 5 11 10 11 6 0 10 -2 10 -4z m110 -36 c0 -11 -3 -20 -8 -20 -4 0
-13 9 -20 20 -11 18 -10 20 8 20 13 0 20 -7 20 -20z"/>
<path d="M1190 6490 c0 -5 5 -10 11 -10 5 0 7 5 4 10 -3 6 -8 10 -11 10 -2 0
-4 -4 -4 -10z"/>
<path d="M4930 6490 c0 -5 5 -10 11 -10 5 0 7 5 4 10 -3 6 -8 10 -11 10 -2 0
-4 -4 -4 -10z"/>
<path d="M4891 6464 c-18 -21 -6 -30 14 -11 8 9 15 18 15 21 0 11 -15 5 -29
-10z"/>
<path d="M1181 6444 c-7 -8 -10 -18 -6 -22 3 -3 10 0 15 8 7 12 12 12 28 -3
29 -27 36 -20 8 8 -29 29 -27 29 -45 9z"/>
<path d="M4925 6410 c-3 -5 -1 -10 4 -10 6 0 11 5 11 10 0 6 -2 10 -4 10 -3 0
-8 -4 -11 -10z"/>
<path d="M4950 6390 c0 -5 5 -10 11 -10 5 0 7 5 4 10 -3 6 -8 10 -11 10 -2 0
-4 -4 -4 -10z"/>
<path d="M1025 6140 c-3 -5 -15 -10 -25 -10 -10 0 -20 -5 -22 -11 -3 -9 -9 -9
-24 -1 -15 8 -24 8 -32 0 -8 -8 -19 -6 -39 7 l-28 18 19 -21 c11 -12 25 -22
33 -22 7 0 13 -7 13 -15 0 -18 20 -19 44 -2 20 15 76 11 76 -5 0 -6 -9 -8 -20
-5 -28 7 -33 -7 -11 -27 18 -17 20 -17 31 4 6 12 17 19 23 17 12 -4 13 -8 16
-47 1 -13 8 -20 21 -20 10 0 23 -7 28 -16 8 -14 13 -7 26 33 16 49 40 79 81
101 14 8 15 11 5 12 -26 0 -79 -38 -95 -70 l-16 -31 -30 37 c-16 20 -29 43
-29 50 0 20 -18 17 -24 -3 -3 -10 -4 -6 -2 10 3 27 -7 36 -19 17z"/>
<path d="M1097 6133 c-12 -11 -8 -40 8 -53 13 -11 15 -7 15 24 0 34 -8 44 -23
29z"/>
<path d="M4758 6133 c7 -3 16 -2 19 1 4 3 -2 6 -13 5 -11 0 -14 -3 -6 -6z"/>
<path d="M5090 6065 c0 -21 23 -35 37 -24 21 18 15 34 -12 34 -14 0 -25 -5
-25 -10z"/>
<path d="M943 6053 c-17 -6 -16 -28 0 -42 16 -13 37 4 37 31 0 18 -13 21 -37
11z"/>
<path d="M5027 6053 c-4 -3 -7 -17 -7 -31 0 -19 4 -23 19 -19 14 3 21 -2 25
-19 9 -35 36 -31 36 5 0 32 -24 61 -33 39 -3 -7 -6 -3 -6 10 -1 21 -20 30 -34
15z"/>
<path d="M5150 6051 c0 -5 8 -19 19 -32 l18 -23 13 23 c10 19 10 25 -1 32 -18
11 -49 11 -49 0z"/>
<path d="M1043 6021 c-14 -22 -6 -64 11 -58 14 4 21 56 9 68 -5 5 -14 0 -20
-10z"/>
<path d="M977 6002 c-19 -21 -6 -42 25 -42 18 0 23 16 12 44 -8 21 -17 20 -37
-2z"/>
<path d="M5126 6013 c-10 -10 -7 -53 3 -53 19 0 41 13 41 24 0 14 -35 37 -44
29z"/>
<path d="M5012 5897 c-17 -12 -34 -30 -38 -40 -3 -9 -14 -22 -25 -27 -10 -6
-19 -21 -19 -34 0 -27 -20 -47 -62 -61 -36 -12 -38 -29 -4 -33 16 -2 28 3 35
16 13 24 68 35 76 14 3 -10 0 -12 -10 -8 -21 8 -45 -3 -45 -20 0 -9 11 -14 33
-14 29 0 34 -5 54 -50 24 -56 70 -91 118 -89 l30 1 -30 7 c-47 12 -72 28 -93
63 -32 53 -36 78 -17 92 21 15 12 58 -11 49 -8 -3 -14 1 -14 11 0 16 22 13 47
-7 9 -7 15 -2 22 14 12 32 6 39 -32 40 -29 0 -30 1 -9 9 24 10 29 25 11 35 -7
5 -4 14 7 26 25 28 12 32 -24 6z"/>
<path d="M1095 5900 c3 -5 -1 -10 -9 -10 -20 0 -20 -9 0 -31 9 -10 22 -15 30
-12 11 4 13 -4 11 -36 -2 -23 0 -41 5 -41 4 0 8 -12 8 -27 0 -87 -57 -170
-126 -183 l-39 -8 36 -1 c23 -1 46 7 63 20 42 33 44 13 2 -23 -94 -82 -106
-96 -99 -115 7 -17 8 -17 11 2 6 29 19 42 73 72 27 14 49 31 49 36 0 6 14 -3
31 -21 17 -17 47 -36 67 -42 43 -12 129 -12 187 -1 30 5 16 7 -55 7 -115 0
-174 22 -207 80 l-21 37 22 48 c16 37 26 49 44 49 28 0 29 26 1 35 -11 4 -18
9 -16 11 10 11 123 -38 151 -65 17 -16 49 -38 71 -49 46 -23 80 -57 90 -90 4
-13 9 -21 11 -19 9 9 -25 77 -50 101 l-26 23 49 6 c105 12 192 82 190 152 l-1
30 -8 -32 c-19 -83 -89 -127 -200 -127 -61 0 -77 5 -140 44 -8 5 -27 11 -42
14 -20 5 -25 10 -21 26 4 15 0 20 -15 20 -12 0 -24 5 -28 11 -4 8 0 9 15 4 28
-9 40 20 17 43 -15 15 -17 15 -29 -2 -9 -12 -16 -15 -20 -9 -4 6 0 16 8 23 19
16 10 30 -18 30 -12 0 -31 7 -41 15 -23 17 -40 20 -31 5z"/>
<path d="M4910 5876 c0 -22 26 -39 37 -24 25 33 24 38 -6 38 -20 0 -31 -5 -31
-14z"/>
<path d="M1014 5866 c-15 -12 -16 -17 -7 -27 17 -18 65 4 57 26 -8 19 -25 19
-50 1z"/>
<path d="M4846 5871 c-6 -9 30 -41 47 -41 5 0 7 10 5 23 -3 23 -41 37 -52 18z"/>
<path d="M1070 5813 c0 -11 -6 -25 -12 -32 -11 -11 -9 -13 12 -7 14 3 29 6 33
6 5 0 7 10 5 22 -4 28 -38 38 -38 11z"/>
<path d="M4391 5805 c-2 -71 82 -137 197 -154 45 -7 46 -7 24 -20 -23 -12 -69
-97 -59 -108 3 -2 8 6 12 19 11 34 44 67 96 93 43 22 105 82 96 92 -3 2 -21
-7 -41 -21 -47 -32 -113 -42 -173 -27 -90 23 -127 55 -143 124 l-8 32 -1 -30z"/>
<path d="M977 5813 c-3 -4 -1 -18 4 -30 8 -21 9 -21 39 -7 17 9 29 21 27 27
-4 14 -63 22 -70 10z"/>
<path d="M4882 5808 c-8 -8 -9 -15 -1 -25 18 -21 34 -15 34 12 0 27 -14 32
-33 13z"/>
<path d="M1015 5749 c-8 -25 7 -44 29 -36 22 9 20 34 -3 47 -16 8 -21 6 -26
-11z"/>
<path d="M1082 5763 c-6 -3 -10 -9 -6 -14 7 -12 41 -12 48 0 7 10 -23 20 -42
14z"/>
<path d="M1072 5718 c-19 -19 -14 -28 18 -28 32 0 42 23 14 34 -20 8 -18 8
-32 -6z"/>
<path d="M562 5659 c-112 -56 -192 -224 -192 -405 0 -159 33 -299 137 -582 41
-114 82 -227 89 -252 l14 -45 -6 59 c-3 33 -16 114 -29 181 -50 258 -57 501
-21 651 31 125 92 226 157 260 43 22 42 18 -4 -28 -85 -86 -132 -217 -144
-401 -7 -120 9 -265 58 -517 23 -115 44 -260 49 -330 l9 -125 -4 140 c-2 99
-11 178 -29 270 -48 246 -58 326 -58 485 0 246 42 387 144 482 49 47 50 48 21
44 -51 -6 -112 -47 -147 -101 -75 -113 -102 -255 -93 -477 4 -84 2 -138 -4
-138 -5 0 -9 -4 -9 -10 0 -5 7 -7 15 -4 11 5 15 -1 15 -22 0 -16 11 -83 25
-149 13 -66 24 -124 24 -130 0 -5 -16 35 -35 89 -26 77 -31 102 -21 109 8 6 7
7 -4 4 -13 -4 -23 17 -52 111 -50 160 -63 222 -47 232 8 5 7 9 -5 14 -16 6
-17 22 -13 164 4 128 9 169 27 223 31 91 83 158 150 192 30 15 48 27 40 27 -8
0 -33 -10 -57 -21z"/>
<path d="M5455 5656 c127 -60 184 -199 185 -449 0 -107 -3 -129 -16 -134 -11
-4 -12 -8 -4 -13 16 -10 3 -72 -47 -232 -29 -94 -39 -115 -52 -111 -11 3 -12
2 -4 -4 10 -7 5 -32 -21 -109 -19 -54 -35 -94 -35 -89 0 6 11 64 24 130 14 66
25 133 25 149 0 21 4 27 15 22 8 -3 15 -1 15 4 0 6 -4 10 -10 10 -6 0 -7 50
-3 138 10 222 -18 364 -93 477 -39 59 -87 94 -139 100 l-37 5 50 -47 c155
-148 186 -436 97 -908 -28 -147 -37 -222 -40 -330 l-4 -140 9 125 c5 70 26
215 49 330 49 252 65 397 58 517 -12 184 -59 315 -144 401 -23 23 -40 42 -37
42 17 0 66 -34 94 -66 125 -143 153 -456 76 -857 -13 -68 -27 -150 -30 -183
l-6 -59 14 45 c7 25 48 138 89 252 104 283 137 423 137 582 0 184 -80 350
-194 405 -23 12 -49 21 -57 21 -8 0 9 -11 36 -24z"/>
<path d="M600 5640 c0 -5 5 -10 10 -10 6 0 10 5 10 10 0 6 -4 10 -10 10 -5 0
-10 -4 -10 -10z"/>
<path d="M805 5640 c-3 -5 -1 -10 4 -10 6 0 11 5 11 10 0 6 -2 10 -4 10 -3 0
-8 -4 -11 -10z"/>
<path d="M5220 5640 c0 -5 5 -10 11 -10 5 0 7 5 4 10 -3 6 -8 10 -11 10 -2 0
-4 -4 -4 -10z"/>
<path d="M5420 5640 c0 -5 5 -10 10 -10 6 0 10 5 10 10 0 6 -4 10 -10 10 -5 0
-10 -4 -10 -10z"/>
<path d="M675 5630 c-3 -5 -1 -10 4 -10 6 0 11 5 11 10 0 6 -2 10 -4 10 -3 0
-8 -4 -11 -10z"/>
<path d="M5350 5630 c0 -5 5 -10 11 -10 5 0 7 5 4 10 -3 6 -8 10 -11 10 -2 0
-4 -4 -4 -10z"/>
<path d="M785 5610 c3 -5 8 -10 11 -10 2 0 4 5 4 10 0 6 -5 10 -11 10 -5 0 -7
-4 -4 -10z"/>
<path d="M5240 5609 c0 -5 5 -7 10 -4 6 3 10 8 10 11 0 2 -4 4 -10 4 -5 0 -10
-5 -10 -11z"/>
<path d="M610 5599 c0 -5 5 -7 10 -4 6 3 10 8 10 11 0 2 -4 4 -10 4 -5 0 -10
-5 -10 -11z"/>
<path d="M640 5590 c0 -5 5 -10 10 -10 6 0 10 5 10 10 0 6 -4 10 -10 10 -5 0
-10 -4 -10 -10z"/>
<path d="M720 5594 c0 -3 7 -12 16 -21 14 -14 16 -14 29 3 7 11 11 21 9 24 -3
2 -10 -2 -15 -10 -8 -11 -12 -12 -16 -2 -5 12 -23 17 -23 6z"/>
<path d="M4905 5565 c-30 -56 -90 -79 -205 -79 -82 1 -89 0 -50 -8 25 -5 78
-7 118 -4 74 5 114 21 140 58 13 18 14 18 40 -2 15 -12 43 -31 62 -43 19 -12
37 -33 40 -47 5 -20 7 -22 12 -8 9 21 -21 60 -68 89 -20 12 -44 34 -53 50
l-17 28 -19 -34z"/>
<path d="M5291 5584 c-18 -21 -6 -30 14 -11 8 9 15 18 15 21 0 11 -15 5 -29
-10z"/>
<path d="M5380 5590 c0 -5 5 -10 10 -10 6 0 10 5 10 10 0 6 -4 10 -10 10 -5 0
-10 -4 -10 -10z"/>
<path d="M580 5580 c0 -5 5 -10 11 -10 5 0 7 5 4 10 -3 6 -8 10 -11 10 -2 0
-4 -4 -4 -10z"/>
<path d="M5445 5580 c-3 -5 -1 -10 4 -10 6 0 11 5 11 10 0 6 -2 10 -4 10 -3 0
-8 -4 -11 -10z"/>
<path d="M535 5570 c3 -5 8 -10 11 -10 2 0 4 5 4 10 0 6 -5 10 -11 10 -5 0 -7
-4 -4 -10z"/>
<path d="M5490 5569 c0 -5 5 -7 10 -4 6 3 10 8 10 11 0 2 -4 4 -10 4 -5 0 -10
-5 -10 -11z"/>
<path d="M620 5560 c0 -5 5 -10 10 -10 6 0 10 5 10 10 0 6 -4 10 -10 10 -5 0
-10 -4 -10 -10z"/>
<path d="M5405 5560 c3 -5 8 -10 11 -10 2 0 4 5 4 10 0 6 -5 10 -11 10 -5 0
-7 -4 -4 -10z"/>
<path d="M480 5540 c0 -5 5 -10 10 -10 6 0 10 5 10 10 0 6 -4 10 -10 10 -5 0
-10 -4 -10 -10z"/>
<path d="M515 5540 c3 -5 8 -10 11 -10 2 0 4 5 4 10 0 6 -5 10 -11 10 -5 0 -7
-4 -4 -10z"/>
<path d="M545 5540 c3 -5 8 -10 11 -10 2 0 4 5 4 10 0 6 -5 10 -11 10 -5 0 -7
-4 -4 -10z"/>
<path d="M580 5539 c0 -5 5 -7 10 -4 6 3 10 8 10 11 0 2 -4 4 -10 4 -5 0 -10
-5 -10 -11z"/>
<path d="M5445 5540 c3 -5 8 -10 11 -10 2 0 4 5 4 10 0 6 -5 10 -11 10 -5 0
-7 -4 -4 -10z"/>
<path d="M5480 5539 c0 -5 5 -7 10 -4 6 3 10 8 10 11 0 2 -4 4 -10 4 -5 0 -10
-5 -10 -11z"/>
<path d="M5510 5539 c0 -5 5 -7 10 -4 6 3 10 8 10 11 0 2 -4 4 -10 4 -5 0 -10
-5 -10 -11z"/>
<path d="M5540 5540 c0 -5 5 -10 10 -10 6 0 10 5 10 10 0 6 -4 10 -10 10 -5 0
-10 -4 -10 -10z"/>
<path d="M625 5530 c-3 -5 -1 -10 4 -10 6 0 11 5 11 10 0 6 -2 10 -4 10 -3 0
-8 -4 -11 -10z"/>
<path d="M5400 5530 c0 -5 5 -10 11 -10 5 0 7 5 4 10 -3 6 -8 10 -11 10 -2 0
-4 -4 -4 -10z"/>
<path d="M510 5510 c0 -5 5 -10 10 -10 6 0 10 5 10 10 0 6 -4 10 -10 10 -5 0
-10 -4 -10 -10z"/>
<path d="M5510 5510 c0 -5 5 -10 10 -10 6 0 10 5 10 10 0 6 -4 10 -10 10 -5 0
-10 -4 -10 -10z"/>
<path d="M590 5500 c0 -5 5 -10 10 -10 6 0 10 5 10 10 0 6 -4 10 -10 10 -5 0
-10 -4 -10 -10z"/>
<path d="M5430 5500 c0 -5 5 -10 10 -10 6 0 10 5 10 10 0 6 -4 10 -10 10 -5 0
-10 -4 -10 -10z"/>
<path d="M480 5490 c0 -5 5 -10 10 -10 6 0 10 5 10 10 0 6 -4 10 -10 10 -5 0
-10 -4 -10 -10z"/>
<path d="M5540 5490 c0 -5 5 -10 10 -10 6 0 10 5 10 10 0 6 -4 10 -10 10 -5 0
-10 -4 -10 -10z"/>
<path d="M450 5469 c0 -5 5 -7 10 -4 6 3 10 8 10 11 0 2 -4 4 -10 4 -5 0 -10
-5 -10 -11z"/>
<path d="M5575 5470 c3 -5 8 -10 11 -10 2 0 4 5 4 10 0 6 -5 10 -11 10 -5 0
-7 -4 -4 -10z"/>
<path d="M515 5440 c3 -5 8 -10 11 -10 2 0 4 5 4 10 0 6 -5 10 -11 10 -5 0 -7
-4 -4 -10z"/>
<path d="M5510 5439 c0 -5 5 -7 10 -4 6 3 10 8 10 11 0 2 -4 4 -10 4 -5 0 -10
-5 -10 -11z"/>
<path d="M485 5410 c3 -5 8 -10 11 -10 2 0 4 5 4 10 0 6 -5 10 -11 10 -5 0 -7
-4 -4 -10z"/>
<path d="M5540 5409 c0 -5 5 -7 10 -4 6 3 10 8 10 11 0 2 -4 4 -10 4 -5 0 -10
-5 -10 -11z"/>
<path d="M480 5380 c0 -5 5 -10 10 -10 6 0 10 5 10 10 0 6 -4 10 -10 10 -5 0
-10 -4 -10 -10z"/>
<path d="M5540 5380 c0 -5 5 -10 10 -10 6 0 10 5 10 10 0 6 -4 10 -10 10 -5 0
-10 -4 -10 -10z"/>
<path d="M450 5349 c0 -5 5 -7 10 -4 6 3 10 8 10 11 0 2 -4 4 -10 4 -5 0 -10
-5 -10 -11z"/>
<path d="M510 5350 c0 -5 5 -10 10 -10 6 0 10 5 10 10 0 6 -4 10 -10 10 -5 0
-10 -4 -10 -10z"/>
<path d="M5510 5350 c0 -5 5 -10 10 -10 6 0 10 5 10 10 0 6 -4 10 -10 10 -5 0
-10 -4 -10 -10z"/>
<path d="M5575 5350 c3 -5 8 -10 11 -10 2 0 4 5 4 10 0 6 -5 10 -11 10 -5 0
-7 -4 -4 -10z"/>
<path d="M475 5330 c3 -5 8 -10 11 -10 2 0 4 5 4 10 0 6 -5 10 -11 10 -5 0 -7
-4 -4 -10z"/>
<path d="M5550 5329 c0 -5 5 -7 10 -4 6 3 10 8 10 11 0 2 -4 4 -10 4 -5 0 -10
-5 -10 -11z"/>
<path d="M450 5309 c0 -5 5 -7 10 -4 6 3 10 8 10 11 0 2 -4 4 -10 4 -5 0 -10
-5 -10 -11z"/>
<path d="M475 5290 c-3 -5 -1 -10 4 -10 6 0 11 5 11 10 0 6 -2 10 -4 10 -3 0
-8 -4 -11 -10z"/>
<path d="M5550 5290 c0 -5 5 -10 11 -10 5 0 7 5 4 10 -3 6 -8 10 -11 10 -2 0
-4 -4 -4 -10z"/>
<path d="M440 5280 c0 -5 5 -10 11 -10 5 0 7 5 4 10 -3 6 -8 10 -11 10 -2 0
-4 -4 -4 -10z"/>
<path d="M5585 5280 c-3 -5 -1 -10 4 -10 6 0 11 5 11 10 0 6 -2 10 -4 10 -3 0
-8 -4 -11 -10z"/>
<path d="M410 5259 c0 -5 5 -7 10 -4 6 3 10 8 10 11 0 2 -4 4 -10 4 -5 0 -10
-5 -10 -11z"/>
<path d="M5540 5260 c0 -5 5 -10 11 -10 5 0 7 5 4 10 -3 6 -8 10 -11 10 -2 0
-4 -4 -4 -10z"/>
<path d="M5615 5260 c3 -5 8 -10 11 -10 2 0 4 5 4 10 0 6 -5 10 -11 10 -5 0
-7 -4 -4 -10z"/>
<path d="M410 5230 c0 -5 5 -10 11 -10 5 0 7 5 4 10 -3 6 -8 10 -11 10 -2 0
-4 -4 -4 -10z"/>
<path d="M5615 5230 c-3 -5 -1 -10 4 -10 6 0 11 5 11 10 0 6 -2 10 -4 10 -3 0
-8 -4 -11 -10z"/>
<path d="M480 5220 c0 -5 5 -10 10 -10 6 0 10 5 10 10 0 6 -4 10 -10 10 -5 0
-10 -4 -10 -10z"/>
<path d="M5540 5220 c0 -5 5 -10 10 -10 6 0 10 5 10 10 0 6 -4 10 -10 10 -5 0
-10 -4 -10 -10z"/>
<path d="M450 5210 c0 -5 5 -10 10 -10 6 0 10 5 10 10 0 6 -4 10 -10 10 -5 0
-10 -4 -10 -10z"/>
<path d="M5570 5210 c0 -5 5 -10 10 -10 6 0 10 5 10 10 0 6 -4 10 -10 10 -5 0
-10 -4 -10 -10z"/>
<path d="M420 5200 c0 -5 5 -10 11 -10 5 0 7 5 4 10 -3 6 -8 10 -11 10 -2 0
-4 -4 -4 -10z"/>
<path d="M5605 5200 c-3 -5 -1 -10 4 -10 6 0 11 5 11 10 0 6 -2 10 -4 10 -3 0
-8 -4 -11 -10z"/>
<path d="M480 5180 c0 -5 5 -10 10 -10 6 0 10 5 10 10 0 6 -4 10 -10 10 -5 0
-10 -4 -10 -10z"/>
<path d="M5540 5179 c0 -5 5 -7 10 -4 6 3 10 8 10 11 0 2 -4 4 -10 4 -5 0 -10
-5 -10 -11z"/>
<path d="M410 5170 c0 -5 5 -10 10 -10 6 0 10 5 10 10 0 6 -4 10 -10 10 -5 0
-10 -4 -10 -10z"/>
<path d="M5610 5169 c0 -5 5 -7 10 -4 6 3 10 8 10 11 0 2 -4 4 -10 4 -5 0 -10
-5 -10 -11z"/>
<path d="M410 5140 c0 -5 5 -10 10 -10 6 0 10 5 10 10 0 6 -4 10 -10 10 -5 0
-10 -4 -10 -10z"/>
<path d="M5610 5140 c0 -5 5 -10 10 -10 6 0 10 5 10 10 0 6 -4 10 -10 10 -5 0
-10 -4 -10 -10z"/>
<path d="M415 5100 c3 -5 8 -10 11 -10 2 0 4 5 4 10 0 6 -5 10 -11 10 -5 0 -7
-4 -4 -10z"/>
<path d="M480 5099 c0 -5 5 -7 10 -4 6 3 10 8 10 11 0 2 -4 4 -10 4 -5 0 -10
-5 -10 -11z"/>
<path d="M475 5060 c-3 -5 -1 -10 4 -10 6 0 11 5 11 10 0 6 -2 10 -4 10 -3 0
-8 -4 -11 -10z"/>
<path d="M5550 5060 c0 -5 5 -10 11 -10 5 0 7 5 4 10 -3 6 -8 10 -11 10 -2 0
-4 -4 -4 -10z"/>
<path d="M475 5030 c-3 -5 -1 -10 4 -10 6 0 11 5 11 10 0 6 -2 10 -4 10 -3 0
-8 -4 -11 -10z"/>
<path d="M5550 5030 c0 -5 5 -10 11 -10 5 0 7 5 4 10 -3 6 -8 10 -11 10 -2 0
-4 -4 -4 -10z"/>
<path d="M430 5022 c0 -4 9 -13 20 -20 11 -7 20 -9 20 -4 0 4 -9 13 -20 20
-11 7 -20 9 -20 4z"/>
<path d="M5586 5014 c-11 -8 -16 -14 -10 -14 13 0 39 18 34 24 -3 2 -14 -2
-24 -10z"/>
<path d="M445 4970 c3 -5 8 -10 11 -10 2 0 4 5 4 10 0 6 -5 10 -11 10 -5 0 -7
-4 -4 -10z"/>
<path d="M5580 4969 c0 -5 5 -7 10 -4 6 3 10 8 10 11 0 2 -4 4 -10 4 -5 0 -10
-5 -10 -11z"/>
<path d="M5545 4960 c-3 -5 -1 -10 4 -10 6 0 11 5 11 10 0 6 -2 10 -4 10 -3 0
-8 -4 -11 -10z"/>
<path d="M450 4940 c0 -5 5 -10 11 -10 5 0 7 5 4 10 -3 6 -8 10 -11 10 -2 0
-4 -4 -4 -10z"/>
<path d="M5575 4940 c-3 -5 -1 -10 4 -10 6 0 11 5 11 10 0 6 -2 10 -4 10 -3 0
-8 -4 -11 -10z"/>
<path d="M455 4910 c-3 -5 -1 -10 4 -10 6 0 11 5 11 10 0 6 -2 10 -4 10 -3 0
-8 -4 -11 -10z"/>
<path d="M5570 4910 c0 -5 5 -10 11 -10 5 0 7 5 4 10 -3 6 -8 10 -11 10 -2 0
-4 -4 -4 -10z"/>
<path d="M470 4890 c-8 -5 -11 -12 -8 -16 4 -3 14 1 23 10 18 17 9 21 -15 6z"/>
<path d="M5555 4884 c9 -9 19 -13 23 -10 3 4 0 11 -8 16 -24 15 -33 11 -15 -6z"/>
<path d="M495 4870 c-3 -5 -1 -10 4 -10 6 0 11 5 11 10 0 6 -2 10 -4 10 -3 0
-8 -4 -11 -10z"/>
<path d="M5530 4870 c0 -5 5 -10 10 -10 6 0 10 5 10 10 0 6 -4 10 -10 10 -5 0
-10 -4 -10 -10z"/>
<path d="M5545 4840 c3 -5 8 -10 11 -10 2 0 4 5 4 10 0 6 -5 10 -11 10 -5 0
-7 -4 -4 -10z"/>
<path d="M343 4810 c-49 -20 -58 -98 -19 -164 13 -23 58 -73 99 -112 114 -107
165 -200 186 -336 l10 -63 -3 65 c-4 80 -33 164 -85 244 -21 34 -42 74 -45 89
-4 15 -29 80 -57 144 -27 65 -47 123 -45 130 6 15 -9 16 -41 3z m-3 -44 c0 -3
14 -42 31 -88 l30 -83 -26 25 c-15 14 -33 37 -41 52 -16 31 -19 98 -4 98 6 0
10 -2 10 -4z"/>
<path d="M5654 4811 c4 -6 -18 -71 -48 -145 -31 -73 -56 -139 -56 -147 0 -7
-18 -40 -40 -74 -52 -80 -81 -164 -86 -245 l-3 -65 9 60 c22 139 68 223 182
335 47 47 95 101 107 120 26 43 28 110 4 138 -20 23 -81 44 -69 23z m66 -76
c0 -43 -18 -81 -55 -115 l-26 -25 30 83 c17 46 31 85 31 88 0 2 5 4 10 4 6 0
10 -16 10 -35z"/>
<path d="M500 4770 c0 -5 5 -10 10 -10 6 0 10 5 10 10 0 6 -4 10 -10 10 -5 0
-10 -4 -10 -10z"/>
<path d="M5520 4770 c0 -5 5 -10 10 -10 6 0 10 5 10 10 0 6 -4 10 -10 10 -5 0
-10 -4 -10 -10z"/>
<path d="M118 4399 c-96 -50 -82 -169 25 -214 104 -43 218 -24 284 48 22 24
42 50 45 57 16 48 66 -82 73 -188 4 -61 3 -72 -5 -52 -28 64 -99 105 -173 97
-26 -2 -55 -11 -64 -20 -14 -13 -13 -18 7 -44 17 -24 20 -37 14 -67 l-7 -37
-31 30 c-17 16 -44 35 -59 40 -40 16 -112 13 -154 -4 l-36 -15 22 -24 c12 -13
29 -45 37 -72 14 -48 39 -84 57 -84 6 0 1 10 -10 23 -11 12 -23 42 -26 67 -4
33 -13 51 -33 67 l-27 21 47 7 c112 17 192 -18 214 -94 7 -22 17 -43 22 -46 6
-4 5 6 -2 20 -9 20 -9 36 0 71 19 69 16 93 -13 106 -29 13 -32 23 -9 32 32 12
96 5 135 -14 82 -42 102 -134 52 -236 -28 -58 -34 -62 -53 -39 -20 24 -43 18
-82 -25 -50 -53 -50 -81 2 -131 45 -44 49 -45 76 -23 19 15 19 15 -1 5 -25
-12 -55 3 -55 29 0 11 -7 20 -15 20 -16 0 -31 43 -20 59 3 6 12 11 20 11 7 0
15 10 17 21 2 12 11 27 21 33 15 9 22 7 37 -12 l19 -22 26 34 c61 80 85 200
66 324 -23 147 -92 232 -190 232 -50 0 -91 -36 -61 -55 5 -3 7 0 4 9 -8 21 32
39 72 32 45 -9 48 -18 24 -66 -24 -48 -81 -80 -140 -80 -103 0 -158 77 -115
160 18 35 13 36 -37 9z"/>
<path d="M5885 4390 c43 -83 -12 -160 -115 -160 -57 0 -117 35 -141 83 -23 45
-19 54 25 63 40 7 80 -11 72 -32 -3 -9 -1 -12 4 -9 31 19 -11 55 -63 55 -116
0 -188 -116 -191 -305 -1 -113 16 -177 65 -245 l30 -41 19 23 c15 19 22 21 37
12 10 -6 19 -21 21 -33 2 -11 10 -21 17 -21 8 0 17 -5 20 -11 11 -16 -4 -59
-19 -59 -8 0 -16 -10 -18 -22 -2 -19 -9 -23 -36 -23 -29 0 -31 -1 -15 -12 24
-19 29 -17 73 26 52 50 52 78 3 131 -40 43 -63 49 -83 25 -19 -23 -25 -19 -53
39 -65 132 -2 256 130 256 72 0 94 -17 48 -38 -29 -13 -32 -37 -13 -106 9 -35
9 -51 0 -71 -7 -14 -8 -24 -2 -20 5 3 15 24 22 46 22 76 102 111 212 95 l46
-7 -27 -23 c-20 -17 -28 -36 -32 -71 -7 -57 -35 -83 -102 -93 -43 -6 -42 -7
27 -12 58 -5 81 -12 123 -39 l52 -34 -33 -20 c-18 -11 -46 -30 -61 -43 -31
-26 -102 -33 -139 -13 -13 7 -18 7 -14 1 3 -6 30 -18 60 -26 65 -19 77 -32 87
-99 6 -38 15 -58 35 -74 l27 -21 -65 -7 c-103 -11 -170 19 -189 86 -7 21 -19
44 -26 51 -12 10 -12 7 -2 -16 10 -21 10 -37 1 -72 -17 -64 -15 -80 15 -104
22 -17 25 -23 13 -30 -23 -15 -98 -12 -129 4 -15 8 -43 32 -61 52 -30 35 -32
41 -28 100 3 48 11 74 36 116 l32 53 -30 -35 c-63 -72 -92 -204 -71 -326 25
-144 86 -223 179 -232 39 -3 50 0 66 17 16 17 17 24 7 34 -7 6 -12 8 -11 2 7
-36 -21 -49 -76 -34 -30 9 -34 13 -28 32 21 68 79 107 159 107 105 0 155 -73
110 -160 l-15 -29 30 10 c41 15 90 73 90 108 0 39 -38 90 -85 115 -31 16 -58
21 -120 21 -70 0 -86 -4 -127 -28 -29 -17 -57 -44 -70 -67 -13 -22 -26 -40
-29 -40 -23 0 -69 156 -69 233 l0 42 17 -34 c33 -66 126 -105 197 -81 47 15
51 24 26 58 -17 23 -20 37 -15 66 l7 36 33 -29 c59 -52 139 -63 219 -32 l29
12 -22 23 c-12 13 -29 48 -36 77 -8 30 -24 62 -36 72 -25 20 -25 19 17 36 18
7 44 26 60 42 15 16 34 29 41 29 42 0 -30 67 -97 90 l-51 17 26 17 c16 11 29
32 36 62 7 25 23 59 36 75 l25 29 -36 15 c-41 18 -113 20 -153 4 -15 -5 -42
-24 -59 -40 l-31 -30 -7 37 c-6 30 -3 43 14 67 21 27 21 30 6 46 -12 11 -35
16 -80 16 -54 0 -68 -4 -100 -29 -21 -16 -45 -43 -53 -60 -13 -30 -14 -27 -9
44 6 105 59 239 74 189 3 -8 26 -35 52 -61 38 -36 60 -49 103 -59 66 -14 149
-2 202 31 32 20 65 72 65 105 0 32 -31 75 -70 95 -51 26 -53 25 -35 -10z"/>
<path d="M613 4335 c0 -22 2 -30 4 -17 2 12 2 30 0 40 -3 9 -5 -1 -4 -23z"/>
<path d="M5423 4335 c0 -22 2 -30 4 -17 2 12 2 30 0 40 -3 9 -5 -1 -4 -23z"/>
<path d="M662 4095 c0 -16 2 -22 5 -12 2 9 2 23 0 30 -3 6 -5 -1 -5 -18z"/>
<path d="M5372 4095 c0 -16 2 -22 5 -12 2 9 2 23 0 30 -3 6 -5 -1 -5 -18z"/>
<path d="M651 4044 c0 -11 3 -14 6 -6 3 7 2 16 -1 19 -3 4 -6 -2 -5 -13z"/>
<path d="M111 3831 c-56 -20 -126 -79 -103 -88 7 -3 31 -20 53 -39 23 -19 52
-37 65 -40 29 -7 30 -11 4 -32 -11 -10 -27 -41 -35 -71 -7 -29 -24 -64 -36
-77 l-22 -23 29 -12 c80 -31 160 -20 219 32 l33 29 7 -36 c5 -29 2 -43 -15
-66 -25 -34 -21 -43 26 -58 71 -24 164 15 197 81 l17 34 0 -42 c0 -77 -46
-233 -69 -233 -3 0 -16 18 -29 40 -13 23 -41 50 -70 67 -41 24 -57 28 -127 28
-62 0 -89 -5 -120 -21 -47 -25 -85 -76 -85 -115 0 -35 49 -93 90 -108 l30 -10
-15 29 c-17 34 -19 83 -5 111 38 69 197 63 249 -10 35 -50 35 -68 0 -80 -51
-18 -86 -2 -79 34 1 6 -4 4 -11 -2 -10 -10 -9 -17 7 -34 16 -17 27 -20 66 -17
93 9 154 88 179 232 21 122 -8 254 -71 326 l-30 35 32 -53 c25 -42 33 -68 36
-116 4 -59 2 -65 -28 -100 -18 -20 -46 -44 -61 -52 -31 -16 -106 -19 -129 -4
-12 7 -9 13 13 30 30 24 32 40 15 104 -9 35 -9 51 1 72 11 24 10 26 -3 15 -8
-7 -18 -27 -21 -44 -15 -70 -85 -104 -191 -92 l-67 7 27 21 c20 17 29 36 35
76 10 62 31 84 98 100 23 6 45 16 49 22 5 8 1 8 -14 0 -37 -20 -108 -13 -139
13 -15 13 -43 32 -61 43 l-33 20 52 33 c39 26 67 35 118 40 36 4 59 8 50 9 -9
0 -29 3 -45 6 -16 3 -53 -3 -83 -14z"/>
<path d="M662 3395 c0 -16 2 -22 5 -12 2 9 2 23 0 30 -3 6 -5 -1 -5 -18z"/>
<path d="M5372 3395 c0 -16 2 -22 5 -12 2 9 2 23 0 30 -3 6 -5 -1 -5 -18z"/>
<path d="M612 3325 c-3 -58 -28 -147 -58 -207 -16 -31 -71 -98 -133 -163 -82
-85 -110 -120 -117 -150 -17 -65 10 -125 55 -125 16 0 75 129 121 264 11 32
36 84 56 114 49 73 86 190 81 256 -3 46 -3 47 -5 11z m-239 -502 c-14 -38 -28
-76 -30 -85 -9 -32 -23 -19 -23 20 1 37 9 57 45 105 33 44 36 31 8 -40z"/>
<path d="M667 3238 c-4 -81 -20 -193 -46 -328 -50 -255 -65 -397 -57 -521 11
-175 59 -307 141 -392 40 -41 36 -47 -12 -17 -142 86 -200 437 -134 810 12 63
27 151 35 195 8 44 17 109 20 145 l6 65 -14 -70 c-8 -38 -50 -169 -94 -290
-118 -324 -150 -469 -139 -639 10 -156 73 -288 164 -346 64 -41 77 -38 17 2
-54 36 -104 111 -131 193 -10 33 -17 104 -20 207 -5 142 -4 158 12 164 13 5
14 9 4 15 -16 9 -5 64 47 231 30 93 40 115 53 111 12 -4 13 -3 3 5 -11 7 -6
29 22 108 19 54 35 95 35 91 1 -4 -10 -63 -23 -130 -51 -253 -59 -500 -20
-641 38 -142 129 -257 200 -254 10 0 28 -3 39 -7 11 -4 1 7 -22 24 -23 18 -58
58 -78 89 -105 167 -117 439 -39 843 25 131 37 223 41 322 3 75 4 137 1 137
-3 0 -8 -55 -11 -122z"/>
<path d="M5365 3225 c2 -109 11 -181 39 -324 61 -314 66 -561 16 -723 -24 -80
-85 -174 -137 -212 -21 -16 -29 -25 -18 -21 11 4 29 7 39 7 27 -1 66 21 102
60 130 137 158 438 78 835 -13 67 -24 126 -23 130 1 19 130 -361 150 -445 19
-75 21 -95 10 -101 -10 -6 -9 -10 3 -14 13 -5 16 -26 16 -124 0 -149 -13 -232
-49 -308 -37 -81 -72 -119 -134 -150 -29 -14 -41 -23 -27 -20 50 13 116 62
152 114 97 139 113 343 46 606 -11 44 -56 179 -100 300 -44 121 -86 252 -94
290 l-14 70 6 -65 c3 -36 12 -101 20 -145 8 -44 23 -132 35 -195 66 -373 8
-724 -134 -810 -49 -30 -54 -24 -13 17 83 83 131 215 142 392 8 123 -7 266
-57 521 -22 113 -44 261 -49 330 l-9 125 4 -140z"/>
<path d="M5421 3313 c-1 -69 36 -185 83 -255 20 -30 45 -82 56 -114 50 -144
105 -264 123 -264 47 0 73 78 47 145 -6 15 -57 75 -114 135 -130 135 -167 203
-185 342 l-8 63 -2 -52z m253 -450 c36 -45 45 -67 46 -105 0 -39 -14 -52 -23
-20 -2 9 -16 47 -30 85 -14 37 -24 67 -20 67 3 0 15 -12 27 -27z"/>
<path d="M253 3190 c-46 -19 -57 -83 -20 -118 32 -30 108 -47 158 -34 57 14
49 -2 -38 -77 -83 -71 -123 -139 -123 -209 0 -38 5 -50 36 -78 l35 -34 -45
-148 c-109 -351 -140 -651 -91 -887 30 -143 124 -291 234 -366 34 -23 51 -43
55 -62 3 -16 22 -45 41 -64 32 -32 39 -35 83 -31 68 7 145 -11 136 -31 -3 -9
-9 -47 -11 -86 -3 -38 -10 -79 -15 -90 -10 -19 -9 -19 7 -3 12 11 20 41 25 93
6 59 13 81 31 101 21 22 29 24 94 21 40 -2 77 -7 83 -11 7 -4 23 5 38 21 14
16 38 29 52 29 15 1 28 2 30 3 1 1 -2 10 -8 22 -10 17 -14 18 -27 8 -13 -11
-18 -10 -29 6 -19 25 -18 41 2 24 13 -10 17 -10 24 1 13 21 10 97 -6 117 -12
16 -12 14 -2 -14 11 -30 10 -33 -27 -67 -21 -20 -42 -36 -46 -36 -15 0 4 -40
22 -45 11 -4 17 -10 14 -15 -3 -5 -13 -6 -22 -3 -9 4 -19 -1 -25 -10 -9 -17
-61 -23 -92 -11 -15 6 -15 8 1 19 17 13 17 14 -2 20 -11 4 -37 14 -59 23 l-38
16 49 11 c62 14 111 42 132 75 13 21 10 19 -17 -7 -35 -34 -75 -51 -137 -55
-37 -3 -41 0 -58 32 l-18 35 6 -33 c9 -44 -7 -40 -27 8 -25 61 -93 77 -118 29
-9 -16 -15 -17 -31 -8 -16 8 -19 17 -14 37 4 15 14 35 23 45 16 18 17 18 33
-2 19 -23 29 -18 29 16 0 13 6 26 14 29 20 8 83 -21 97 -44 13 -20 14 -20 56
10 l43 31 27 -24 c25 -22 26 -22 9 -1 -11 12 -16 25 -13 29 10 9 59 -15 53
-26 -4 -5 2 -7 12 -4 10 2 27 -6 41 -21 29 -31 46 -34 31 -7 -17 32 -12 41 21
41 52 0 109 22 133 51 13 15 27 25 30 22 19 -20 -13 -139 -43 -157 -6 -4 -11
-32 -10 -65 1 -33 -2 -64 -5 -70 -4 -6 0 -14 9 -18 10 -3 20 0 25 6 5 9 13 10
26 3 11 -6 41 -21 68 -34 27 -13 61 -38 75 -57 52 -69 77 -90 100 -84 33 8 34
20 1 15 -25 -4 -32 1 -47 28 -10 18 -28 48 -40 66 l-23 35 28 9 c78 29 111 62
119 119 7 49 -10 94 -45 122 l-25 19 25 28 c50 53 58 87 33 136 -20 37 -20 36
18 36 29 0 162 59 153 68 -2 2 -31 -8 -65 -22 -68 -29 -123 -33 -163 -12 -16
8 -28 13 -28 10 0 -2 15 -24 34 -48 55 -72 54 -112 -3 -173 -17 -18 -22 -38
-24 -105 -4 -96 -19 -135 -56 -143 -62 -13 -151 43 -151 96 0 59 97 92 140 49
11 -11 20 -26 20 -34 0 -18 -38 -46 -63 -46 -10 0 -15 -5 -12 -10 11 -17 64
-11 85 10 24 24 25 32 6 69 -17 31 -54 51 -98 51 -23 0 -29 4 -24 16 3 9 6 18
6 20 0 3 14 -3 31 -11 17 -9 36 -14 42 -11 8 3 6 5 -3 5 -8 1 -25 9 -38 19
l-23 18 21 26 c11 15 36 32 56 38 19 7 33 14 30 17 -9 9 -69 -16 -94 -39 -20
-19 -24 -20 -32 -8 -5 8 -10 24 -10 35 0 11 -11 43 -24 72 -15 32 -20 53 -14
55 15 5 0 48 -17 48 -7 0 -15 -6 -18 -12 -3 -10 -9 -8 -24 4 -21 19 -50 23
-70 10 -9 -6 -4 -13 17 -26 17 -9 34 -15 40 -11 13 8 56 -32 70 -66 10 -24 9
-34 -11 -69 -30 -54 -74 -80 -133 -80 -42 0 -46 2 -46 24 0 13 13 56 30 94 43
102 37 110 -10 13 -22 -45 -40 -95 -40 -111 l0 -29 -35 15 c-19 7 -44 14 -55
14 -73 0 6 134 93 155 46 12 38 20 -18 17 -56 -4 -87 7 -158 59 -22 16 -47 29
-55 29 -8 0 3 -12 24 -26 21 -14 48 -35 59 -45 12 -10 36 -24 54 -30 l34 -12
-28 -20 c-34 -25 -57 -79 -49 -113 5 -21 0 -31 -27 -54 l-34 -28 -38 34 c-28
26 -46 34 -75 34 -25 0 -41 6 -49 19 -11 17 -8 18 55 13 57 -4 71 -1 92 17
l25 20 -28 1 c-15 0 -50 13 -77 28 l-48 28 51 19 52 19 -60 8 c-84 11 -153 48
-219 118 -98 103 -144 231 -151 420 -4 96 -3 108 6 70 53 -225 110 -311 247
-371 63 -27 76 -23 18 6 -181 88 -263 330 -211 626 22 128 36 161 76 180 l34
17 -47 -5 c-43 -5 -50 -3 -78 25 -26 26 -30 38 -30 82 0 70 18 100 129 215 53
55 107 116 120 135 l24 35 -39 -38 c-60 -56 -138 -72 -209 -42 -70 29 -64 114
8 116 27 0 29 2 12 9 -25 11 -25 11 -52 0z m2 -767 c-4 -21 -15 -79 -25 -129
-58 -276 -49 -534 25 -730 36 -96 69 -149 137 -220 50 -53 58 -66 52 -88 -3
-14 -10 -26 -15 -26 -24 0 -130 125 -167 198 -119 228 -130 527 -36 925 25
105 41 144 29 70z m18 -711 c41 -102 87 -172 165 -249 40 -40 68 -74 62 -78
-6 -3 -18 -22 -28 -42 l-19 -35 -52 58 c-101 113 -174 306 -186 493 l-5 86 19
-85 c10 -47 30 -114 44 -148z m1102 -369 c10 -14 18 -44 18 -66 0 -31 -7 -45
-33 -70 -32 -31 -32 -31 -26 -7 3 14 6 58 6 98 0 39 4 72 9 72 5 0 17 -12 26
-27z m-743 -80 c10 -9 18 -24 18 -34 0 -17 -3 -17 -45 -2 -48 16 -55 26 -27
42 24 14 33 13 54 -6z m-96 -47 c4 -13 9 -15 13 -7 6 9 19 9 54 -1 54 -14 60
-32 24 -66 l-24 -22 -44 31 -44 32 30 -34 c27 -30 28 -31 5 -17 -31 19 -58 65
-59 101 -1 25 1 26 19 15 11 -7 23 -21 26 -32z m194 -51 c13 -14 29 -25 37
-25 7 0 13 -5 13 -11 0 -7 -10 -9 -26 -5 -20 5 -24 3 -22 -11 3 -15 -4 -18
-40 -17 -23 0 -44 3 -47 6 -3 3 1 18 10 34 8 16 15 35 15 42 0 21 35 13 60
-13z"/>
<path d="M5735 3190 c-17 -7 -15 -9 12 -9 72 -2 78 -87 8 -116 -71 -30 -149
-14 -209 42 l-39 38 24 -35 c13 -19 67 -80 120 -135 111 -115 129 -145 129
-215 0 -44 -5 -56 -29 -81 -34 -34 -83 -39 -113 -12 -15 14 -18 14 -13 2 3 -9
20 -22 37 -30 37 -16 51 -52 73 -178 52 -295 -28 -532 -210 -625 -58 -30 -47
-35 17 -7 137 60 194 146 247 371 9 38 10 26 6 -70 -7 -189 -53 -317 -151
-420 -65 -69 -137 -107 -222 -118 l-57 -8 52 -19 51 -19 -48 -28 c-27 -15 -62
-28 -77 -28 l-28 -1 25 -20 c21 -18 35 -21 91 -17 l67 5 -19 -31 c-11 -17 -28
-42 -38 -56 l-20 -25 -36 35 c-30 29 -43 35 -81 35 -43 0 -45 1 -41 25 7 33
-15 82 -47 107 l-26 21 32 11 c18 6 41 20 53 30 11 10 38 31 59 45 21 14 32
26 24 26 -8 0 -34 -14 -58 -31 -63 -46 -103 -60 -160 -55 -52 3 -60 -8 -12
-19 53 -11 103 -195 61 -221 -5 -3 -9 -12 -9 -20 0 -11 11 -7 39 15 38 31 81
51 106 51 7 0 34 -16 60 -36 43 -32 48 -34 59 -18 12 16 13 16 19 0 5 -13 12
-10 40 20 33 36 33 36 69 21 48 -20 54 -34 27 -63 -16 -17 -29 -22 -46 -18
-19 5 -32 -2 -64 -37 l-39 -43 5 35 5 34 -10 -33 c-14 -42 -44 -54 -135 -54
-80 0 -132 18 -172 59 -25 26 -26 26 -12 3 9 -14 36 -36 60 -50 37 -21 57 -25
131 -25 97 0 102 -12 18 -40 -27 -9 -50 -20 -52 -25 -5 -13 -78 -24 -78 -11 0
16 -25 14 -40 -4 -15 -18 -68 -10 -94 16 -19 17 -18 18 37 45 60 28 64 33 45
52 -20 20 -38 14 -38 -13 0 -14 -4 -25 -10 -25 -5 0 -10 11 -10 25 0 16 -6 25
-15 25 -8 0 -15 -4 -15 -10 0 -20 -21 -10 -32 16 -8 17 -9 28 -1 32 12 8 14
44 2 36 -8 -4 -39 46 -39 63 0 11 140 4 163 -8 9 -6 17 -7 17 -4 0 13 -73 35
-117 35 -69 0 -77 8 -69 66 15 100 57 157 129 174 l32 8 -30 1 c-67 2 -114
-50 -145 -164 l-17 -59 -28 49 c-27 45 -29 47 -38 27 -8 -17 -16 -20 -36 -17
-25 5 -26 5 -3 -6 30 -16 28 -31 -10 -70 l-32 -34 -7 30 -7 30 -1 -32 c0 -18
-5 -33 -11 -33 -5 0 -7 -6 -4 -14 3 -8 -3 -19 -14 -25 -11 -6 -25 -23 -31 -40
-16 -37 -1 -68 35 -77 33 -8 51 -41 26 -48 -25 -8 -90 9 -114 31 -51 45 -55
113 -9 162 27 29 27 30 9 53 -56 71 -57 102 -2 174 19 24 34 46 34 48 0 3 -12
-2 -27 -10 -41 -21 -96 -17 -164 12 -34 14 -63 24 -65 22 -9 -9 124 -68 154
-68 37 0 37 1 17 -36 -25 -49 -17 -83 33 -137 l26 -27 -22 -16 c-53 -37 -67
-119 -29 -174 31 -47 89 -74 162 -76 33 -2 62 -3 64 -3 3 -1 -5 -11 -16 -24
-11 -12 -30 -41 -42 -65 -17 -34 -27 -42 -49 -42 -20 0 -23 -3 -13 -9 23 -14
54 6 85 56 16 25 43 53 59 63 26 16 27 19 9 24 -17 6 -16 10 19 45 32 32 39
46 39 78 0 57 -56 103 -126 103 -34 0 -30 14 11 33 19 9 35 20 35 24 0 5 7 17
15 27 15 20 15 20 30 0 9 -10 24 -37 34 -59 10 -22 28 -49 40 -59 11 -11 21
-29 21 -41 0 -12 9 -34 20 -48 11 -14 20 -27 20 -30 0 -3 -9 -3 -20 0 -16 4
-20 0 -20 -19 0 -13 9 -31 20 -41 11 -9 20 -25 20 -35 0 -25 11 -34 26 -21 10
8 11 5 6 -13 -5 -20 -4 -21 11 -9 9 7 36 15 59 16 24 2 50 5 58 8 8 3 23 8 32
10 9 3 18 1 21 -6 2 -7 25 -12 57 -13 67 -1 78 -15 89 -113 5 -49 13 -77 26
-89 17 -16 17 -16 1 8 -10 16 -16 46 -16 90 -1 36 -7 76 -14 90 -13 23 -12 26
24 47 l39 23 25 -25 c29 -29 72 -33 115 -10 35 18 71 88 71 139 0 31 8 47 45
88 198 220 215 634 49 1171 l-46 149 32 27 c25 21 33 36 37 73 8 72 -30 141
-120 219 -87 75 -95 91 -38 77 50 -13 126 4 159 34 54 51 -5 147 -73 118z
m100 -935 c66 -328 52 -599 -40 -794 -34 -71 -93 -160 -106 -161 -3 0 -11 12
-18 26 -10 23 -9 30 7 48 59 63 121 203 148 330 33 158 27 384 -16 590 -10 50
-21 109 -24 131 l-5 40 15 -45 c8 -25 25 -99 39 -165z m-9 -397 c-10 -121 -42
-241 -92 -343 -56 -115 -79 -144 -102 -127 -9 7 -29 18 -43 24 l-26 11 56 57
c95 96 161 226 190 377 9 46 18 83 20 83 2 0 1 -37 -3 -82z m-589 -371 c14
-28 10 -81 -7 -92 -4 -3 -6 4 -3 14 3 11 -7 45 -21 77 -14 31 -26 59 -26 62 0
12 43 -35 57 -61z m-343 -178 c39 -30 35 -69 -11 -109 -34 -30 -37 -31 -50
-15 -9 14 -10 22 -2 32 9 10 8 13 -5 13 -13 0 -16 11 -16 50 0 48 1 50 29 50
15 0 40 -9 55 -21z m-101 -68 c-2 -3 -11 3 -20 12 -14 14 -15 20 -3 44 l14 28
6 -40 c3 -22 4 -42 3 -44z m851 53 c7 -25 -15 -64 -34 -64 -16 0 -16 59 -1 75
21 21 28 19 35 -11z m-119 -24 c-3 -5 -12 -10 -18 -10 -7 0 -6 4 3 10 19 12
23 12 15 0z m53 -34 c3 -11 -4 -26 -14 -33 -30 -22 -3 -14 43 12 48 29 52 22
23 -35 -30 -58 -74 -76 -115 -46 -17 12 -18 16 -5 32 14 17 13 18 -1 6 -14
-10 -18 -10 -23 4 -12 30 -6 44 27 64 38 24 60 22 65 -4z m-114 -48 c10 -40 7
-47 -34 -68 -36 -18 -43 -19 -61 -6 -21 14 -21 15 10 30 17 9 38 28 47 41 20
31 30 32 38 3z m-130 -74 c22 -9 20 -24 -3 -24 -21 0 -34 13 -24 24 8 7 8 7
27 0z"/>
<path d="M495 2700 c-3 -5 -1 -10 4 -10 6 0 11 5 11 10 0 6 -2 10 -4 10 -3 0
-8 -4 -11 -10z"/>
<path d="M5530 2700 c0 -5 5 -10 11 -10 5 0 7 5 4 10 -3 6 -8 10 -11 10 -2 0
-4 -4 -4 -10z"/>
<path d="M5540 2570 c0 -5 5 -10 10 -10 6 0 10 5 10 10 0 6 -4 10 -10 10 -5 0
-10 -4 -10 -10z"/>
<path d="M440 2520 c0 -5 5 -10 10 -10 6 0 10 5 10 10 0 6 -4 10 -10 10 -5 0
-10 -4 -10 -10z"/>
<path d="M5580 2520 c0 -5 5 -10 10 -10 6 0 10 5 10 10 0 6 -4 10 -10 10 -5 0
-10 -4 -10 -10z"/>
<path d="M443 2485 c-19 -21 -16 -27 7 -13 11 7 20 16 20 20 0 12 -14 9 -27
-7z"/>
<path d="M5570 2492 c0 -4 9 -13 20 -20 23 -14 26 -7 6 14 -16 15 -26 18 -26
6z"/>
<path d="M5580 2450 c0 -5 5 -10 11 -10 5 0 7 5 4 10 -3 6 -8 10 -11 10 -2 0
-4 -4 -4 -10z"/>
<path d="M475 2430 c3 -5 8 -10 11 -10 2 0 4 5 4 10 0 6 -5 10 -11 10 -5 0 -7
-4 -4 -10z"/>
<path d="M440 2410 c0 -5 5 -10 10 -10 6 0 10 5 10 10 0 6 -4 10 -10 10 -5 0
-10 -4 -10 -10z"/>
<path d="M5580 2410 c0 -5 5 -10 10 -10 6 0 10 5 10 10 0 6 -4 10 -10 10 -5 0
-10 -4 -10 -10z"/>
<path d="M410 2390 c0 -5 5 -10 10 -10 6 0 10 5 10 10 0 6 -4 10 -10 10 -5 0
-10 -4 -10 -10z"/>
<path d="M5610 2390 c0 -5 5 -10 10 -10 6 0 10 5 10 10 0 6 -4 10 -10 10 -5 0
-10 -4 -10 -10z"/>
<path d="M440 2370 c0 -5 5 -10 10 -10 6 0 10 5 10 10 0 6 -4 10 -10 10 -5 0
-10 -4 -10 -10z"/>
<path d="M5580 2370 c0 -5 5 -10 10 -10 6 0 10 5 10 10 0 6 -4 10 -10 10 -5 0
-10 -4 -10 -10z"/>
<path d="M410 2349 c0 -5 5 -7 10 -4 6 3 10 8 10 11 0 2 -4 4 -10 4 -5 0 -10
-5 -10 -11z"/>
<path d="M480 2349 c0 -5 5 -7 10 -4 6 3 10 8 10 11 0 2 -4 4 -10 4 -5 0 -10
-5 -10 -11z"/>
<path d="M5545 2350 c3 -5 8 -10 11 -10 2 0 4 5 4 10 0 6 -5 10 -11 10 -5 0
-7 -4 -4 -10z"/>
<path d="M5615 2350 c3 -5 8 -10 11 -10 2 0 4 5 4 10 0 6 -5 10 -11 10 -5 0
-7 -4 -4 -10z"/>
<path d="M410 2320 c0 -5 5 -10 10 -10 6 0 10 5 10 10 0 6 -4 10 -10 10 -5 0
-10 -4 -10 -10z"/>
<path d="M5610 2320 c0 -5 5 -10 10 -10 6 0 10 5 10 10 0 6 -4 10 -10 10 -5 0
-10 -4 -10 -10z"/>
<path d="M480 2310 c0 -5 5 -10 10 -10 6 0 10 5 10 10 0 6 -4 10 -10 10 -5 0
-10 -4 -10 -10z"/>
<path d="M5540 2310 c0 -5 5 -10 10 -10 6 0 10 5 10 10 0 6 -4 10 -10 10 -5 0
-10 -4 -10 -10z"/>
<path d="M450 2279 c0 -5 5 -7 10 -4 6 3 10 8 10 11 0 2 -4 4 -10 4 -5 0 -10
-5 -10 -11z"/>
<path d="M5575 2280 c3 -5 8 -10 11 -10 2 0 4 5 4 10 0 6 -5 10 -11 10 -5 0
-7 -4 -4 -10z"/>
<path d="M440 2250 c0 -5 5 -10 11 -10 5 0 7 5 4 10 -3 6 -8 10 -11 10 -2 0
-4 -4 -4 -10z"/>
<path d="M5585 2250 c-3 -5 -1 -10 4 -10 6 0 11 5 11 10 0 6 -2 10 -4 10 -3 0
-8 -4 -11 -10z"/>
<path d="M410 2190 c0 -5 5 -10 11 -10 5 0 7 5 4 10 -3 6 -8 10 -11 10 -2 0
-4 -4 -4 -10z"/>
<path d="M5615 2190 c-3 -5 -1 -10 4 -10 6 0 11 5 11 10 0 6 -2 10 -4 10 -3 0
-8 -4 -11 -10z"/>
<path d="M500 2180 c0 -5 5 -10 10 -10 6 0 10 5 10 10 0 6 -4 10 -10 10 -5 0
-10 -4 -10 -10z"/>
<path d="M5520 2180 c0 -5 5 -10 10 -10 6 0 10 5 10 10 0 6 -4 10 -10 10 -5 0
-10 -4 -10 -10z"/>
<path d="M461 2154 c-18 -21 -6 -30 14 -11 8 9 15 18 15 21 0 11 -15 5 -29
-10z"/>
<path d="M5550 2159 c0 -5 5 -7 10 -4 6 3 10 8 10 11 0 2 -4 4 -10 4 -5 0 -10
-5 -10 -11z"/>
<path d="M5570 2140 c0 -5 5 -10 10 -10 6 0 10 5 10 10 0 6 -4 10 -10 10 -5 0
-10 -4 -10 -10z"/>
<path d="M420 2119 c0 -5 5 -7 10 -4 6 3 10 8 10 11 0 2 -4 4 -10 4 -5 0 -10
-5 -10 -11z"/>
<path d="M5605 2120 c3 -5 8 -10 11 -10 2 0 4 5 4 10 0 6 -5 10 -11 10 -5 0
-7 -4 -4 -10z"/>
<path d="M520 2110 c0 -5 5 -10 10 -10 6 0 10 5 10 10 0 6 -4 10 -10 10 -5 0
-10 -4 -10 -10z"/>
<path d="M5500 2110 c0 -5 5 -10 10 -10 6 0 10 5 10 10 0 6 -4 10 -10 10 -5 0
-10 -4 -10 -10z"/>
<path d="M485 2080 c3 -5 8 -10 11 -10 2 0 4 5 4 10 0 6 -5 10 -11 10 -5 0 -7
-4 -4 -10z"/>
<path d="M535 2080 c-3 -5 -1 -10 4 -10 6 0 11 5 11 10 0 6 -2 10 -4 10 -3 0
-8 -4 -11 -10z"/>
<path d="M981 2068 c-12 -30 4 -55 58 -92 24 -16 51 -43 62 -60 12 -20 19 -25
19 -14 0 10 16 33 35 52 41 41 114 61 199 54 32 -3 51 -1 44 3 -7 5 -48 9 -91
9 -89 0 -141 -17 -174 -58 -13 -15 -23 -21 -23 -15 0 7 -22 24 -48 37 -60 30
-76 49 -70 81 6 31 0 32 -11 3z"/>
<path d="M5048 2065 c6 -32 -10 -51 -70 -81 -26 -13 -48 -30 -48 -37 0 -6 -10
0 -23 15 -34 42 -85 58 -179 57 l-83 -2 80 -7 c44 -4 97 -15 118 -25 38 -18
77 -62 77 -87 0 -7 9 1 19 19 11 17 40 45 65 62 54 37 67 58 55 89 -11 29 -17
28 -11 -3z"/>
<path d="M5490 2080 c0 -5 5 -10 11 -10 5 0 7 5 4 10 -3 6 -8 10 -11 10 -2 0
-4 -4 -4 -10z"/>
<path d="M5540 2079 c0 -5 5 -7 10 -4 6 3 10 8 10 11 0 2 -4 4 -10 4 -5 0 -10
-5 -10 -11z"/>
<path d="M903 2055 c-23 -14 -51 -40 -62 -59 -25 -40 -28 -112 -6 -144 16 -22
16 -22 -30 -16 -66 10 -123 -15 -158 -68 -15 -23 -27 -49 -26 -58 0 -8 5 -4
10 10 6 14 20 36 32 48 49 53 105 64 193 37 69 -21 72 -19 37 18 -40 42 -53
68 -53 107 0 47 26 88 78 121 56 35 44 39 -15 4z"/>
<path d="M5115 2057 c50 -28 85 -80 85 -124 0 -42 -13 -68 -53 -110 -35 -37
-32 -39 37 -18 93 28 149 15 200 -45 32 -39 34 -28 4 17 -30 44 -92 68 -154
59 l-46 -6 16 25 c23 34 20 101 -5 141 -19 31 -92 84 -115 84 -5 0 9 -10 31
-23z"/>
<path d="M515 2050 c3 -5 8 -10 11 -10 2 0 4 5 4 10 0 6 -5 10 -11 10 -5 0 -7
-4 -4 -10z"/>
<path d="M555 2050 c-3 -5 -1 -10 4 -10 6 0 11 5 11 10 0 6 -2 10 -4 10 -3 0
-8 -4 -11 -10z"/>
<path d="M5470 2050 c0 -5 5 -10 11 -10 5 0 7 5 4 10 -3 6 -8 10 -11 10 -2 0
-4 -4 -4 -10z"/>
<path d="M5510 2049 c0 -5 5 -7 10 -4 6 3 10 8 10 11 0 2 -4 4 -10 4 -5 0 -10
-5 -10 -11z"/>
<path d="M475 2040 c-3 -5 -1 -10 4 -10 6 0 11 5 11 10 0 6 -2 10 -4 10 -3 0
-8 -4 -11 -10z"/>
<path d="M5550 2040 c0 -5 5 -10 11 -10 5 0 7 5 4 10 -3 6 -8 10 -11 10 -2 0
-4 -4 -4 -10z"/>
<path d="M520 2020 c0 -5 5 -10 10 -10 6 0 10 5 10 10 0 6 -4 10 -10 10 -5 0
-10 -4 -10 -10z"/>
<path d="M570 2020 c0 -5 5 -10 10 -10 6 0 10 5 10 10 0 6 -4 10 -10 10 -5 0
-10 -4 -10 -10z"/>
<path d="M5450 2020 c0 -5 5 -10 10 -10 6 0 10 5 10 10 0 6 -4 10 -10 10 -5 0
-10 -4 -10 -10z"/>
<path d="M5500 2020 c0 -5 5 -10 10 -10 6 0 10 5 10 10 0 6 -4 10 -10 10 -5 0
-10 -4 -10 -10z"/>
<path d="M590 1990 c0 -5 5 -10 10 -10 6 0 10 5 10 10 0 6 -4 10 -10 10 -5 0
-10 -4 -10 -10z"/>
<path d="M5430 1989 c0 -5 5 -7 10 -4 6 3 10 8 10 11 0 2 -4 4 -10 4 -5 0 -10
-5 -10 -11z"/>
<path d="M470 1980 c0 -5 5 -10 11 -10 5 0 7 5 4 10 -3 6 -8 10 -11 10 -2 0
-4 -4 -4 -10z"/>
<path d="M5555 1980 c-3 -5 -1 -10 4 -10 6 0 11 5 11 10 0 6 -2 10 -4 10 -3 0
-8 -4 -11 -10z"/>
<path d="M1470 1944 c-16 -42 -37 -61 -103 -96 -35 -19 -64 -43 -73 -60 l-15
-29 42 28 c37 25 52 28 118 28 114 -1 186 -45 201 -123 l8 -37 1 37 c2 72
-105 148 -206 148 l-37 0 31 33 c31 32 58 85 49 95 -3 3 -10 -8 -16 -24z"/>
<path d="M4553 1956 c4 -10 7 -22 7 -27 0 -5 16 -27 36 -49 l36 -40 -35 0
c-102 0 -208 -77 -206 -148 l1 -37 8 37 c15 78 87 122 201 123 66 0 81 -3 118
-28 l42 -28 -16 31 c-10 19 -36 40 -74 60 -58 29 -101 70 -101 96 0 7 -5 16
-12 20 -8 5 -9 2 -5 -10z"/>
<path d="M480 1950 c0 -5 5 -10 10 -10 6 0 10 5 10 10 0 6 -4 10 -10 10 -5 0
-10 -4 -10 -10z"/>
<path d="M510 1950 c0 -5 5 -10 10 -10 6 0 10 5 10 10 0 6 -4 10 -10 10 -5 0
-10 -4 -10 -10z"/>
<path d="M540 1950 c0 -5 5 -10 10 -10 6 0 10 5 10 10 0 6 -4 10 -10 10 -5 0
-10 -4 -10 -10z"/>
<path d="M580 1949 c0 -5 5 -7 10 -4 6 3 10 8 10 11 0 2 -4 4 -10 4 -5 0 -10
-5 -10 -11z"/>
<path d="M5445 1950 c3 -5 8 -10 11 -10 2 0 4 5 4 10 0 6 -5 10 -11 10 -5 0
-7 -4 -4 -10z"/>
<path d="M5480 1950 c0 -5 5 -10 10 -10 6 0 10 5 10 10 0 6 -4 10 -10 10 -5 0
-10 -4 -10 -10z"/>
<path d="M5510 1949 c0 -5 5 -7 10 -4 6 3 10 8 10 11 0 2 -4 4 -10 4 -5 0 -10
-5 -10 -11z"/>
<path d="M5540 1950 c0 -5 5 -10 10 -10 6 0 10 5 10 10 0 6 -4 10 -10 10 -5 0
-10 -4 -10 -10z"/>
<path d="M5360 1940 c0 -5 5 -10 11 -10 5 0 7 5 4 10 -3 6 -8 10 -11 10 -2 0
-4 -4 -4 -10z"/>
<path d="M620 1929 c0 -5 5 -7 10 -4 6 3 10 8 10 11 0 2 -4 4 -10 4 -5 0 -10
-5 -10 -11z"/>
<path d="M5405 1930 c3 -5 8 -10 11 -10 2 0 4 5 4 10 0 6 -5 10 -11 10 -5 0
-7 -4 -4 -10z"/>
<path d="M771 1914 c-11 -13 -10 -17 5 -29 11 -7 21 -11 24 -9 2 3 -1 9 -8 13
-7 4 -10 15 -6 24 8 21 3 21 -15 1z"/>
<path d="M5253 1916 c5 -12 3 -22 -5 -27 -7 -4 -10 -10 -8 -13 3 -2 13 2 24 9
18 14 18 15 0 32 -17 17 -18 17 -11 -1z"/>
<path d="M720 1899 c0 -5 5 -7 10 -4 6 3 10 8 10 11 0 2 -4 4 -10 4 -5 0 -10
-5 -10 -11z"/>
<path d="M5305 1900 c3 -5 8 -10 11 -10 2 0 4 5 4 10 0 6 -5 10 -11 10 -5 0
-7 -4 -4 -10z"/>
<path d="M530 1890 c0 -5 5 -10 10 -10 6 0 10 5 10 10 0 6 -4 10 -10 10 -5 0
-10 -4 -10 -10z"/>
<path d="M610 1890 c0 -5 5 -10 11 -10 5 0 7 5 4 10 -3 6 -8 10 -11 10 -2 0
-4 -4 -4 -10z"/>
<path d="M5415 1890 c-3 -5 -1 -10 4 -10 6 0 11 5 11 10 0 6 -2 10 -4 10 -3 0
-8 -4 -11 -10z"/>
<path d="M5490 1890 c0 -5 5 -10 10 -10 6 0 10 5 10 10 0 6 -4 10 -10 10 -5 0
-10 -4 -10 -10z"/>
<path d="M640 1870 c0 -5 5 -10 11 -10 5 0 7 5 4 10 -3 6 -8 10 -11 10 -2 0
-4 -4 -4 -10z"/>
<path d="M5380 1870 c0 -5 5 -10 10 -10 6 0 10 5 10 10 0 6 -4 10 -10 10 -5 0
-10 -4 -10 -10z"/>
<path d="M675 1860 c3 -5 8 -10 11 -10 2 0 4 5 4 10 0 6 -5 10 -11 10 -5 0 -7
-4 -4 -10z"/>
<path d="M5350 1859 c0 -5 5 -7 10 -4 6 3 10 8 10 11 0 2 -4 4 -10 4 -5 0 -10
-5 -10 -11z"/>
<path d="M705 1850 c-3 -5 -1 -10 4 -10 6 0 11 5 11 10 0 6 -2 10 -4 10 -3 0
-8 -4 -11 -10z"/>
<path d="M1063 1788 c2 -7 14 -13 27 -13 13 0 25 6 28 13 2 8 -7 12 -28 12
-21 0 -30 -4 -27 -12z"/>
<path d="M1152 1788 c-21 -21 -15 -41 11 -34 12 3 25 6 30 6 14 0 7 28 -9 34
-20 8 -18 8 -32 -6z"/>
<path d="M4853 1793 c-22 -8 -14 -31 13 -37 32 -8 42 -1 28 21 -12 19 -23 24
-41 16z"/>
<path d="M4923 1788 c2 -7 14 -13 27 -13 13 0 25 6 28 13 2 8 -7 12 -28 12
-21 0 -30 -4 -27 -12z"/>
<path d="M1010 1761 c0 -24 13 -33 35 -25 23 9 14 38 -13 42 -16 3 -22 -2 -22
-17z"/>
<path d="M4983 1764 c-6 -17 14 -36 32 -31 6 2 11 13 13 25 3 17 -2 22 -18 22
-11 0 -23 -7 -27 -16z"/>
<path d="M1070 1740 c0 -5 11 -10 24 -10 14 0 28 5 31 10 4 6 -7 10 -24 10
-17 0 -31 -4 -31 -10z"/>
<path d="M1166 1742 c-3 -5 1 -15 9 -22 18 -15 68 -4 62 13 -4 15 -63 22 -71
9z"/>
<path d="M4804 1739 c-7 -13 13 -29 37 -29 19 0 42 24 32 33 -11 11 -61 8 -69
-4z"/>
<path d="M4915 1740 c3 -5 17 -10 31 -10 13 0 24 5 24 10 0 6 -14 10 -31 10
-17 0 -28 -4 -24 -10z"/>
<path d="M981 1712 c-14 -26 2 -44 34 -40 39 4 42 24 6 42 -28 15 -31 15 -40
-2z"/>
<path d="M1129 1729 c-11 -49 2 -70 27 -44 9 9 15 17 13 18 -2 2 -12 9 -21 16
-10 7 -18 12 -19 10z"/>
<path d="M4885 1714 c-17 -13 -18 -16 -5 -24 29 -16 33 -15 35 8 2 30 -6 34
-30 16z"/>
<path d="M5017 1714 c-35 -19 -30 -38 10 -42 34 -3 49 17 30 41 -11 14 -15 14
-40 1z"/>
<path d="M1058 1708 c7 -7 12 -21 12 -31 0 -13 5 -17 16 -13 9 3 18 6 20 6 2
0 4 9 4 19 0 19 -18 31 -48 31 -12 0 -13 -3 -4 -12z"/>
<path d="M4943 1713 c-18 -7 -16 -40 3 -47 23 -9 24 -8 24 12 0 10 5 23 12 30
9 9 8 12 -7 11 -11 0 -26 -3 -32 -6z"/>
<path d="M1192 1691 c-12 -7 -12 -12 -1 -30 16 -25 22 -26 39 -6 24 29 -5 57
-38 36z"/>
<path d="M4804 1685 c-6 -14 11 -45 25 -45 3 0 12 10 20 21 11 18 11 23 -1 30
-20 13 -38 11 -44 -6z"/>
<path d="M1142 1638 c3 -25 34 -36 52 -18 8 8 6 15 -8 26 -29 21 -48 18 -44
-8z"/>
<path d="M4854 1646 c-14 -11 -16 -18 -8 -26 18 -18 49 -7 52 18 4 26 -15 29
-44 8z"/>
<path d="M4981 1646 c-9 -10 -8 -16 3 -25 18 -15 56 2 56 24 0 19 -44 20 -59
1z"/>
<path d="M4916 1634 c-11 -28 -7 -34 24 -34 33 0 36 6 16 33 -16 21 -32 22
-40 1z"/>
<path d="M1037 1219 c-3 -12 0 -31 8 -42 12 -18 15 -18 20 -4 9 22 2 60 -11
64 -6 2 -14 -6 -17 -18z"/>
<path d="M5165 1176 c-21 -32 -15 -41 20 -32 29 7 31 14 11 41 -13 18 -14 17
-31 -9z"/>
<path d="M5102 1158 c-19 -19 -14 -33 13 -33 27 0 33 16 12 34 -10 8 -17 7
-25 -1z"/>
<path d="M1057 1123 c-10 -9 -9 -53 2 -53 12 0 20 35 12 49 -4 6 -10 8 -14 4z"/>
<path d="M1100 1115 c-14 -17 -10 -47 8 -53 8 -2 12 8 12 32 0 40 -2 42 -20
21z"/>
<path d="M5010 1090 c0 -32 11 -38 29 -16 14 16 4 46 -15 46 -9 0 -14 -11 -14
-30z"/>
<path d="M992 1098 c-17 -17 -15 -28 7 -28 11 0 23 -4 26 -10 13 -20 23 -9 16
18 -8 30 -30 39 -49 20z"/>
<path d="M943 1059 c-8 -8 -8 -18 -1 -35 21 -46 51 -18 32 30 -7 19 -16 20
-31 5z"/>
<path d="M5158 1045 c-15 -33 2 -55 27 -35 19 16 19 46 0 54 -10 4 -20 -3 -27
-19z"/>
<path d="M1060 1045 c-15 -17 -5 -35 20 -35 22 0 33 23 17 39 -15 15 -22 14
-37 -4z"/>
<path d="M5033 1044 c-8 -22 11 -37 36 -29 17 5 19 10 11 26 -13 23 -38 25
-47 3z"/>
<path d="M999 1048 c-1 -2 -2 -18 -4 -35 -2 -29 0 -33 21 -33 32 0 39 16 20
45 -14 21 -33 32 -37 23z"/>
<path d="M5097 1021 c-17 -34 -13 -41 20 -41 21 0 24 4 21 32 -4 42 -23 46
-41 9z"/>
<path d="M536 988 l-33 -33 -17 23 c-13 17 -21 20 -35 12 -31 -16 -44 -64 -39
-145 3 -43 1 -76 -5 -78 -14 -4 -11 -98 5 -137 17 -39 65 -100 79 -100 6 0 0
10 -11 23 -35 36 -61 96 -63 140 -2 36 1 42 17 39 15 -3 18 1 12 20 -30 105
-27 188 9 218 12 10 18 6 32 -18 l19 -30 21 38 c27 45 63 58 102 35 l26 -16
-24 20 c-33 29 -58 26 -95 -11z"/>
<path d="M5509 1003 c-13 -15 -12 -15 9 -2 19 12 26 12 50 -1 15 -8 34 -30 42
-47 8 -18 17 -33 20 -33 3 0 11 14 18 30 17 38 27 38 48 -2 16 -31 16 -117 -2
-191 -5 -22 -4 -26 10 -21 13 5 16 -1 16 -30 0 -43 -21 -97 -56 -143 -13 -18
-19 -30 -12 -28 7 3 28 27 46 54 37 53 55 149 33 174 -7 9 -9 35 -5 74 7 68
-6 121 -37 149 -20 18 -21 18 -39 -6 l-18 -24 -32 32 c-35 35 -70 41 -91 15z"/>
<path d="M907 943 c-2 -5 -7 -20 -11 -35 -8 -34 -50 -85 -88 -104 -34 -18 -67
-13 -112 17 -31 20 -30 20 2 -9 19 -17 46 -32 60 -35 35 -7 83 14 109 47 24
30 33 33 33 9 0 -19 15 -44 68 -113 17 -24 32 -38 32 -33 0 6 -11 25 -25 44
-48 66 -68 118 -63 170 5 48 4 57 -5 42z"/>
<path d="M5222 915 c3 -76 -2 -92 -47 -161 -25 -37 -45 -73 -45 -79 0 -5 6 -1
12 10 6 11 26 36 43 56 18 20 39 53 46 72 l13 36 33 -34 c45 -46 91 -50 150
-14 45 28 36 36 -11 9 -25 -15 -44 -20 -64 -15 -38 8 -104 76 -119 123 l-12
37 1 -40z"/>
<path d="M4753 915 c17 -33 50 -66 84 -84 31 -16 96 -14 119 4 29 22 33 18 23
-20 -19 -68 23 -154 87 -181 50 -21 54 -17 10 9 -61 35 -81 68 -79 135 0 31 8
76 16 99 l16 42 -45 -35 c-83 -63 -140 -59 -205 14 -33 37 -38 41 -26 17z"/>
<path d="M1350 889 c-60 -63 -132 -64 -201 -2 -21 19 -39 34 -39 32 0 -2 7
-26 15 -53 33 -107 13 -177 -62 -223 -21 -13 -34 -23 -29 -23 5 0 28 11 51 24
54 32 79 86 73 155 l-5 50 28 -15 c62 -32 137 -11 185 51 36 48 27 51 -16 4z"/>
<path d="M574 895 c-78 -78 -81 -233 -8 -377 41 -82 144 -178 244 -228 216
-108 473 -125 834 -55 71 14 131 24 133 21 6 -6 -193 -52 -312 -72 -146 -25
-381 -23 -508 4 -140 30 -253 87 -337 171 -36 36 -74 77 -84 91 -9 14 -7 5 6
-20 13 -24 51 -72 85 -106 212 -214 621 -239 1172 -73 l164 50 21 -24 c71 -84
181 -56 299 76 38 43 72 77 75 77 4 0 5 -30 4 -66 -2 -37 2 -78 8 -95 26 -62
93 -79 129 -33 23 29 26 51 11 74 -8 12 -10 11 -8 -5 3 -42 -3 -56 -28 -65
-47 -18 -89 18 -99 86 -11 65 11 123 63 173 42 41 43 43 13 25 -19 -10 -83
-67 -142 -125 -60 -59 -124 -114 -143 -123 -40 -19 -104 -21 -141 -4 -50 23
-70 94 -37 132 17 21 17 21 -5 2 -13 -11 -23 -27 -23 -37 0 -23 -89 -52 -210
-70 -95 -14 -258 -7 -335 14 -117 32 -206 102 -255 200 -38 76 -40 52 -1 -28
55 -117 157 -189 312 -221 41 -8 79 -17 84 -19 25 -12 -227 6 -280 20 -195 51
-339 189 -361 347 -7 55 -19 54 -34 -4 l-11 -40 -31 57 c-16 31 -28 66 -25 76
7 27 -10 23 -29 -6 -13 -20 -16 -40 -11 -90 l6 -64 -32 19 c-31 20 -87 27 -87
13 0 -5 42 -51 93 -104 134 -137 250 -202 427 -240 99 -21 60 -26 -67 -8 -328
45 -567 243 -581 480 -5 89 8 136 50 185 35 39 29 46 -8 9z"/>
<path d="M5538 904 c60 -42 86 -163 57 -270 -62 -229 -322 -399 -641 -418
l-89 -6 69 15 c195 41 299 97 437 236 59 59 104 110 101 113 -11 12 -48 5 -86
-15 -33 -18 -38 -18 -32 -4 16 43 17 93 2 128 -17 43 -36 49 -36 12 0 -14 -12
-49 -26 -78 l-27 -52 -14 47 c-19 67 -29 66 -36 0 -13 -153 -158 -294 -352
-346 -56 -15 -306 -35 -295 -24 3 3 42 13 88 22 166 33 255 95 317 219 19 38
35 77 35 86 0 9 -11 -8 -25 -37 -50 -108 -129 -177 -246 -213 -80 -25 -247
-35 -349 -21 -97 14 -210 49 -210 65 0 7 -7 22 -15 33 -14 17 -14 16 -4 -13
12 -36 -6 -81 -43 -107 -29 -21 -110 -20 -151 0 -17 10 -82 65 -143 124 -61
59 -122 113 -135 119 -21 11 -20 9 4 -10 43 -33 67 -89 67 -157 0 -64 -21
-105 -61 -117 -28 -9 -67 19 -72 52 -4 26 -4 26 -6 -4 -2 -58 56 -91 109 -63
30 16 54 92 47 155 -3 30 -2 55 3 55 4 0 33 -30 65 -67 87 -102 137 -133 216
-133 34 0 47 6 77 36 l36 36 83 -26 c46 -14 89 -23 97 -20 7 3 69 -7 137 -21
184 -38 373 -52 509 -37 283 32 483 148 575 336 63 127 61 275 -6 351 -17 19
-36 35 -42 35 -6 0 -1 -7 11 -16z"/>
<path d="M4950 809 c0 -5 5 -7 10 -4 6 3 10 8 10 11 0 2 -4 4 -10 4 -5 0 -10
-5 -10 -11z"/>
<path d="M4925 790 c3 -5 8 -10 11 -10 2 0 4 5 4 10 0 6 -5 10 -11 10 -5 0 -7
-4 -4 -10z"/>
<path d="M1217 773 c-15 -16 -19 -16 -27 -3 -5 8 -12 11 -16 8 -3 -4 1 -14 10
-23 14 -15 18 -14 41 9 14 14 22 26 18 26 -5 0 -17 -8 -26 -17z"/>
<path d="M1260 781 c0 -4 3 -11 7 -15 4 -4 8 -21 9 -37 3 -63 110 -153 219
-184 171 -50 410 -45 700 15 53 11 100 20 104 19 13 -1 -337 -121 -424 -145
-110 -31 -319 -43 -434 -25 -106 17 -230 73 -200 92 7 4 10 11 6 16 -5 4 -12
1 -16 -6 -12 -19 -27 -7 -61 52 -30 52 -43 51 -16 -1 40 -75 153 -150 268
-177 183 -43 372 -7 798 150 85 31 187 63 225 71 l70 14 -65 -6 c-36 -3 -135
-18 -221 -34 -232 -42 -348 -54 -489 -47 -208 10 -371 67 -432 151 -41 57 -34
64 16 18 90 -83 210 -126 386 -138 122 -8 263 7 520 57 113 22 261 44 330 49
l125 9 -140 -4 c-110 -2 -179 -11 -322 -39 -465 -91 -763 -59 -911 98 -29 30
-52 51 -52 47z"/>
<path d="M4827 735 c-47 -55 -153 -109 -257 -131 -100 -21 -343 -21 -475 0
-55 9 -158 27 -230 41 -90 18 -175 27 -275 30 l-145 4 120 -9 c125 -8 154 -13
395 -60 431 -85 705 -54 858 97 45 46 50 47 28 5 -36 -69 -130 -126 -265 -160
-50 -12 -111 -16 -251 -16 -164 0 -204 3 -355 31 -93 18 -195 34 -225 38 l-55
5 60 -18 c33 -11 147 -51 253 -90 270 -100 409 -132 570 -132 203 1 383 100
416 230 4 14 -3 6 -15 -18 -44 -88 -142 -148 -281 -172 -86 -15 -304 -9 -300
8 3 16 -15 16 -20 0 -3 -9 -27 -6 -94 10 -86 21 -469 150 -449 151 6 1 65 -10
133 -24 68 -14 134 -25 148 -25 16 0 24 -6 25 -17 0 -11 3 -13 6 -6 3 10 38
11 141 6 274 -12 474 45 548 157 19 29 43 111 31 110 -1 -1 -19 -21 -40 -45z"/>
<path d="M4880 754 c0 -10 31 -36 37 -31 3 3 -2 13 -10 22 -16 15 -27 19 -27
9z"/>
<path d="M1190 709 c0 -5 5 -7 10 -4 6 3 10 8 10 11 0 2 -4 4 -10 4 -5 0 -10
-5 -10 -11z"/>
<path d="M4930 709 c0 -5 5 -7 10 -4 6 3 10 8 10 11 0 2 -4 4 -10 4 -5 0 -10
-5 -10 -11z"/>
<path d="M4945 680 c3 -5 8 -10 11 -10 2 0 4 5 4 10 0 6 -5 10 -11 10 -5 0 -7
-4 -4 -10z"/>
<path d="M1150 670 c0 -5 5 -10 11 -10 5 0 7 5 4 10 -3 6 -8 10 -11 10 -2 0
-4 -4 -4 -10z"/>
<path d="M1250 669 c0 -5 5 -7 10 -4 6 3 10 8 10 11 0 2 -4 4 -10 4 -5 0 -10
-5 -10 -11z"/>
<path d="M4970 670 c0 -5 5 -10 11 -10 5 0 7 5 4 10 -3 6 -8 10 -11 10 -2 0
-4 -4 -4 -10z"/>
<path d="M2708 663 c6 -2 18 -2 25 0 6 3 1 5 -13 5 -14 0 -19 -2 -12 -5z"/>
<path d="M3403 663 c9 -2 23 -2 30 0 6 3 -1 5 -18 5 -16 0 -22 -2 -12 -5z"/>
<path d="M1180 650 c0 -5 5 -10 10 -10 6 0 10 5 10 10 0 6 -4 10 -10 10 -5 0
-10 -4 -10 -10z"/>
<path d="M4900 650 c0 -5 5 -10 10 -10 6 0 10 5 10 10 0 6 -4 10 -10 10 -5 0
-10 -4 -10 -10z"/>
<path d="M1150 640 c0 -5 5 -10 11 -10 5 0 7 5 4 10 -3 6 -8 10 -11 10 -2 0
-4 -4 -4 -10z"/>
<path d="M1280 629 c0 -5 5 -7 10 -4 6 3 10 8 10 11 0 2 -4 4 -10 4 -5 0 -10
-5 -10 -11z"/>
<path d="M4875 630 c-3 -5 -1 -10 4 -10 6 0 11 5 11 10 0 6 -2 10 -4 10 -3 0
-8 -4 -11 -10z"/>
<path d="M1205 620 c-3 -5 -1 -10 4 -10 6 0 11 5 11 10 0 6 -2 10 -4 10 -3 0
-8 -4 -11 -10z"/>
<path d="M2520 601 c-62 -20 -133 -55 -168 -82 -13 -10 -47 -25 -75 -35 -29
-9 -98 -36 -154 -60 -56 -24 -107 -44 -112 -44 -19 0 -12 -36 12 -58 17 -16
36 -22 69 -22 54 0 91 25 188 125 111 115 208 167 350 185 l55 7 -55 1 c-30 0
-80 -8 -110 -17z m-310 -211 c0 -21 -93 -70 -132 -70 -21 0 -38 4 -38 8 0 4
37 22 83 39 45 17 83 31 85 32 1 0 2 -4 2 -9z"/>
<path d="M3518 609 c134 -20 253 -86 348 -195 70 -79 125 -114 183 -114 51 0
91 34 91 77 0 20 -3 24 -9 14 -7 -11 -31 -5 -128 37 -65 28 -135 55 -155 60
-20 6 -52 21 -70 35 -75 56 -197 98 -279 96 -40 -1 -39 -2 19 -10z m576 -281
c-16 -26 -113 4 -155 48 -23 25 -23 25 68 -8 50 -18 89 -36 87 -40z"/>
<path d="M3638 613 c12 -2 30 -2 40 0 9 3 -1 5 -23 4 -22 0 -30 -2 -17 -4z"/>
<path d="M4950 610 c0 -5 5 -10 10 -10 6 0 10 5 10 10 0 6 -4 10 -10 10 -5 0
-10 -4 -10 -10z"/>
<path d="M4815 600 c3 -5 8 -10 11 -10 2 0 4 5 4 10 0 6 -5 10 -11 10 -5 0 -7
-4 -4 -10z"/>
<path d="M1265 590 c-3 -5 -1 -10 4 -10 6 0 11 5 11 10 0 6 -2 10 -4 10 -3 0
-8 -4 -11 -10z"/>
<path d="M4855 590 c-3 -5 -1 -10 4 -10 6 0 11 5 11 10 0 6 -2 10 -4 10 -3 0
-8 -4 -11 -10z"/>
<path d="M4890 590 c0 -5 5 -10 11 -10 5 0 7 5 4 10 -3 6 -8 10 -11 10 -2 0
-4 -4 -4 -10z"/>
<path d="M1190 580 c0 -5 5 -10 11 -10 5 0 7 5 4 10 -3 6 -8 10 -11 10 -2 0
-4 -4 -4 -10z"/>
<path d="M1330 580 c0 -5 5 -10 10 -10 6 0 10 5 10 10 0 6 -4 10 -10 10 -5 0
-10 -4 -10 -10z"/>
<path d="M4930 580 c0 -5 5 -10 11 -10 5 0 7 5 4 10 -3 6 -8 10 -11 10 -2 0
-4 -4 -4 -10z"/>
<path d="M1300 559 c0 -5 5 -7 10 -4 6 3 10 8 10 11 0 2 -4 4 -10 4 -5 0 -10
-5 -10 -11z"/>
<path d="M1360 560 c0 -5 5 -10 10 -10 6 0 10 5 10 10 0 6 -4 10 -10 10 -5 0
-10 -4 -10 -10z"/>
<path d="M2621 554 c-89 -19 -150 -58 -178 -114 -28 -54 -29 -90 -5 -120 16
-19 21 -21 38 -11 13 9 14 11 3 8 -24 -8 -39 12 -39 52 0 58 11 67 56 45 21
-11 46 -31 57 -45 44 -60 40 -157 -8 -205 -28 -28 -90 -33 -121 -9 -31 24 -36
17 -14 -24 40 -79 98 -100 161 -58 53 35 74 87 74 182 0 98 -21 145 -88 195
l-47 35 38 19 c48 25 135 46 192 46 l45 0 -34 -17 c-69 -34 -107 -135 -77
-206 13 -33 46 -52 46 -27 0 18 40 31 75 24 l35 -6 -30 -34 c-49 -57 -61 -138
-30 -219 l10 -27 29 25 c16 13 48 27 71 31 24 4 52 17 67 32 14 14 26 24 27
22 2 -2 8 -16 15 -33 7 -16 29 -49 50 -72 l38 -42 25 27 c33 34 58 84 58 114
0 23 0 23 23 -4 13 -17 42 -34 71 -42 26 -8 59 -25 72 -37 l24 -22 15 36 c33
79 12 182 -47 228 -20 16 -20 16 17 23 31 6 44 3 68 -15 l30 -22 20 24 c15 19
18 35 15 82 -5 64 -24 98 -79 136 l-34 24 70 -6 c101 -8 231 -60 186 -75 -27
-9 -83 -67 -103 -106 -41 -80 -27 -205 28 -266 71 -78 166 -55 198 48 8 23 7
23 -23 8 -50 -26 -95 -21 -125 14 -64 77 -37 198 57 247 28 14 31 14 44 -3 29
-39 6 -118 -29 -98 -10 5 -10 4 -2 -5 32 -35 69 34 52 96 -43 160 -356 216
-536 97 l-53 -35 22 -18 c27 -21 20 -47 -14 -60 -14 -5 -27 -17 -30 -25 -9
-22 -43 -20 -59 3 -7 10 -22 20 -33 22 -26 5 -33 49 -10 62 15 8 15 10 -2 29
-26 29 -99 64 -161 77 -68 14 -131 13 -211 -5z m333 -58 c40 -24 46 -30 32
-38 -25 -14 -21 -65 7 -79 12 -7 28 -20 35 -31 18 -25 64 -23 90 5 11 12 28
28 36 35 20 16 20 46 1 65 -18 18 -9 27 56 56 52 24 119 27 159 6 60 -31 100
-120 80 -181 -14 -40 -23 -43 -38 -9 -13 29 -37 32 -106 13 -35 -9 -51 -9 -71
0 -14 7 -24 8 -20 3 3 -5 22 -15 43 -22 72 -23 102 -69 102 -156 0 -32 -3 -67
-6 -79 -5 -20 -6 -20 -34 8 -20 20 -38 28 -63 28 -49 0 -76 26 -91 90 l-14 55
-1 -58 c-1 -61 -17 -109 -52 -159 l-22 -30 -15 28 c-8 16 -28 44 -45 63 -26
31 -29 40 -25 88 3 29 3 53 2 53 -2 0 -8 -19 -14 -41 -15 -53 -50 -89 -89 -89
-40 0 -79 -19 -86 -42 -4 -10 -10 -18 -14 -18 -14 0 -23 117 -12 158 12 44 54
88 93 97 15 4 32 13 38 20 10 12 6 12 -19 2 -23 -8 -38 -8 -64 1 -52 19 -83
15 -105 -13 -26 -33 -30 -32 -38 10 -11 59 4 102 51 152 l44 45 63 -4 c47 -3
77 -11 112 -32z"/>
<path d="M4820 559 c0 -5 5 -7 10 -4 6 3 10 8 10 11 0 2 -4 4 -10 4 -5 0 -10
-5 -10 -11z"/>
<path d="M4855 550 c3 -5 8 -10 11 -10 2 0 4 5 4 10 0 6 -5 10 -11 10 -5 0 -7
-4 -4 -10z"/>
<path d="M1200 540 c0 -5 5 -10 10 -10 6 0 10 5 10 10 0 6 -4 10 -10 10 -5 0
-10 -4 -10 -10z"/>
<path d="M1235 540 c3 -5 8 -10 11 -10 2 0 4 5 4 10 0 6 -5 10 -11 10 -5 0 -7
-4 -4 -10z"/>
<path d="M4885 540 c3 -5 8 -10 11 -10 2 0 4 5 4 10 0 6 -5 10 -11 10 -5 0 -7
-4 -4 -10z"/>
<path d="M1330 530 c0 -5 5 -10 10 -10 6 0 10 5 10 10 0 6 -4 10 -10 10 -5 0
-10 -4 -10 -10z"/>
<path d="M1420 530 c0 -5 5 -10 10 -10 6 0 10 5 10 10 0 6 -4 10 -10 10 -5 0
-10 -4 -10 -10z"/>
<path d="M1265 520 c3 -5 8 -10 11 -10 2 0 4 5 4 10 0 6 -5 10 -11 10 -5 0 -7
-4 -4 -10z"/>
<path d="M1365 520 c3 -5 8 -10 11 -10 2 0 4 5 4 10 0 6 -5 10 -11 10 -5 0 -7
-4 -4 -10z"/>
<path d="M4660 520 c0 -5 5 -10 10 -10 6 0 10 5 10 10 0 6 -4 10 -10 10 -5 0
-10 -4 -10 -10z"/>
<path d="M4755 520 c3 -5 8 -10 11 -10 2 0 4 5 4 10 0 6 -5 10 -11 10 -5 0 -7
-4 -4 -10z"/>
<path d="M4825 520 c3 -5 8 -10 11 -10 2 0 4 5 4 10 0 6 -5 10 -11 10 -5 0 -7
-4 -4 -10z"/>
<path d="M4855 520 c3 -5 8 -10 11 -10 2 0 4 5 4 10 0 6 -5 10 -11 10 -5 0 -7
-4 -4 -10z"/>
<path d="M1495 510 c3 -5 8 -10 11 -10 2 0 4 5 4 10 0 6 -5 10 -11 10 -5 0 -7
-4 -4 -10z"/>
<path d="M1975 500 c-10 -11 -15 -20 -11 -20 11 0 39 30 34 36 -3 2 -13 -5
-23 -16z"/>
<path d="M4080 510 c0 -5 5 -10 10 -10 6 0 10 5 10 10 0 6 -4 10 -10 10 -5 0
-10 -4 -10 -10z"/>
<path d="M2010 500 c0 -5 5 -10 10 -10 6 0 10 5 10 10 0 6 -4 10 -10 10 -5 0
-10 -4 -10 -10z"/>
<path d="M4180 500 c0 -5 5 -10 10 -10 6 0 10 5 10 10 0 6 -4 10 -10 10 -5 0
-10 -4 -10 -10z"/>
<path d="M1395 490 c3 -5 8 -10 11 -10 2 0 4 5 4 10 0 6 -5 10 -11 10 -5 0 -7
-4 -4 -10z"/>
<path d="M1550 489 c0 -5 5 -7 10 -4 6 3 10 8 10 11 0 2 -4 4 -10 4 -5 0 -10
-5 -10 -11z"/>
<path d="M1625 490 c3 -5 8 -10 11 -10 2 0 4 5 4 10 0 6 -5 10 -11 10 -5 0 -7
-4 -4 -10z"/>
<path d="M1850 490 c0 -5 5 -10 11 -10 5 0 7 5 4 10 -3 6 -8 10 -11 10 -2 0
-4 -4 -4 -10z"/>
<path d="M1880 490 c0 -5 5 -10 10 -10 6 0 10 5 10 10 0 6 -4 10 -10 10 -5 0
-10 -4 -10 -10z"/>
<path d="M1910 489 c0 -5 5 -7 10 -4 6 3 10 8 10 11 0 2 -4 4 -10 4 -5 0 -10
-5 -10 -11z"/>
<path d="M4155 490 c-3 -5 -1 -10 4 -10 6 0 11 5 11 10 0 6 -2 10 -4 10 -3 0
-8 -4 -11 -10z"/>
<path d="M4203 485 c-15 -16 -16 -25 -5 -25 4 0 13 9 20 20 14 23 3 26 -15 5z"/>
<path d="M4270 490 c0 -5 5 -10 11 -10 5 0 7 5 4 10 -3 6 -8 10 -11 10 -2 0
-4 -4 -4 -10z"/>
<path d="M4300 490 c0 -5 5 -10 11 -10 5 0 7 5 4 10 -3 6 -8 10 -11 10 -2 0
-4 -4 -4 -10z"/>
<path d="M4455 490 c-3 -5 -1 -10 4 -10 6 0 11 5 11 10 0 6 -2 10 -4 10 -3 0
-8 -4 -11 -10z"/>
<path d="M4530 490 c0 -5 5 -10 10 -10 6 0 10 5 10 10 0 6 -4 10 -10 10 -5 0
-10 -4 -10 -10z"/>
<path d="M4570 489 c0 -5 5 -7 10 -4 6 3 10 8 10 11 0 2 -4 4 -10 4 -5 0 -10
-5 -10 -11z"/>
<path d="M4690 490 c0 -5 5 -10 10 -10 6 0 10 5 10 10 0 6 -4 10 -10 10 -5 0
-10 -4 -10 -10z"/>
<path d="M4725 490 c3 -5 8 -10 11 -10 2 0 4 5 4 10 0 6 -5 10 -11 10 -5 0 -7
-4 -4 -10z"/>
<path d="M4800 490 c0 -5 5 -10 10 -10 6 0 10 5 10 10 0 6 -4 10 -10 10 -5 0
-10 -4 -10 -10z"/>
<path d="M1355 480 c3 -5 8 -10 11 -10 2 0 4 5 4 10 0 6 -5 10 -11 10 -5 0 -7
-4 -4 -10z"/>
<path d="M1475 480 c3 -5 8 -10 11 -10 2 0 4 5 4 10 0 6 -5 10 -11 10 -5 0 -7
-4 -4 -10z"/>
<path d="M4340 479 c0 -5 5 -7 10 -4 6 3 10 8 10 11 0 2 -4 4 -10 4 -5 0 -10
-5 -10 -11z"/>
<path d="M4375 480 c3 -5 8 -10 11 -10 2 0 4 5 4 10 0 6 -5 10 -11 10 -5 0 -7
-4 -4 -10z"/>
<path d="M5586 435 c-62 -100 -191 -186 -338 -229 -210 -61 -443 -57 -742 10
-119 27 -157 27 -49 0 393 -99 702 -97 911 5 74 36 177 129 223 200 17 27 30
52 27 54 -2 2 -16 -16 -32 -40z"/>
<path d="M1420 460 c0 -5 5 -10 11 -10 5 0 7 5 4 10 -3 6 -8 10 -11 10 -2 0
-4 -4 -4 -10z"/>
<path d="M1455 460 c-3 -5 -1 -10 4 -10 6 0 11 5 11 10 0 6 -2 10 -4 10 -3 0
-8 -4 -11 -10z"/>
<path d="M1805 460 c3 -5 8 -10 11 -10 2 0 4 5 4 10 0 6 -5 10 -11 10 -5 0 -7
-4 -4 -10z"/>
<path d="M4220 459 c0 -5 5 -7 10 -4 6 3 10 8 10 11 0 2 -4 4 -10 4 -5 0 -10
-5 -10 -11z"/>
<path d="M4250 460 c0 -5 5 -10 10 -10 6 0 10 5 10 10 0 6 -4 10 -10 10 -5 0
-10 -4 -10 -10z"/>
<path d="M4525 460 c-3 -5 -1 -10 4 -10 6 0 11 5 11 10 0 6 -2 10 -4 10 -3 0
-8 -4 -11 -10z"/>
<path d="M4700 460 c0 -5 5 -10 11 -10 5 0 7 5 4 10 -3 6 -8 10 -11 10 -2 0
-4 -4 -4 -10z"/>
<path d="M1370 449 c0 -5 5 -7 10 -4 6 3 10 8 10 11 0 2 -4 4 -10 4 -5 0 -10
-5 -10 -11z"/>
<path d="M1560 450 c0 -5 5 -10 10 -10 6 0 10 5 10 10 0 6 -4 10 -10 10 -5 0
-10 -4 -10 -10z"/>
<path d="M1680 450 c0 -5 5 -10 10 -10 6 0 10 5 10 10 0 6 -4 10 -10 10 -5 0
-10 -4 -10 -10z"/>
<path d="M1725 450 c3 -5 8 -10 11 -10 2 0 4 5 4 10 0 6 -5 10 -11 10 -5 0 -7
-4 -4 -10z"/>
<path d="M1760 449 c0 -5 5 -7 10 -4 6 3 10 8 10 11 0 2 -4 4 -10 4 -5 0 -10
-5 -10 -11z"/>
<path d="M1835 450 c3 -5 8 -10 11 -10 2 0 4 5 4 10 0 6 -5 10 -11 10 -5 0 -7
-4 -4 -10z"/>
<path d="M4590 450 c0 -5 5 -10 10 -10 6 0 10 5 10 10 0 6 -4 10 -10 10 -5 0
-10 -4 -10 -10z"/>
<path d="M4750 449 c0 -5 5 -7 10 -4 6 3 10 8 10 11 0 2 -4 4 -10 4 -5 0 -10
-5 -10 -11z"/>
<path d="M4335 440 c-3 -5 -1 -10 4 -10 6 0 11 5 11 10 0 6 -2 10 -4 10 -3 0
-8 -4 -11 -10z"/>
<path d="M4685 430 c-3 -5 -1 -10 4 -10 6 0 11 5 11 10 0 6 -2 10 -4 10 -3 0
-8 -4 -11 -10z"/>
<path d="M1500 420 c0 -5 5 -10 10 -10 6 0 10 5 10 10 0 6 -4 10 -10 10 -5 0
-10 -4 -10 -10z"/>
<path d="M1545 420 c-3 -5 -1 -10 4 -10 6 0 11 5 11 10 0 6 -2 10 -4 10 -3 0
-8 -4 -11 -10z"/>
<path d="M1705 420 c3 -5 8 -10 11 -10 2 0 4 5 4 10 0 6 -5 10 -11 10 -5 0 -7
-4 -4 -10z"/>
<path d="M4450 420 c0 -5 5 -10 10 -10 6 0 10 5 10 10 0 6 -4 10 -10 10 -5 0
-10 -4 -10 -10z"/>
<path d="M4575 420 c-3 -5 -1 -10 4 -10 6 0 11 5 11 10 0 6 -2 10 -4 10 -3 0
-8 -4 -11 -10z"/>
</g>
</svg>
